  0
SECTION
  2
HEADER
  9
$ACADVER
  1
AC1015
  9
$ACADMAINTVER
 70
     6
  9
$DWGCODEPAGE
  3
ANSI_1252
  9
$INSBASE
 10
0.0
 20
0.0
 30
0.0
  9
$EXTMIN
 10
-18.3988395019
 20
-18.3807171453
 30
0.0
  9
$EXTMAX
 10
18.3962471724
 20
18.3938499932
 30
0.0
  9
$LIMMIN
 10
0.0
 20
0.0
  9
$LIMMAX
 10
420.0
 20
297.0
  9
$ORTHOMODE
 70
     0
  9
$REGENMODE
 70
     1
  9
$FILLMODE
 70
     1
  9
$QTEXTMODE
 70
     0
  9
$MIRRTEXT
 70
     1
  9
$LTSCALE
 40
1.0
  9
$ATTMODE
 70
     1
  9
$TEXTSIZE
 40
3.5
  9
$TRACEWID
 40
1.0
  9
$TEXTSTYLE
  7
Standard
  9
$CLAYER
  8
0
  9
$CELTYPE
  6
ByLayer
  9
$CECOLOR
 62
   256
  9
$CELTSCALE
 40
1.0
  9
$DISPSILH
 70
     0
  9
$DIMSCALE
 40
1.0
  9
$DIMASZ
 40
3.556
  9
$DIMEXO
 40
0.0
  9
$DIMDLI
 40
3.75
  9
$DIMRND
 40
0.0
  9
$DIMDLE
 40
0.0
  9
$DIMEXE
 40
1.0
  9
$DIMTP
 40
0.0
  9
$DIMTM
 40
0.0
  9
$DIMTXT
 40
3.5
  9
$DIMCEN
 40
2.5
  9
$DIMTSZ
 40
0.0
  9
$DIMTOL
 70
     0
  9
$DIMLIM
 70
     0
  9
$DIMTIH
 70
     1
  9
$DIMTOH
 70
     1
  9
$DIMSE1
 70
     0
  9
$DIMSE2
 70
     0
  9
$DIMTAD
 70
     1
  9
$DIMZIN
 70
     1
  9
$DIMBLK
  1

  9
$DIMASO
 70
     1
  9
$DIMSHO
 70
     1
  9
$DIMPOST
  1

  9
$DIMAPOST
  1

  9
$DIMALT
 70
     0
  9
$DIMALTD
 70
     3
  9
$DIMALTF
 40
0.0393700787
  9
$DIMLFAC
 40
1.0
  9
$DIMTOFL
 70
     1
  9
$DIMTVP
 40
0.0
  9
$DIMTIX
 70
     0
  9
$DIMSOXD
 70
     0
  9
$DIMSAH
 70
     0
  9
$DIMBLK1
  1

  9
$DIMBLK2
  1

  9
$DIMSTYLE
  2
ISO-25
  9
$DIMCLRD
 70
     0
  9
$DIMCLRE
 70
     0
  9
$DIMCLRT
 70
     0
  9
$DIMTFAC
 40
1.0
  9
$DIMGAP
 40
1.524
  9
$DIMJUST
 70
     0
  9
$DIMSD1
 70
     0
  9
$DIMSD2
 70
     0
  9
$DIMTOLJ
 70
     0
  9
$DIMTZIN
 70
     1
  9
$DIMALTZ
 70
     0
  9
$DIMALTTZ
 70
     0
  9
$DIMUPT
 70
     0
  9
$DIMDEC
 70
     2
  9
$DIMTDEC
 70
     2
  9
$DIMALTU
 70
     2
  9
$DIMALTTD
 70
     3
  9
$DIMTXSTY
  7
Standard
  9
$DIMAUNIT
 70
     0
  9
$DIMADEC
 70
     2
  9
$DIMALTRND
 40
0.0
  9
$DIMAZIN
 70
     0
  9
$DIMDSEP
 70
    44
  9
$DIMATFIT
 70
     3
  9
$DIMFRAC
 70
     0
  9
$DIMLDRBLK
  1

  9
$DIMLUNIT
 70
     2
  9
$DIMLWD
 70
    -2
  9
$DIMLWE
 70
    -2
  9
$DIMTMOVE
 70
     0
  9
$LUNITS
 70
     2
  9
$LUPREC
 70
     2
  9
$SKETCHINC
 40
1.0
  9
$FILLETRAD
 40
0.0
  9
$AUNITS
 70
     0
  9
$AUPREC
 70
     2
  9
$MENU
  1
.
  9
$ELEVATION
 40
0.0
  9
$PELEVATION
 40
0.0
  9
$THICKNESS
 40
0.0
  9
$LIMCHECK
 70
     0
  9
$CHAMFERA
 40
0.0
  9
$CHAMFERB
 40
0.0
  9
$CHAMFERC
 40
0.0
  9
$CHAMFERD
 40
0.0
  9
$SKPOLY
 70
     0
  9
$TDCREATE
 40
2460810.447080857
  9
$TDUCREATE
 40
2460810.613747523
  9
$TDUPDATE
 40
2460810.447142686
  9
$TDUUPDATE
 40
2460810.613809352
  9
$TDINDWG
 40
0.0000000116
  9
$TDUSRTIMER
 40
0.0000000116
  9
$USRTIMER
 70
     1
  9
$ANGBASE
 50
0.0
  9
$ANGDIR
 70
     0
  9
$PDMODE
 70
     0
  9
$PDSIZE
 40
-1.0
  9
$PLINEWID
 40
0.0
  9
$SPLFRAME
 70
     0
  9
$SPLINETYPE
 70
     6
  9
$SPLINESEGS
 70
     8
  9
$HANDSEED
  5
2BA
  9
$SURFTAB1
 70
     6
  9
$SURFTAB2
 70
     6
  9
$SURFTYPE
 70
     6
  9
$SURFU
 70
     6
  9
$SURFV
 70
     6
  9
$UCSBASE
  2

  9
$UCSNAME
  2

  9
$UCSORG
 10
0.0
 20
0.0
 30
0.0
  9
$UCSXDIR
 10
1.0
 20
0.0
 30
0.0
  9
$UCSYDIR
 10
0.0
 20
1.0
 30
0.0
  9
$UCSORTHOREF
  2

  9
$UCSORTHOVIEW
 70
     0
  9
$UCSORGTOP
 10
0.0
 20
0.0
 30
0.0
  9
$UCSORGBOTTOM
 10
0.0
 20
0.0
 30
0.0
  9
$UCSORGLEFT
 10
0.0
 20
0.0
 30
0.0
  9
$UCSORGRIGHT
 10
0.0
 20
0.0
 30
0.0
  9
$UCSORGFRONT
 10
0.0
 20
0.0
 30
0.0
  9
$UCSORGBACK
 10
0.0
 20
0.0
 30
0.0
  9
$PUCSBASE
  2

  9
$PUCSNAME
  2

  9
$PUCSORG
 10
0.0
 20
0.0
 30
0.0
  9
$PUCSXDIR
 10
1.0
 20
0.0
 30
0.0
  9
$PUCSYDIR
 10
0.0
 20
1.0
 30
0.0
  9
$PUCSORTHOREF
  2

  9
$PUCSORTHOVIEW
 70
     0
  9
$PUCSORGTOP
 10
0.0
 20
0.0
 30
0.0
  9
$PUCSORGBOTTOM
 10
0.0
 20
0.0
 30
0.0
  9
$PUCSORGLEFT
 10
0.0
 20
0.0
 30
0.0
  9
$PUCSORGRIGHT
 10
0.0
 20
0.0
 30
0.0
  9
$PUCSORGFRONT
 10
0.0
 20
0.0
 30
0.0
  9
$PUCSORGBACK
 10
0.0
 20
0.0
 30
0.0
  9
$USERI1
 70
     0
  9
$USERI2
 70
     0
  9
$USERI3
 70
     0
  9
$USERI4
 70
     0
  9
$USERI5
 70
     0
  9
$USERR1
 40
0.0
  9
$USERR2
 40
0.0
  9
$USERR3
 40
0.0
  9
$USERR4
 40
0.0
  9
$USERR5
 40
0.0
  9
$WORLDVIEW
 70
     1
  9
$SHADEDGE
 70
     3
  9
$SHADEDIF
 70
    70
  9
$TILEMODE
 70
     1
  9
$MAXACTVP
 70
    64
  9
$PINSBASE
 10
0.0
 20
0.0
 30
0.0
  9
$PLIMCHECK
 70
     0
  9
$PEXTMIN
 10
1.0000000000E+20
 20
1.0000000000E+20
 30
1.0000000000E+20
  9
$PEXTMAX
 10
-1.0000000000E+20
 20
-1.0000000000E+20
 30
-1.0000000000E+20
  9
$PLIMMIN
 10
0.0
 20
0.0
  9
$PLIMMAX
 10
420.0
 20
297.0
  9
$UNITMODE
 70
     0
  9
$VISRETAIN
 70
     1
  9
$PLINEGEN
 70
     0
  9
$PSLTSCALE
 70
     1
  9
$TREEDEPTH
 70
  3020
  9
$CMLSTYLE
  2
Standard
  9
$CMLJUST
 70
     0
  9
$CMLSCALE
 40
20.0
  9
$PROXYGRAPHICS
 70
     1
  9
$MEASUREMENT
 70
     1
  9
$CELWEIGHT
370
    -1
  9
$ENDCAPS
280
     0
  9
$JOINSTYLE
280
     0
  9
$LWDISPLAY
290
     1
  9
$INSUNITS
 70
     4
  9
$HYPERLINKBASE
  1

  9
$STYLESHEET
  1

  9
$XEDIT
290
     1
  9
$CEPSNTYPE
380
     0
  9
$PSTYLEMODE
290
     1
  9
$FINGERPRINTGUID
  2
{b8aa3ec9-897f-4186-9d35-36a0734b13c8}
  9
$VERSIONGUID
  2
{FAEB1C32-E019-11D5-929B-00C0DF256EC4}
  9
$EXTNAMES
290
     1
  9
$PSVPSCALE
 40
0.0
  9
$OLESTARTUP
290
     0
  0
ENDSEC
  0
SECTION
  2
CLASSES
  0
CLASS
  1
ACDBDICTIONARYWDFLT
  2
AcDbDictionaryWithDefault
  3
ObjectDBX Classes
 90
        0
280
     0
281
     0
  0
CLASS
  1
VISUALSTYLE
  2
AcDbVisualStyle
  3
ObjectDBX Classes
 90
     4095
280
     0
281
     0
  0
CLASS
  1
MATERIAL
  2
AcDbMaterial
  3
ObjectDBX Classes
 90
     1153
280
     0
281
     0
  0
CLASS
  1
SCALE
  2
AcDbScale
  3
ObjectDBX Classes
 90
     1153
280
     0
281
     0
  0
CLASS
  1
TABLESTYLE
  2
AcDbTableStyle
  3
ObjectDBX Classes
 90
     4095
280
     0
281
     0
  0
CLASS
  1
MLEADERSTYLE
  2
AcDbMLeaderStyle
  3
ACDB_MLEADERSTYLE_CLASS
 90
     4095
280
     0
281
     0
  0
CLASS
  1
SUN
  2
AcDbSun
  3
SCENEOE
 90
     1153
280
     0
281
     0
  0
CLASS
  1
ACDBPLACEHOLDER
  2
AcDbPlaceHolder
  3
ObjectDBX Classes
 90
        0
280
     0
281
     0
  0
CLASS
  1
LAYOUT
  2
AcDbLayout
  3
ObjectDBX Classes
 90
        0
280
     0
281
     0
  0
ENDSEC
  0
SECTION
  2
TABLES
  0
TABLE
  2
VPORT
  5
8
330
0
100
AcDbSymbolTable
 70
     1
  0
VPORT
  5
29
330
8
100
AcDbSymbolTableRecord
100
AcDbViewportTableRecord
  2
*Active
 70
     0
 10
0.0
 20
0.0
 11
1.0
 21
1.0
 12
-0.0012961648
 22
0.0065664239
 13
0.0
 23
0.0
 14
10.0
 24
10.0
 15
10.0
 25
10.0
 16
0.0
 26
0.0
 36
1.0
 17
0.0
 27
0.0
 37
0.0
 40
37.5100584813
 41
1.0005579817
 42
50.0
 43
0.0
 44
0.0
 50
0.0
 51
0.0
 71
     0
 72
   100
 73
     1
 74
     3
 75
     0
 76
     0
 77
     0
 78
     0
281
     0
 65
     1
110
0.0
120
0.0
130
0.0
111
1.0
121
0.0
131
0.0
112
0.0
122
1.0
132
0.0
 79
     0
146
0.0
  0
ENDTAB
  0
TABLE
  2
LTYPE
  5
5
330
0
100
AcDbSymbolTable
 70
     6
  0
LTYPE
  5
14
330
5
100
AcDbSymbolTableRecord
100
AcDbLinetypeTableRecord
  2
ByBlock
 70
     0
  3

 72
    65
 73
     0
 40
0.0
  0
LTYPE
  5
15
330
5
100
AcDbSymbolTableRecord
100
AcDbLinetypeTableRecord
  2
ByLayer
 70
     0
  3

 72
    65
 73
     0
 40
0.0
  0
LTYPE
  5
16
330
5
100
AcDbSymbolTableRecord
100
AcDbLinetypeTableRecord
  2
Continuous
 70
     0
  3
Solid line
 72
    65
 73
     0
 40
0.0
  0
LTYPE
  5
5E
330
5
100
AcDbSymbolTableRecord
100
AcDbLinetypeTableRecord
  2
HIDDEN
 70
     0
  3
Hidden __ __ __ __ __ __ __ __ __ __ __ __ __ __
 72
    65
 73
     2
 40
1.905
 49
1.27
 74
     0
 49
-0.635
 74
     0
  0
LTYPE
  5
5F
330
5
100
AcDbSymbolTableRecord
100
AcDbLinetypeTableRecord
  2
PHANTOM
 70
     0
  3
Phantom ______  __  __  ______  __  __  ______
 72
    65
 73
     6
 40
12.7
 49
6.35
 74
     0
 49
-1.27
 74
     0
 49
1.27
 74
     0
 49
-1.27
 74
     0
 49
1.27
 74
     0
 49
-1.27
 74
     0
  0
LTYPE
  5
60
330
5
100
AcDbSymbolTableRecord
100
AcDbLinetypeTableRecord
  2
CENTER
 70
     0
  3
Center ____ _ ____ _ ____ _ ____ _ ____ _ ____
 72
    65
 73
     4
 40
10.16
 49
6.35
 74
     0
 49
-1.27
 74
     0
 49
1.27
 74
     0
 49
-1.27
 74
     0
  0
LTYPE
  5
61
330
5
100
AcDbSymbolTableRecord
100
AcDbLinetypeTableRecord
  2
CENTERX2
 70
     0
  3
Center (2x) ________  __  ________  __  _____
 72
    65
 73
     4
 40
20.32
 49
12.7
 74
     0
 49
-2.54
 74
     0
 49
2.54
 74
     0
 49
-2.54
 74
     0
  0
LTYPE
  5
62
330
5
100
AcDbSymbolTableRecord
100
AcDbLinetypeTableRecord
  2
DOT2
 70
     0
  3
Dot (.5x) ........................................
 72
    65
 73
     2
 40
0.635
 49
0.0
 74
     0
 49
-0.635
 74
     0
  0
ENDTAB
  0
TABLE
  2
LAYER
  5
2
330
0
100
AcDbSymbolTable
 70
     1
  0
LAYER
  5
10
330
2
100
AcDbSymbolTableRecord
100
AcDbLayerTableRecord
  2
0
 70
     0
 62
     7
  6
Continuous
370
    -3
390
F
  0
ENDTAB
  0
TABLE
  2
STYLE
  5
3
330
0
100
AcDbSymbolTable
 70
     1
  0
STYLE
  5
11
330
3
100
AcDbSymbolTableRecord
100
AcDbTextStyleTableRecord
  2
Standard
 70
     0
 40
0.0
 41
1.0
 50
0.0
 71
     0
 42
3.5
  3
txt
  4

  0
ENDTAB
  0
TABLE
  2
VIEW
  5
6
330
0
100
AcDbSymbolTable
 70
     0
  0
ENDTAB
  0
TABLE
  2
UCS
  5
7
330
0
100
AcDbSymbolTable
 70
     0
  0
ENDTAB
  0
TABLE
  2
APPID
  5
9
330
0
100
AcDbSymbolTable
 70
     1
  0
APPID
  5
12
330
9
100
AcDbSymbolTableRecord
100
AcDbRegAppTableRecord
  2
ACAD
 70
     0
  0
ENDTAB
  0
TABLE
  2
DIMSTYLE
  5
A
330
0
100
AcDbSymbolTable
 70
     1
100
AcDbDimStyleTable
  0
DIMSTYLE
105
27
330
A
100
AcDbSymbolTableRecord
100
AcDbDimStyleTableRecord
  2
ISO-25
 70
     0
 41
2.5
 42
0.625
 43
3.75
 44
1.25
 73
     0
 74
     0
 77
     1
 78
     8
140
2.5
141
2.5
143
0.0393700787
147
0.625
171
     3
172
     1
178
     0
271
     2
272
     2
274
     3
278
    44
283
     0
284
     8
340
11
  0
ENDTAB
  0
TABLE
  2
BLOCK_RECORD
  5
1
330
0
100
AcDbSymbolTable
 70
     1
  0
BLOCK_RECORD
  5
1F
330
1
100
AcDbSymbolTableRecord
100
AcDbBlockTableRecord
  2
*Model_Space
340
22
  0
BLOCK_RECORD
  5
1B
330
1
100
AcDbSymbolTableRecord
100
AcDbBlockTableRecord
  2
*Paper_Space
340
1E
  0
BLOCK_RECORD
  5
23
330
1
100
AcDbSymbolTableRecord
100
AcDbBlockTableRecord
  2
*Paper_Space0
340
26
  0
ENDTAB
  0
ENDSEC
  0
SECTION
  2
BLOCKS
  0
BLOCK
  5
20
330
1F
100
AcDbEntity
  8
0
100
AcDbBlockBegin
  2
*Model_Space
 70
     0
 10
0.0
 20
0.0
 30
0.0
  3
*Model_Space
  1

  0
ENDBLK
  5
21
330
1F
100
AcDbEntity
  8
0
100
AcDbBlockEnd
  0
BLOCK
  5
1C
330
1B
100
AcDbEntity
 67
     1
  8
0
100
AcDbBlockBegin
  2
*Paper_Space
 70
     0
 10
0.0
 20
0.0
 30
0.0
  3
*Paper_Space
  1

  0
ENDBLK
  5
1D
330
1B
100
AcDbEntity
 67
     1
  8
0
100
AcDbBlockEnd
  0
BLOCK
  5
24
330
23
100
AcDbEntity
  8
0
100
AcDbBlockBegin
  2
*Paper_Space0
 70
     0
 10
0.0
 20
0.0
 30
0.0
  3
*Paper_Space0
  1

  0
ENDBLK
  5
25
330
23
100
AcDbEntity
  8
0
100
AcDbBlockEnd
  0
ENDSEC
  0
SECTION
  2
ENTITIES
  0
LWPOLYLINE
  5
73
330
1F
100
AcDbEntity
  8
0
  6
Continuous
 62
     7
370
    25
100
AcDbPolyline
 90
       24
 70
   128
 43
0.0
 10
-2.9998269003
 20
-18.3800410744
 10
-5.0358043943
 20
-18.3330160675
 10
-7.0575972289
 20
-18.248203984
 10
-9.0551360508
 20
-18.1100122831
 10
-11.0082759066
 20
-17.8936463871
 10
-11.8586369391
 20
-17.7617086768
 10
-12.6843224639
 20
-17.6015081221
 10
-13.4764335378
 20
-17.4075094252
 10
-14.2185537087
 20
-17.1743117784
 10
-14.8908393036
 20
-16.8975716348
 10
-15.4618102302
 20
-16.5825575114
 10
-15.9363356654
 20
-16.2232098781
 10
-16.3325914196
 20
-15.8039707844
 10
-16.6766573276
 20
-15.2975688108
 10
-17.0165845544
 20
-14.6031082873
 10
-17.301027904
 20
-13.8058666845
 10
-17.5338126601
 20
-12.9363560309
 10
-17.7223278438
 20
-12.0191903211
 10
-17.8742307412
 20
-11.0696026324
 10
-18.0920676599
 20
-9.1465055668
 10
-18.2329732235
 20
-7.1792107458
 10
-18.3333015548
 20
-4.8064812762
 10
-18.3834628956
 20
-2.4151376934
 10
-18.3986348444
 20
-0.0130227073
  0
LWPOLYLINE
  5
74
330
1F
100
AcDbEntity
  8
0
  6
Continuous
 62
     7
370
    25
100
AcDbPolyline
 90
       26
 70
   128
 43
0.0
 10
-18.3986348444
 20
-0.0130227073
 10
-18.3913557688
 20
1.8570785253
 10
-18.3645120856
 20
3.7214339139
 10
-18.312025168
 20
5.5771494575
 10
-18.2251633679
 20
7.4193450162
 10
-18.0908279841
 20
9.2392109119
 10
-17.8889593069
 20
11.0199555935
 10
-17.7453648553
 20
11.9336981409
 10
-17.5683912057
 20
12.818157739
 10
-17.3512521338
 20
13.6607135064
 10
-17.0871960181
 20
14.440209515
 10
-16.7720493607
 20
15.1301701786
 10
-16.4124783139
 20
15.6978956762
 10
-15.995435614
 20
16.1609760287
 10
-15.4910304131
 20
16.5515969757
 10
-14.8754532892
 20
16.8905724128
 10
-14.144661243
 20
17.1848411523
 10
-13.3360933359
 20
17.4292630492
 10
-12.4738748482
 20
17.6296408914
 10
-11.5762735541
 20
17.7926291962
 10
-10.6530806258
 20
17.925214717
 10
-8.7944847136
 20
18.1173214553
 10
-6.8995014582
 20
18.2432718611
 10
-4.6173799867
 20
18.3340122289
 10
-2.3188719316
 20
18.379853596
 10
-0.0106287432
 20
18.3938499932
  0
LWPOLYLINE
  5
75
330
1F
100
AcDbEntity
  8
0
  6
Continuous
 62
     7
370
    25
100
AcDbPolyline
 90
       26
 70
   128
 43
0.0
 10
-0.0106287432
 20
18.3938499932
 10
1.8594725682
 20
18.3865707049
 10
3.7238280375
 20
18.3597268159
 10
5.5795436647
 20
18.3072397027
 10
7.4217393119
 20
18.2203777214
 10
9.2416053047
 20
18.0860421781
 10
11.0223500996
 20
17.8841733753
 10
11.9360927207
 20
17.7405788771
 10
12.8205524041
 20
17.5636052005
 10
13.6631082814
 20
17.3464661238
 10
14.4426044311
 20
17.0824100298
 10
15.1325652757
 20
16.7672634187
 10
15.7002909715
 20
16.4076924435
 10
16.1633714943
 20
15.9906498673
 10
16.5539925701
 20
15.4862448699
 10
16.8929681304
 20
14.8706679919
 10
17.187237002
 20
14.1398761917
 10
17.4316590297
 20
13.3313085131
 10
17.632036995
 20
12.4690902375
 10
17.7950254143
 20
11.5714891466
 10
17.92761104
 20
10.6482964157
 10
18.1197179644
 20
8.7897008828
 10
18.2456685358
 20
6.8947180031
 10
18.3364090833
 20
4.6125969786
 10
18.3822506171
 20
2.3140893718
 10
18.3962471724
 20
0.0058466337
  0
LWPOLYLINE
  5
76
330
1F
100
AcDbEntity
  8
0
  6
Continuous
 62
     7
370
    25
100
AcDbPolyline
 90
       24
 70
   128
 43
0.0
 10
18.3962471724
 20
0.0058466337
 10
18.3847849603
 20
-2.2872883508
 10
18.3419662112
 20
-4.5708728663
 10
18.255024877
 20
-6.838491407
 10
18.1035107874
 20
-9.0772785624
 10
18.0061200124
 20
-10.0666246057
 10
17.8846614871
 20
-11.0407839663
 10
17.7337341793
 20
-11.9928440288
 10
17.5460422125
 20
-12.9125013903
 10
17.3139310904
 20
-13.7844081831
 10
17.0298529873
 20
-14.5839831729
 10
16.6899662684
 20
-15.2804276036
 10
16.3397754448
 20
-15.795499767
 10
15.9349397807
 20
-16.2207820917
 10
15.4478644819
 20
-16.5849726245
 10
14.8606179538
 20
-16.9035709429
 10
14.1828507109
 20
-17.1778297341
 10
13.1951354085
 20
-17.472200346
 10
12.1328902015
 20
-17.7029803454
 10
11.0241968936
 20
-17.8823472477
 10
9.0713220165
 20
-18.1007090614
 10
7.0739186735
 20
-18.2409510874
 10
5.0522394456
 20
-18.3278383205
 10
3.016282975
 20
-18.3769575355
  0
LWPOLYLINE
  5
9B
330
1F
100
AcDbEntity
  8
0
  6
Continuous
 62
     7
370
    25
100
AcDbPolyline
 90
        3
 70
   128
 43
0.0
 10
-14.0985728827
 20
13.35422004
 10
-14.1378907811
 20
13.2019618234
 10
-14.1573633565
 20
12.9906398944
  0
LWPOLYLINE
  5
B6
330
1F
100
AcDbEntity
  8
0
  6
Continuous
 62
     7
370
    25
100
AcDbPolyline
 90
        3
 70
   128
 43
0.0
 10
-15.0809816898
 20
11.5482315786
 10
-15.0863614889
 20
11.5310298797
 10
-15.1065427654
 20
11.3901532545
  0
LWPOLYLINE
  5
B9
330
1F
100
AcDbEntity
  8
0
  6
Continuous
 62
     7
370
    25
100
AcDbPolyline
 90
        3
 70
   128
 43
0.0
 10
-11.880982157
 20
11.5498722035
 10
-11.8863619562
 20
11.5326705046
 10
-11.9065432326
 20
11.3917938794
  0
LWPOLYLINE
  5
BC
330
1F
100
AcDbEntity
  8
0
  6
Continuous
 62
     7
370
    25
100
AcDbPolyline
 90
        3
 70
   128
 43
0.0
 10
-15.0826225947
 20
14.7482307375
 10
-15.0880023938
 20
14.7310290386
 10
-15.1081836702
 20
14.5901524133
  0
LWPOLYLINE
  5
BF
330
1F
100
AcDbEntity
  8
0
  6
Continuous
 62
     7
370
    25
100
AcDbPolyline
 90
        3
 70
   128
 43
0.0
 10
-11.8826230619
 20
14.7498713624
 10
-11.8880028611
 20
14.7326696635
 10
-11.9081841375
 20
14.5917930382
  0
LWPOLYLINE
  5
118
330
1F
100
AcDbEntity
  8
0
  6
Continuous
 62
     7
370
    25
100
AcDbPolyline
 90
        9
 70
   128
 43
0.0
 10
-11.5533461837
 20
-1.7577968053
 10
-11.5553718919
 20
-1.7577943949
 10
-11.5574702222
 20
-1.7577920332
 10
-11.5596409292
 20
-1.7577897204
 10
-11.5618837592
 20
-1.7577874568
 10
-11.5641984502
 20
-1.7577852427
 10
-11.5665847317
 20
-1.7577830783
 10
-11.5690423246
 20
-1.7577809639
 10
-11.5715709419
 20
-1.7577788998
  0
LWPOLYLINE
  5
11A
330
1F
100
AcDbEntity
  8
0
  6
Continuous
 62
     7
370
    25
100
AcDbPolyline
 90
        9
 70
   128
 43
0.0
 10
-11.7112289226
 20
-1.7578785703
 10
-11.7092838324
 20
-1.7578801581
 10
-11.7073933763
 20
-1.7578817845
 10
-11.7055577752
 20
-1.7578834494
 10
-11.7037772437
 20
-1.7578851526
 10
-11.7020519898
 20
-1.7578868938
 10
-11.7003822151
 20
-1.7578886729
 10
-11.6987681149
 20
-1.7578904896
 10
-11.6972098778
 20
-1.7578923438
  0
LWPOLYLINE
  5
128
330
1F
100
AcDbEntity
  8
0
  6
Continuous
 62
     7
370
    25
100
AcDbPolyline
 90
       12
 70
   128
 43
0.0
 10
-11.9080030599
 20
-0.5075122032
 10
-11.959413168
 20
-0.4872178217
 10
-12.0066791062
 20
-0.4280605545
 10
-12.0459716693
 20
-0.3348329716
 10
-12.0741076074
 20
-0.2150878174
 10
-12.0888075144
 20
-0.0785261321
 10
-12.0888804909
 20
0.0637886688
 10
-12.0743206251
 20
0.2003270864
 10
-12.0463074706
 20
0.3200275902
 10
-12.0071104865
 20
0.4131927572
 10
-11.9599051794
 20
0.4722748997
 10
-11.9085158427
 20
0.4924875339
  0
LWPOLYLINE
  5
12E
330
1F
100
AcDbEntity
  8
0
  6
Continuous
 62
     7
370
    25
100
AcDbPolyline
 90
        9
 70
   128
 43
0.0
 10
-11.5544999449
 20
0.4922026033
 10
-11.5565256532
 20
0.4922050137
 10
-11.5586239834
 20
0.4922073754
 10
-11.5607946904
 20
0.4922096882
 10
-11.5630375205
 20
0.4922119518
 10
-11.5653522115
 20
0.4922141659
 10
-11.5677384929
 20
0.4922163303
 10
-11.5701960859
 20
0.4922184447
 10
-11.5727247031
 20
0.4922205088
  0
LWPOLYLINE
  5
130
330
1F
100
AcDbEntity
  8
0
  6
Continuous
 62
     7
370
    25
100
AcDbPolyline
 90
        9
 70
   128
 43
0.0
 10
-11.7123826838
 20
0.4921208383
 10
-11.7104375936
 20
0.4921192505
 10
-11.7085471375
 20
0.4921176241
 10
-11.7067115364
 20
0.4921159592
 10
-11.7049310049
 20
0.492114256
 10
-11.703205751
 20
0.4921125148
 10
-11.7015359764
 20
0.4921107357
 10
-11.6999218762
 20
0.492108919
 10
-11.6983636391
 20
0.4921070648
  0
LWPOLYLINE
  5
132
330
1F
100
AcDbEntity
  8
0
  6
Continuous
 62
     7
370
    25
100
AcDbPolyline
 90
        3
 70
   128
 43
0.0
 10
-11.5273631896
 20
-0.5731373954
 10
-11.5334652037
 20
-0.5302471981
 10
-11.5539871621
 20
-0.5077971339
  0
LWPOLYLINE
  5
134
330
1F
100
AcDbEntity
  8
0
  6
Continuous
 62
     7
370
    25
100
AcDbPolyline
 90
        9
 70
   128
 43
0.0
 10
-11.5722119203
 20
-0.5077792283
 10
-11.5696833031
 20
-0.5077812925
 10
-11.5672257101
 20
-0.5077834069
 10
-11.5648394287
 20
-0.5077855712
 10
-11.5625247377
 20
-0.5077877853
 10
-11.5602819076
 20
-0.5077900489
 10
-11.5581112006
 20
-0.5077923617
 10
-11.5560128704
 20
-0.5077947235
 10
-11.5539871621
 20
-0.5077971339
  0
LWPOLYLINE
  5
136
330
1F
100
AcDbEntity
  8
0
  6
Continuous
 62
     7
370
    25
100
AcDbPolyline
 90
        3
 70
   128
 43
0.0
 10
-11.5285169508
 20
1.6768620131
 10
-11.534618965
 20
1.7197522104
 10
-11.5551409234
 20
1.7422022747
  0
LWPOLYLINE
  5
137
330
1F
100
AcDbEntity
  8
0
  6
Continuous
 62
     7
370
    25
100
AcDbPolyline
 90
        9
 70
   128
 43
0.0
 10
-11.5733656816
 20
1.7422201802
 10
-11.5708370643
 20
1.7422181161
 10
-11.5683794714
 20
1.7422160017
 10
-11.56599319
 20
1.7422138373
 10
-11.563678499
 20
1.7422116232
 10
-11.5614356689
 20
1.7422093596
 10
-11.5592649619
 20
1.7422070468
 10
-11.5571666316
 20
1.7422046851
 10
-11.5551409234
 20
1.7422022747
  0
LWPOLYLINE
  5
17A
330
1F
100
AcDbEntity
  8
0
  6
Continuous
 62
     7
370
    25
100
AcDbPolyline
 90
        9
 70
   128
 43
0.0
 10
-1.1930018301
 20
-3.6597619515
 10
-1.193006377
 20
-3.6541293841
 10
-1.1930113178
 20
-3.647515335
 10
-1.1930165986
 20
-3.6399918223
 10
-1.1930221621
 20
-3.6316407667
 10
-1.1930279477
 20
-3.6225531001
 10
-1.1930338922
 20
-3.6128277747
 10
-1.1930399311
 20
-3.6025706864
 10
-1.1930459985
 20
-3.5918935208
  0
LWPOLYLINE
  5
17B
330
1F
100
AcDbEntity
  8
0
  6
Continuous
 62
     7
370
    25
100
AcDbPolyline
 90
        9
 70
   128
 43
0.0
 10
-1.1924799697
 20
-4.5940616714
 10
-1.19247593
 20
-4.6038017969
 10
-1.1924714406
 20
-4.6140709236
 10
-1.1924665502
 20
-4.6247572346
 10
-1.1924613122
 20
-4.6357443703
 10
-1.1924557836
 20
-4.6469126957
 10
-1.1924500245
 20
-4.6581406029
 10
-1.1924440978
 20
-4.6693058351
 10
-1.1924380679
 20
-4.680286818
  0
LWPOLYLINE
  5
17C
330
1F
100
AcDbEntity
  8
0
  6
Continuous
 62
     7
370
    25
100
AcDbPolyline
 90
        9
 70
   128
 43
0.0
 10
1.1945978212
 20
-3.6585378402
 10
1.1945932744
 20
-3.6529052729
 10
1.1945883336
 20
-3.6462912238
 10
1.1945830527
 20
-3.638767711
 10
1.1945774892
 20
-3.6304166555
 10
1.1945717037
 20
-3.6213289888
 10
1.1945657592
 20
-3.6116036635
 10
1.1945597203
 20
-3.6013465751
 10
1.1945536529
 20
-3.5906694095
  0
LWPOLYLINE
  5
17D
330
1F
100
AcDbEntity
  8
0
  6
Continuous
 62
     7
370
    25
100
AcDbPolyline
 90
        9
 70
   128
 43
0.0
 10
1.1951196817
 20
-4.5928375601
 10
1.1951237214
 20
-4.6025776857
 10
1.1951282108
 20
-4.6128468124
 10
1.1951331012
 20
-4.6235331233
 10
1.1951383392
 20
-4.6345202591
 10
1.1951438678
 20
-4.6456885845
 10
1.1951496268
 20
-4.6569164916
 10
1.1951555536
 20
-4.6680817238
 10
1.1951615835
 20
-4.6790627068
  0
LWPOLYLINE
  5
17E
330
1F
100
AcDbEntity
  8
0
  6
Continuous
 62
     7
370
    25
100
AcDbPolyline
 90
        9
 70
   128
 43
0.0
 10
-1.1971876668
 20
4.5866208563
 10
-1.1971936133
 20
4.5963552496
 10
-1.1971996531
 20
4.6066197156
 10
-1.1972057205
 20
4.6173024884
 10
-1.1972117493
 20
4.6282872468
 10
-1.1972176739
 20
4.6394543818
 10
-1.1972234299
 20
4.6506822982
 10
-1.1972289544
 20
4.6618487394
 10
-1.1972341875
 20
4.6728321179
  0
LWPOLYLINE
  5
17F
330
1F
100
AcDbEntity
  8
0
  6
Continuous
 62
     7
370
    25
100
AcDbPolyline
 90
        9
 70
   128
 43
0.0
 10
-1.1967512097
 20
3.6520643998
 10
-1.1967499749
 20
3.6464218759
 10
-1.1967481278
 20
3.6397985269
 10
-1.1967456884
 20
3.632266472
 10
-1.1967426834
 20
3.6239077252
 10
-1.1967391455
 20
3.614813302
 10
-1.1967351131
 20
3.6050822282
 10
-1.1967306303
 20
3.5948204622
 10
-1.1967257457
 20
3.5841397407
  0
LWPOLYLINE
  5
180
330
1F
100
AcDbEntity
  8
0
  6
Continuous
 62
     7
370
    25
100
AcDbPolyline
 90
        9
 70
   128
 43
0.0
 10
1.1904119846
 20
4.5878449675
 10
1.190406038
 20
4.5975793608
 10
1.1903999982
 20
4.6078438269
 10
1.1903939309
 20
4.6185265996
 10
1.1903879021
 20
4.6295113581
 10
1.1903819775
 20
4.640678493
 10
1.1903762215
 20
4.6519064095
 10
1.190370697
 20
4.6630728507
 10
1.1903654639
 20
4.6740562291
  0
LWPOLYLINE
  5
181
330
1F
100
AcDbEntity
  8
0
  6
Continuous
 62
     7
370
    25
100
AcDbPolyline
 90
        9
 70
   128
 43
0.0
 10
1.1908484416
 20
3.6532885111
 10
1.1908496765
 20
3.6476459872
 10
1.1908515236
 20
3.6410226381
 10
1.190853963
 20
3.6334905833
 10
1.190856968
 20
3.6251318365
 10
1.1908605059
 20
3.6160374132
 10
1.1908645382
 20
3.6063063395
 10
1.1908690211
 20
3.5960445734
 10
1.1908739056
 20
3.5853638519
  0
LWPOLYLINE
  5
18A
330
1F
100
AcDbEntity
  8
0
  6
Continuous
 62
     7
370
    25
100
AcDbPolyline
 90
        9
 70
   128
 43
0.0
 10
-1.9814347151
 20
-1.8219673658
 10
-1.9814374024
 20
-1.8171303884
 10
-1.9814400816
 20
-1.812256272
 10
-1.9814427499
 20
-1.8073502361
 10
-1.9814454043
 20
-1.8024175341
 10
-1.981448042
 20
-1.7974634481
 10
-1.9814506602
 20
-1.7924932831
 10
-1.9814532562
 20
-1.7875123612
 10
-1.981455827
 20
-1.7825260161
  0
LWPOLYLINE
  5
18B
330
1F
100
AcDbEntity
  8
0
  6
Continuous
 62
     7
370
    25
100
AcDbPolyline
 90
        9
 70
   128
 43
0.0
 10
-1.9814818185
 20
-1.7826041509
 10
-1.9814766768
 20
-1.792576841
 10
-1.9814714849
 20
-1.8025386848
 10
-1.9814662485
 20
-1.8124790149
 10
-1.981460973
 20
-1.8223871869
 10
-1.9814556642
 20
-1.8322525909
 10
-1.9814503278
 20
-1.8420646627
 10
-1.9814449694
 20
-1.8518128954
 10
-1.9814395948
 20
-1.8614868503
  0
LWPOLYLINE
  5
18E
330
1F
100
AcDbEntity
  8
0
  6
Continuous
 62
     7
370
    25
100
AcDbPolyline
 90
        9
 70
   128
 43
0.0
 10
-0.4066560569
 20
-1.7817186236
 10
-0.4066534861
 20
-1.7867049687
 10
-0.4066508902
 20
-1.7916858906
 10
-0.4066482719
 20
-1.7966560556
 10
-0.4066456342
 20
-1.8016101416
 10
-0.4066429798
 20
-1.8065428436
 10
-0.4066403116
 20
-1.8114488795
 10
-0.4066376324
 20
-1.8163229959
 10
-0.4066349451
 20
-1.8211599733
  0
LWPOLYLINE
  5
18F
330
1F
100
AcDbEntity
  8
0
  6
Continuous
 62
     7
370
    25
100
AcDbPolyline
 90
        9
 70
   128
 43
0.0
 10
0.4061178329
 20
-1.7813800396
 10
0.4061229746
 20
-1.7913527298
 10
0.4061281664
 20
-1.8013145736
 10
0.4061334029
 20
-1.8112549037
 10
0.4061386783
 20
-1.8211630756
 10
0.4061439871
 20
-1.8310284796
 10
0.4061493236
 20
-1.8408405515
 10
0.406154682
 20
-1.8505887842
 10
0.4061600566
 20
-1.8602627391
  0
LWPOLYLINE
  5
191
330
1F
100
AcDbEntity
  8
0
  6
Continuous
 62
     7
370
    25
100
AcDbPolyline
 90
        9
 70
   128
 43
0.0
 10
0.4061649362
 20
-1.8207432546
 10
0.4061622489
 20
-1.8159062771
 10
0.4061595697
 20
-1.8110321608
 10
0.4061569015
 20
-1.8061261249
 10
0.4061542471
 20
-1.8011934229
 10
0.4061516094
 20
-1.7962393369
 10
0.4061489911
 20
-1.7912691718
 10
0.4061463952
 20
-1.7862882499
 10
0.4061438244
 20
-1.7813019049
  0
LWPOLYLINE
  5
192
330
1F
100
AcDbEntity
  8
0
  6
Continuous
 62
     7
370
    25
100
AcDbPolyline
 90
        9
 70
   128
 43
0.0
 10
1.9809435944
 20
-1.7804945123
 10
1.9809461653
 20
-1.7854808574
 10
1.9809487612
 20
-1.7904617793
 10
1.9809513794
 20
-1.7954319444
 10
1.9809540172
 20
-1.8003860304
 10
1.9809566716
 20
-1.8053187323
 10
1.9809593398
 20
-1.8102247683
 10
1.980962019
 20
-1.8150988846
 10
1.9809647063
 20
-1.8199358621
  0
LWPOLYLINE
  5
195
330
1F
100
AcDbEntity
  8
0
  6
Continuous
 62
     7
370
    25
100
AcDbPolyline
 90
        9
 70
   128
 43
0.0
 10
-1.9833439552
 20
1.8522882634
 10
-1.9833394073
 20
1.8426118234
 10
-1.9833347671
 20
1.8328614316
 10
-1.9833300397
 20
1.8230475289
 10
-1.9833252301
 20
1.8131806243
 10
-1.9833203435
 20
1.8032712834
 10
-1.983315385
 20
1.7933301176
 10
-1.9833103601
 20
1.7833677719
 10
-1.9833052741
 20
1.7733949144
  0
LWPOLYLINE
  5
196
330
1F
100
AcDbEntity
  8
0
  6
Continuous
 62
     7
370
    25
100
AcDbPolyline
 90
        9
 70
   128
 43
0.0
 10
-1.9832792826
 20
1.7734730492
 10
-1.9832818256
 20
1.7784594779
 10
-1.983284338
 20
1.7834406507
 10
-1.9832868173
 20
1.7884112337
 10
-1.9832892606
 20
1.7933659041
 10
-1.9832916654
 20
1.7982993564
 10
-1.9832940291
 20
1.8032063078
 10
-1.9832963492
 20
1.8080815037
 10
-1.9832986231
 20
1.8129197237
  0
LWPOLYLINE
  5
197
330
1F
100
AcDbEntity
  8
0
  6
Continuous
 62
     7
370
    25
100
AcDbPolyline
 90
        9
 70
   128
 43
0.0
 10
-0.4084988531
 20
1.8137271162
 10
-0.4084965791
 20
1.8088888962
 10
-0.408494259
 20
1.8040137003
 10
-0.4084918953
 20
1.7991067489
 10
-0.4084894905
 20
1.7941732966
 10
-0.4084870472
 20
1.7892186262
 10
-0.408484568
 20
1.7842480433
 10
-0.4084820555
 20
1.7792668704
 10
-0.4084795125
 20
1.7742804417
  0
LWPOLYLINE
  5
199
330
1F
100
AcDbEntity
  8
0
  6
Continuous
 62
     7
370
    25
100
AcDbPolyline
 90
        9
 70
   128
 43
0.0
 10
0.4042556962
 20
1.8535123746
 10
0.4042602441
 20
1.8438359347
 10
0.4042648843
 20
1.8340855429
 10
0.4042696117
 20
1.8242716402
 10
0.4042744213
 20
1.8144047355
 10
0.4042793079
 20
1.8044953947
 10
0.4042842663
 20
1.7945542288
 10
0.4042892913
 20
1.7845918832
 10
0.4042943773
 20
1.7746190257
  0
LWPOLYLINE
  5
19A
330
1F
100
AcDbEntity
  8
0
  6
Continuous
 62
     7
370
    25
100
AcDbPolyline
 90
        9
 70
   128
 43
0.0
 10
0.4043203688
 20
1.7746971604
 10
0.4043178258
 20
1.7796835892
 10
0.4043153133
 20
1.784664762
 10
0.4043128341
 20
1.7896353449
 10
0.4043103908
 20
1.7945900153
 10
0.404307986
 20
1.7995234677
 10
0.4043056223
 20
1.804430419
 10
0.4043033022
 20
1.8093056149
 10
0.4043010282
 20
1.8141438349
  0
LWPOLYLINE
  5
19B
330
1F
100
AcDbEntity
  8
0
  6
Continuous
 62
     7
370
    25
100
AcDbPolyline
 90
        9
 70
   128
 43
0.0
 10
1.9791007983
 20
1.8149512274
 10
1.9791030723
 20
1.8101130074
 10
1.9791053924
 20
1.8052378115
 10
1.9791077561
 20
1.8003308602
 10
1.9791101609
 20
1.7953974079
 10
1.9791126042
 20
1.7904427374
 10
1.9791150834
 20
1.7854721545
 10
1.9791175959
 20
1.7804909817
 10
1.9791201389
 20
1.7755045529
  0
LINE
  5
1A3
330
1F
100
AcDbEntity
  8
0
  6
Continuous
 62
     7
370
    25
100
AcDbLine
 10
-2.5177932219
 20
-18.0385391872
 30
0.0
 11
-2.5175885644
 21
-18.037923953
 31
0.0
  0
LINE
  5
1A4
330
1F
100
AcDbEntity
  8
0
  6
Continuous
 62
     7
370
    25
100
AcDbLine
 10
17.2376370793
 20
-14.0235986566
 30
0.0
 11
17.2378417369
 21
-14.0229834224
 31
0.0
  0
LINE
  5
1A5
330
1F
100
AcDbEntity
  8
0
  6
Continuous
 62
     7
370
    25
100
AcDbLine
 10
-17.2402285296
 20
14.0158068014
 30
0.0
 11
-17.2404331871
 21
14.0151915672
 31
0.0
  0
LINE
  5
1A6
330
1F
100
AcDbEntity
  8
0
  6
Continuous
 62
     7
370
    25
100
AcDbLine
 10
-11.9161541662
 20
12.628238948
 30
0.0
 11
-11.9158301251
 21
12.6292130689
 31
0.0
  0
LINE
  5
1A7
330
1F
100
AcDbEntity
  8
0
  6
Continuous
 62
     7
370
    25
100
AcDbLine
 10
-14.0982488416
 20
13.3551941608
 30
0.0
 11
-14.0985728827
 21
13.35422004
 31
0.0
  0
LINE
  5
1A8
330
1F
100
AcDbEntity
  8
0
  6
Continuous
 62
     7
370
    25
100
AcDbLine
 10
-14.132103987
 20
11.2325876256
 30
0.0
 11
-14.1320869322
 21
11.2326388951
 31
0.0
  0
LINE
  5
1A9
330
1F
100
AcDbEntity
  8
0
  6
Continuous
 62
     7
370
    25
100
AcDbLine
 10
-15.080964635
 20
11.5482828481
 30
0.0
 11
-15.0809816898
 21
11.5482315786
 31
0.0
  0
LINE
  5
1AA
330
1F
100
AcDbEntity
  8
0
  6
Continuous
 62
     7
370
    25
100
AcDbLine
 10
-10.9321044542
 20
11.2342282505
 30
0.0
 11
-10.9320873994
 21
11.23427952
 31
0.0
  0
LINE
  5
1AB
330
1F
100
AcDbEntity
  8
0
  6
Continuous
 62
     7
370
    25
100
AcDbLine
 10
-11.8809651022
 20
11.549923473
 30
0.0
 11
-11.880982157
 21
11.5498722035
 31
0.0
  0
LINE
  5
1AC
330
1F
100
AcDbEntity
  8
0
  6
Continuous
 62
     7
370
    25
100
AcDbLine
 10
-14.1337448918
 20
14.4325867844
 30
0.0
 11
-14.133727837
 21
14.432638054
 31
0.0
  0
LINE
  5
1AD
330
1F
100
AcDbEntity
  8
0
  6
Continuous
 62
     7
370
    25
100
AcDbLine
 10
-15.0826055399
 20
14.748282007
 30
0.0
 11
-15.0826225947
 21
14.7482307375
 31
0.0
  0
LINE
  5
1AE
330
1F
100
AcDbEntity
  8
0
  6
Continuous
 62
     7
370
    25
100
AcDbLine
 10
-10.9337453591
 20
14.4342274093
 30
0.0
 11
-10.9337283043
 21
14.4342786789
 31
0.0
  0
LINE
  5
1AF
330
1F
100
AcDbEntity
  8
0
  6
Continuous
 62
     7
370
    25
100
AcDbLine
 10
-11.8826060071
 20
14.7499226319
 30
0.0
 11
-11.8826230619
 21
14.7498713624
 31
0.0
  0
LINE
  5
1B0
330
1F
100
AcDbEntity
  8
0
  6
Continuous
 62
     7
370
    25
100
AcDbLine
 10
-11.5267925445
 20
-1.6858508634
 30
0.0
 11
-11.5273632618
 21
-0.572870487
 31
0.0
  0
LINE
  5
1B1
330
1F
100
AcDbEntity
  8
0
  6
Continuous
 62
     7
370
    25
100
AcDbLine
 10
-11.5279463058
 20
0.5641485452
 30
0.0
 11
-11.5285170231
 21
1.6771289215
 31
0.0
  0
LINE
  5
1B2
330
1F
100
AcDbEntity
  8
0
  6
Continuous
 62
     7
370
    25
100
AcDbLine
 10
2.5079717816
 20
-17.87728303
 30
0.0
 11
2.5070103238
 21
-16.0023029224
 31
0.0
  0
LINE
  5
1B3
330
1F
100
AcDbEntity
  8
0
  6
Continuous
 62
     7
370
    25
100
AcDbLine
 10
-2.4920274888
 20
-17.8798456288
 30
0.0
 11
-2.4929889461
 21
-16.0048663988
 31
0.0
  0
LINE
  5
1B4
330
1F
100
AcDbEntity
  8
0
  6
Continuous
 62
     7
370
    25
100
AcDbLine
 10
-3.0000315578
 20
-18.3806563086
 30
0.0
 11
-2.9998269003
 21
-18.3800410744
 31
0.0
  0
LINE
  5
1B5
330
1F
100
AcDbEntity
  8
0
  6
Continuous
 62
     7
370
    25
100
AcDbLine
 10
-18.3986348444
 20
-0.0130227073
 30
0.0
 11
-18.3988395019
 21
-0.0136379415
 31
0.0
  0
LINE
  5
1B6
330
1F
100
AcDbEntity
  8
0
  6
Continuous
 62
     7
370
    25
100
AcDbLine
 10
2.5079717816
 20
-17.87728303
 30
0.0
 11
2.507767124
 21
-17.8778982643
 31
0.0
  0
LINE
  5
1B7
330
1F
100
AcDbEntity
  8
0
  6
Continuous
 62
     7
370
    25
100
AcDbLine
 10
3.016282975
 20
-18.3769575355
 30
0.0
 11
3.0160783174
 21
-18.3775727697
 31
0.0
  0
LINE
  5
1B8
330
1F
100
AcDbEntity
  8
0
  6
Continuous
 62
     7
370
    25
100
AcDbLine
 10
2.507767124
 20
-17.8778982643
 30
0.0
 11
2.5068056663
 21
-16.0029181567
 31
0.0
  0
LINE
  5
1B9
330
1F
100
AcDbEntity
  8
0
  6
Continuous
 62
     7
370
    25
100
AcDbLine
 10
2.5070103238
 20
-16.0023029224
 30
0.0
 11
2.5068056663
 21
-16.0029181567
 31
0.0
  0
LINE
  5
1BA
330
1F
100
AcDbEntity
  8
0
  6
Continuous
 62
     7
370
    25
100
AcDbLine
 10
-13.2470896386
 20
-8.0103799759
 30
0.0
 11
-13.2472942962
 21
-8.0109952101
 31
0.0
  0
LINE
  5
1BB
330
1F
100
AcDbEntity
  8
0
  6
Continuous
 62
     7
370
    25
100
AcDbLine
 10
14.7554701868
 20
-12.9960231939
 30
0.0
 11
14.7552655293
 21
-12.9966384281
 31
0.0
  0
LINE
  5
1BC
330
1F
100
AcDbEntity
  8
0
  6
Continuous
 62
     7
370
    25
100
AcDbLine
 10
1.7408577759
 20
15.4973042761
 30
0.0
 11
1.7406531183
 21
15.4966890419
 31
0.0
  0
LINE
  5
1BD
330
1F
100
AcDbEntity
  8
0
  6
Continuous
 62
     7
370
    25
100
AcDbLine
 10
-11.8570396513
 20
12.9927932144
 30
0.0
 11
-12.0570055125
 21
12.9927932144
 31
0.0
  0
LINE
  5
1BE
330
1F
100
AcDbEntity
  8
0
  6
Continuous
 62
     7
370
    25
100
AcDbLine
 10
-13.957005235
 20
12.9918190934
 30
0.0
 11
-14.1570393154
 21
12.9916140153
 31
0.0
  0
LINE
  5
1BF
330
1F
100
AcDbEntity
  8
0
  6
Continuous
 62
     7
370
    25
100
AcDbLine
 10
-14.1573633565
 20
12.9906398944
 30
0.0
 11
-14.1570393154
 21
12.9916140153
 31
0.0
  0
LINE
  5
1C0
330
1F
100
AcDbEntity
  8
0
  6
Continuous
 62
     7
370
    25
100
AcDbLine
 10
-14.1065258566
 20
11.3907172193
 30
0.0
 11
-14.3064917178
 21
11.3907172192
 31
0.0
  0
LINE
  5
1C1
330
1F
100
AcDbEntity
  8
0
  6
Continuous
 62
     7
370
    25
100
AcDbLine
 10
-14.9064916302
 20
11.3904096021
 30
0.0
 11
-15.1065257106
 21
11.390204524
 31
0.0
  0
LINE
  5
1C2
330
1F
100
AcDbEntity
  8
0
  6
Continuous
 62
     7
370
    25
100
AcDbLine
 10
-10.9065263238
 20
11.3923578442
 30
0.0
 11
-11.106492185
 21
11.3923578441
 31
0.0
  0
LINE
  5
1C3
330
1F
100
AcDbEntity
  8
0
  6
Continuous
 62
     7
370
    25
100
AcDbLine
 10
-11.7064920974
 20
11.392050227
 30
0.0
 11
-11.9065261778
 21
11.3918451489
 31
0.0
  0
LINE
  5
1C4
330
1F
100
AcDbEntity
  8
0
  6
Continuous
 62
     7
370
    25
100
AcDbLine
 10
-14.1081667615
 20
14.5907163781
 30
0.0
 11
-14.3081326227
 21
14.5907163781
 31
0.0
  0
LINE
  5
1C5
330
1F
100
AcDbEntity
  8
0
  6
Continuous
 62
     7
370
    25
100
AcDbLine
 10
-14.9081325351
 20
14.5904087609
 30
0.0
 11
-15.1081666154
 21
14.5902036828
 31
0.0
  0
LINE
  5
1C6
330
1F
100
AcDbEntity
  8
0
  6
Continuous
 62
     7
370
    25
100
AcDbLine
 10
-10.9081672287
 20
14.592357003
 30
0.0
 11
-11.1081330899
 21
14.592357003
 31
0.0
  0
LINE
  5
1C7
330
1F
100
AcDbEntity
  8
0
  6
Continuous
 62
     7
370
    25
100
AcDbLine
 10
-11.7081330023
 20
14.5920493858
 30
0.0
 11
-11.9081670827
 21
14.5918443077
 31
0.0
  0
LINE
  5
1C8
330
1F
100
AcDbEntity
  8
0
  6
Continuous
 62
     7
370
    25
100
AcDbLine
 10
-15.1065427654
 20
11.3901532545
 30
0.0
 11
-15.1065257106
 21
11.390204524
 31
0.0
  0
LINE
  5
1C9
330
1F
100
AcDbEntity
  8
0
  6
Continuous
 62
     7
370
    25
100
AcDbLine
 10
-11.9065432326
 20
11.3917938794
 30
0.0
 11
-11.9065261778
 21
11.3918451489
 31
0.0
  0
LINE
  5
1CA
330
1F
100
AcDbEntity
  8
0
  6
Continuous
 62
     7
370
    25
100
AcDbLine
 10
-15.1081836702
 20
14.5901524133
 30
0.0
 11
-15.1081666154
 21
14.5902036828
 31
0.0
  0
LINE
  5
1CB
330
1F
100
AcDbEntity
  8
0
  6
Continuous
 62
     7
370
    25
100
AcDbLine
 10
-11.9081841375
 20
14.5917930382
 30
0.0
 11
-11.9081670827
 21
14.5918443077
 31
0.0
  0
LINE
  5
1CC
330
1F
100
AcDbEntity
  8
0
  6
Continuous
 62
     7
370
    25
100
AcDbLine
 10
-15.2585169571
 20
15.2400753382
 30
0.0
 11
-15.2562094346
 21
10.740076521
 31
0.0
  0
LINE
  5
1CD
330
1F
100
AcDbEntity
  8
0
  6
Continuous
 62
     7
370
    25
100
AcDbLine
 10
-10.7585176142
 20
15.2423824669
 30
0.0
 11
-15.2585169571
 21
15.2400753382
 31
0.0
  0
LINE
  5
1CE
330
1F
100
AcDbEntity
  8
0
  6
Continuous
 62
     7
370
    25
100
AcDbLine
 10
-10.7562100917
 20
10.7423836498
 30
0.0
 11
-10.7585176142
 21
15.2423824669
 31
0.0
  0
LINE
  5
1CF
330
1F
100
AcDbEntity
  8
0
  6
Continuous
 62
     7
370
    25
100
AcDbLine
 10
-15.2562094346
 20
10.740076521
 30
0.0
 11
-10.7562100917
 21
10.7423836498
 31
0.0
  0
LINE
  5
1D0
330
1F
100
AcDbEntity
  8
0
  6
Continuous
 62
     7
370
    25
100
AcDbLine
 10
-15.2567040237
 20
10.738589705
 30
0.0
 11
-10.7567046807
 21
10.7408968337
 31
0.0
  0
LINE
  5
1D1
330
1F
100
AcDbEntity
  8
0
  6
Continuous
 62
     7
370
    25
100
AcDbLine
 10
-15.2567040237
 20
10.738589705
 30
0.0
 11
-15.2562094346
 21
10.740076521
 31
0.0
  0
LINE
  5
1D2
330
1F
100
AcDbEntity
  8
0
  6
Continuous
 62
     7
370
    25
100
AcDbLine
 10
-10.7567046807
 20
10.7408968337
 30
0.0
 11
-10.7562100917
 21
10.7423836498
 31
0.0
  0
LINE
  5
1D3
330
1F
100
AcDbEntity
  8
0
  6
Continuous
 62
     7
370
    25
100
AcDbLine
 10
-15.2590115462
 20
15.2385885221
 30
0.0
 11
-15.2588067222
 21
14.8391524956
 31
0.0
  0
LINE
  5
1D4
330
1F
100
AcDbEntity
  8
0
  6
Continuous
 62
     7
370
    25
100
AcDbLine
 10
-15.2584476954
 20
14.1389988974
 30
0.0
 11
-15.2572683739
 21
11.8391532842
 31
0.0
  0
LINE
  5
1D5
330
1F
100
AcDbEntity
  8
0
  6
Continuous
 62
     7
370
    25
100
AcDbLine
 10
-15.2569093471
 20
11.1389996859
 30
0.0
 11
-15.2567040237
 21
10.738589705
 31
0.0
  0
LINE
  5
1D6
330
1F
100
AcDbEntity
  8
0
  6
Continuous
 62
     7
370
    25
100
AcDbLine
 10
-15.2590115462
 20
15.2385885221
 30
0.0
 11
-15.2585169571
 21
15.2400753382
 31
0.0
  0
LINE
  5
1D7
330
1F
100
AcDbEntity
  8
0
  6
Continuous
 62
     7
370
    25
100
AcDbLine
 10
-15.2567726984
 20
11.138999756
 30
0.0
 11
-15.256721534
 21
11.1391535645
 31
0.0
  0
LINE
  5
1D8
330
1F
100
AcDbEntity
  8
0
  6
Continuous
 62
     7
370
    25
100
AcDbLine
 10
-15.257080482
 20
11.8391533805
 30
0.0
 11
-15.256721534
 21
11.1391535645
 31
0.0
  0
LINE
  5
1D9
330
1F
100
AcDbEntity
  8
0
  6
Continuous
 62
     7
370
    25
100
AcDbLine
 10
-15.2583110468
 20
14.1389989674
 30
0.0
 11
-15.2582598824
 21
14.139152776
 31
0.0
  0
LINE
  5
1DA
330
1F
100
AcDbEntity
  8
0
  6
Continuous
 62
     7
370
    25
100
AcDbLine
 10
-15.2582598824
 20
14.139152776
 30
0.0
 11
-15.2586188303
 21
14.839152592
 31
0.0
  0
LINE
  5
1DB
330
1F
100
AcDbEntity
  8
0
  6
Continuous
 62
     7
370
    25
100
AcDbLine
 10
-15.3567215194
 20
11.139102295
 30
0.0
 11
-15.65677264
 21
11.1387946779
 31
0.0
  0
LINE
  5
1DC
330
1F
100
AcDbEntity
  8
0
  6
Continuous
 62
     7
370
    25
100
AcDbLine
 10
-15.256721534
 20
11.1391535645
 30
0.0
 11
-15.3567215194
 21
11.139102295
 31
0.0
  0
LINE
  5
1DD
330
1F
100
AcDbEntity
  8
0
  6
Continuous
 62
     7
370
    25
100
AcDbLine
 10
-15.3567726838
 20
11.1389484865
 30
0.0
 11
-15.2567726984
 21
11.138999756
 31
0.0
  0
LINE
  5
1DE
330
1F
100
AcDbEntity
  8
0
  6
Continuous
 62
     7
370
    25
100
AcDbLine
 10
-15.3568579578
 20
11.1386921389
 30
0.0
 11
-15.3567726838
 21
11.1389484865
 31
0.0
  0
LINE
  5
1DF
330
1F
100
AcDbEntity
  8
0
  6
Continuous
 62
     7
370
    25
100
AcDbLine
 10
-15.6569090784
 20
11.1383845217
 30
0.0
 11
-15.3568579578
 21
11.1386921389
 31
0.0
  0
LINE
  5
1E0
330
1F
100
AcDbEntity
  8
0
  6
Continuous
 62
     7
370
    25
100
AcDbLine
 10
-16.2569089908
 20
11.1380769046
 30
0.0
 11
-15.6569090784
 21
11.1383845217
 31
0.0
  0
LINE
  5
1E1
330
1F
100
AcDbEntity
  8
0
  6
Continuous
 62
     7
370
    25
100
AcDbLine
 10
-16.2568578264
 20
11.1382307131
 30
0.0
 11
-16.2569089908
 21
11.1380769046
 31
0.0
  0
LINE
  5
1E2
330
1F
100
AcDbEntity
  8
0
  6
Continuous
 62
     7
370
    25
100
AcDbLine
 10
-15.656857914
 20
11.1385383303
 30
0.0
 11
-16.2568578264
 21
11.1382307131
 31
0.0
  0
LINE
  5
1E3
330
1F
100
AcDbEntity
  8
0
  6
Continuous
 62
     7
370
    25
100
AcDbLine
 10
-15.65677264
 20
11.1387946779
 30
0.0
 11
-15.656857914
 21
11.1385383303
 31
0.0
  0
LINE
  5
1E4
330
1F
100
AcDbEntity
  8
0
  6
Continuous
 62
     7
370
    25
100
AcDbLine
 10
-15.3570804674
 20
11.839102111
 30
0.0
 11
-15.657131588
 21
11.8387944939
 31
0.0
  0
LINE
  5
1E5
330
1F
100
AcDbEntity
  8
0
  6
Continuous
 62
     7
370
    25
100
AcDbLine
 10
-15.3567215194
 20
11.139102295
 30
0.0
 11
-15.3570804674
 21
11.839102111
 31
0.0
  0
LINE
  5
1E6
330
1F
100
AcDbEntity
  8
0
  6
Continuous
 62
     7
370
    25
100
AcDbLine
 10
-15.65677264
 20
11.1387946779
 30
0.0
 11
-15.657131588
 21
11.8387944939
 31
0.0
  0
LINE
  5
1E7
330
1F
100
AcDbEntity
  8
0
  6
Continuous
 62
     7
370
    25
100
AcDbLine
 10
-15.257080482
 20
11.8391533805
 30
0.0
 11
-15.3570804674
 21
11.839102111
 31
0.0
  0
LINE
  5
1E8
330
1F
100
AcDbEntity
  8
0
  6
Continuous
 62
     7
370
    25
100
AcDbLine
 10
-10.6567222057
 20
11.1415119628
 30
0.0
 11
-10.6570811537
 21
11.8415117788
 31
0.0
  0
LINE
  5
1E9
330
1F
100
AcDbEntity
  8
0
  6
Continuous
 62
     7
370
    25
100
AcDbLine
 10
-10.6567222057
 20
11.1415119628
 30
0.0
 11
-10.7564147317
 21
11.1414608509
 31
0.0
  0
LINE
  5
1EA
330
1F
100
AcDbEntity
  8
0
  6
Continuous
 62
     7
370
    25
100
AcDbLine
 10
-10.6570811537
 20
11.8415117788
 30
0.0
 11
-10.7567736796
 21
11.8414606669
 31
0.0
  0
LINE
  5
1EB
330
1F
100
AcDbEntity
  8
0
  6
Continuous
 62
     7
370
    25
100
AcDbLine
 10
-10.3567734139
 20
11.1415119628
 30
0.0
 11
-10.6567222057
 21
11.1415119628
 31
0.0
  0
LINE
  5
1EC
330
1F
100
AcDbEntity
  8
0
  6
Continuous
 62
     7
370
    25
100
AcDbLine
 10
-10.3568586879
 20
11.1412556153
 30
0.0
 11
-10.3567734139
 21
11.1415119628
 31
0.0
  0
LINE
  5
1ED
330
1F
100
AcDbEntity
  8
0
  6
Continuous
 62
     7
370
    25
100
AcDbLine
 10
-9.7568587755
 20
11.1415632324
 30
0.0
 11
-10.3568586879
 21
11.1412556153
 31
0.0
  0
LINE
  5
1EE
330
1F
100
AcDbEntity
  8
0
  6
Continuous
 62
     7
370
    25
100
AcDbLine
 10
-9.7569099399
 20
11.1414094239
 30
0.0
 11
-9.7568587755
 21
11.1415632324
 31
0.0
  0
LINE
  5
1EF
330
1F
100
AcDbEntity
  8
0
  6
Continuous
 62
     7
370
    25
100
AcDbLine
 10
-10.3569098523
 20
11.1411018067
 30
0.0
 11
-9.7569099399
 21
11.1414094239
 31
0.0
  0
LINE
  5
1F0
330
1F
100
AcDbEntity
  8
0
  6
Continuous
 62
     7
370
    25
100
AcDbLine
 10
-10.6568586441
 20
11.1411018067
 30
0.0
 11
-10.3569098523
 21
11.1411018067
 31
0.0
  0
LINE
  5
1F1
330
1F
100
AcDbEntity
  8
0
  6
Continuous
 62
     7
370
    25
100
AcDbLine
 10
-10.6567733701
 20
11.1413581543
 30
0.0
 11
-10.6568586441
 21
11.1411018067
 31
0.0
  0
LINE
  5
1F2
330
1F
100
AcDbEntity
  8
0
  6
Continuous
 62
     7
370
    25
100
AcDbLine
 10
-10.7564146528
 20
11.1413070686
 30
0.0
 11
-10.6567733701
 21
11.1413581543
 31
0.0
  0
LINE
  5
1F3
330
1F
100
AcDbEntity
  8
0
  6
Continuous
 62
     7
370
    25
100
AcDbLine
 10
-10.3571323619
 20
11.8415117788
 30
0.0
 11
-10.6570811537
 21
11.8415117788
 31
0.0
  0
LINE
  5
1F4
330
1F
100
AcDbEntity
  8
0
  6
Continuous
 62
     7
370
    25
100
AcDbLine
 10
-10.3567734139
 20
11.1415119628
 30
0.0
 11
-10.3571323619
 21
11.8415117788
 31
0.0
  0
LINE
  5
1F5
330
1F
100
AcDbEntity
  8
0
  6
Continuous
 62
     7
370
    25
100
AcDbLine
 10
-15.3582598678
 20
14.1391015064
 30
0.0
 11
-15.6583109884
 21
14.1387938893
 31
0.0
  0
LINE
  5
1F6
330
1F
100
AcDbEntity
  8
0
  6
Continuous
 62
     7
370
    25
100
AcDbLine
 10
-15.2582598824
 20
14.139152776
 30
0.0
 11
-15.3582598678
 21
14.1391015064
 31
0.0
  0
LINE
  5
1F7
330
1F
100
AcDbEntity
  8
0
  6
Continuous
 62
     7
370
    25
100
AcDbLine
 10
-15.3583110322
 20
14.1389476979
 30
0.0
 11
-15.2583110468
 21
14.1389989674
 31
0.0
  0
LINE
  5
1F8
330
1F
100
AcDbEntity
  8
0
  6
Continuous
 62
     7
370
    25
100
AcDbLine
 10
-15.3583963061
 20
14.1386913503
 30
0.0
 11
-15.3583110322
 21
14.1389476979
 31
0.0
  0
LINE
  5
1F9
330
1F
100
AcDbEntity
  8
0
  6
Continuous
 62
     7
370
    25
100
AcDbLine
 10
-15.6584474267
 20
14.1383837332
 30
0.0
 11
-15.3583963061
 21
14.1386913503
 31
0.0
  0
LINE
  5
1FA
330
1F
100
AcDbEntity
  8
0
  6
Continuous
 62
     7
370
    25
100
AcDbLine
 10
-16.2584473391
 20
14.138076116
 30
0.0
 11
-15.6584474267
 21
14.1383837332
 31
0.0
  0
LINE
  5
1FB
330
1F
100
AcDbEntity
  8
0
  6
Continuous
 62
     7
370
    25
100
AcDbLine
 10
-16.2583961747
 20
14.1382299245
 30
0.0
 11
-16.2584473391
 21
14.138076116
 31
0.0
  0
LINE
  5
1FC
330
1F
100
AcDbEntity
  8
0
  6
Continuous
 62
     7
370
    25
100
AcDbLine
 10
-15.6583962623
 20
14.1385375417
 30
0.0
 11
-16.2583961747
 21
14.1382299245
 31
0.0
  0
LINE
  5
1FD
330
1F
100
AcDbEntity
  8
0
  6
Continuous
 62
     7
370
    25
100
AcDbLine
 10
-15.6583109884
 20
14.1387938893
 30
0.0
 11
-15.6583962623
 21
14.1385375417
 31
0.0
  0
LINE
  5
1FE
330
1F
100
AcDbEntity
  8
0
  6
Continuous
 62
     7
370
    25
100
AcDbLine
 10
-15.3586188157
 20
14.8391013224
 30
0.0
 11
-15.6586699363
 21
14.8387937053
 31
0.0
  0
LINE
  5
1FF
330
1F
100
AcDbEntity
  8
0
  6
Continuous
 62
     7
370
    25
100
AcDbLine
 10
-15.3582598678
 20
14.1391015064
 30
0.0
 11
-15.3586188157
 21
14.8391013224
 31
0.0
  0
LINE
  5
200
330
1F
100
AcDbEntity
  8
0
  6
Continuous
 62
     7
370
    25
100
AcDbLine
 10
-15.6583109884
 20
14.1387938893
 30
0.0
 11
-15.6586699363
 21
14.8387937053
 31
0.0
  0
LINE
  5
201
330
1F
100
AcDbEntity
  8
0
  6
Continuous
 62
     7
370
    25
100
AcDbLine
 10
-15.2586188303
 20
14.839152592
 30
0.0
 11
-15.3586188157
 21
14.8391013224
 31
0.0
  0
LINE
  5
202
330
1F
100
AcDbEntity
  8
0
  6
Continuous
 62
     7
370
    25
100
AcDbLine
 10
-10.6582605541
 20
14.1415111743
 30
0.0
 11
-10.658619502
 21
14.8415109903
 31
0.0
  0
LINE
  5
203
330
1F
100
AcDbEntity
  8
0
  6
Continuous
 62
     7
370
    25
100
AcDbLine
 10
-10.6582605541
 20
14.1415111743
 30
0.0
 11
-10.75795308
 21
14.1414600624
 31
0.0
  0
LINE
  5
204
330
1F
100
AcDbEntity
  8
0
  6
Continuous
 62
     7
370
    25
100
AcDbLine
 10
-10.658619502
 20
14.8415109903
 30
0.0
 11
-10.758312028
 21
14.8414598784
 31
0.0
  0
LINE
  5
205
330
1F
100
AcDbEntity
  8
0
  6
Continuous
 62
     7
370
    25
100
AcDbLine
 10
-10.3583117622
 20
14.1415111743
 30
0.0
 11
-10.6582605541
 21
14.1415111743
 31
0.0
  0
LINE
  5
206
330
1F
100
AcDbEntity
  8
0
  6
Continuous
 62
     7
370
    25
100
AcDbLine
 10
-10.3583970362
 20
14.1412548267
 30
0.0
 11
-10.3583117622
 21
14.1415111743
 31
0.0
  0
LINE
  5
207
330
1F
100
AcDbEntity
  8
0
  6
Continuous
 62
     7
370
    25
100
AcDbLine
 10
-9.7583971238
 20
14.1415624439
 30
0.0
 11
-10.3583970362
 21
14.1412548267
 31
0.0
  0
LINE
  5
208
330
1F
100
AcDbEntity
  8
0
  6
Continuous
 62
     7
370
    25
100
AcDbLine
 10
-9.7584482882
 20
14.1414086353
 30
0.0
 11
-9.7583971238
 21
14.1415624439
 31
0.0
  0
LINE
  5
209
330
1F
100
AcDbEntity
  8
0
  6
Continuous
 62
     7
370
    25
100
AcDbLine
 10
-10.3584482006
 20
14.1411010181
 30
0.0
 11
-9.7584482882
 21
14.1414086353
 31
0.0
  0
LINE
  5
20A
330
1F
100
AcDbEntity
  8
0
  6
Continuous
 62
     7
370
    25
100
AcDbLine
 10
-10.6583969924
 20
14.1411010181
 30
0.0
 11
-10.3584482006
 21
14.1411010181
 31
0.0
  0
LINE
  5
20B
330
1F
100
AcDbEntity
  8
0
  6
Continuous
 62
     7
370
    25
100
AcDbLine
 10
-10.6583117184
 20
14.1413573657
 30
0.0
 11
-10.6583969924
 21
14.1411010181
 31
0.0
  0
LINE
  5
20C
330
1F
100
AcDbEntity
  8
0
  6
Continuous
 62
     7
370
    25
100
AcDbLine
 10
-10.7579530012
 20
14.1413062801
 30
0.0
 11
-10.6583117184
 21
14.1413573657
 31
0.0
  0
LINE
  5
20D
330
1F
100
AcDbEntity
  8
0
  6
Continuous
 62
     7
370
    25
100
AcDbLine
 10
-10.3586707102
 20
14.8415109903
 30
0.0
 11
-10.658619502
 21
14.8415109903
 31
0.0
  0
LINE
  5
20E
330
1F
100
AcDbEntity
  8
0
  6
Continuous
 62
     7
370
    25
100
AcDbLine
 10
-10.3583117622
 20
14.1415111743
 30
0.0
 11
-10.3586707102
 21
14.8415109903
 31
0.0
  0
LINE
  5
20F
330
1F
100
AcDbEntity
  8
0
  6
Continuous
 62
     7
370
    25
100
AcDbLine
 10
-15.6572168619
 20
11.8385381463
 30
0.0
 11
-15.656857914
 21
11.1385383303
 31
0.0
  0
LINE
  5
210
330
1F
100
AcDbEntity
  8
0
  6
Continuous
 62
     7
370
    25
100
AcDbLine
 10
-15.657131588
 20
11.8387944939
 30
0.0
 11
-15.6572168619
 21
11.8385381463
 31
0.0
  0
LINE
  5
211
330
1F
100
AcDbEntity
  8
0
  6
Continuous
 62
     7
370
    25
100
AcDbLine
 10
-10.6568586441
 20
11.1411018067
 30
0.0
 11
-10.6568587755
 21
11.1413581105
 31
0.0
  0
LINE
  5
212
330
1F
100
AcDbEntity
  8
0
  6
Continuous
 62
     7
370
    25
100
AcDbLine
 10
-15.6583962623
 20
14.1385375417
 30
0.0
 11
-15.6587552103
 21
14.8385373577
 31
0.0
  0
LINE
  5
213
330
1F
100
AcDbEntity
  8
0
  6
Continuous
 62
     7
370
    25
100
AcDbLine
 10
-15.6586699363
 20
14.8387937053
 30
0.0
 11
-15.6587552103
 21
14.8385373577
 31
0.0
  0
LINE
  5
214
330
1F
100
AcDbEntity
  8
0
  6
Continuous
 62
     7
370
    25
100
AcDbLine
 10
-10.6583969924
 20
14.1411010181
 30
0.0
 11
-10.6583971238
 21
14.1413573219
 31
0.0
  0
LINE
  5
215
330
1F
100
AcDbEntity
  8
0
  6
Continuous
 62
     7
370
    25
100
AcDbLine
 10
-16.2572167743
 20
11.8382305291
 30
0.0
 11
-16.2568578264
 21
11.1382307131
 31
0.0
  0
LINE
  5
216
330
1F
100
AcDbEntity
  8
0
  6
Continuous
 62
     7
370
    25
100
AcDbLine
 10
-15.6572168619
 20
11.8385381463
 30
0.0
 11
-16.2572167743
 21
11.8382305291
 31
0.0
  0
LINE
  5
217
330
1F
100
AcDbEntity
  8
0
  6
Continuous
 62
     7
370
    25
100
AcDbLine
 10
-16.2572679387
 20
11.8380767206
 30
0.0
 11
-16.2569089908
 21
11.1380769046
 31
0.0
  0
LINE
  5
218
330
1F
100
AcDbEntity
  8
0
  6
Continuous
 62
     7
370
    25
100
AcDbLine
 10
-16.2572167743
 20
11.8382305291
 30
0.0
 11
-16.2572679387
 21
11.8380767206
 31
0.0
  0
LINE
  5
219
330
1F
100
AcDbEntity
  8
0
  6
Continuous
 62
     7
370
    25
100
AcDbLine
 10
-9.7572177234
 20
11.8415630484
 30
0.0
 11
-9.7568587755
 21
11.1415632324
 31
0.0
  0
LINE
  5
21A
330
1F
100
AcDbEntity
  8
0
  6
Continuous
 62
     7
370
    25
100
AcDbLine
 10
-9.7572177234
 20
11.8415630484
 30
0.0
 11
-10.3571322304
 21
11.841255475
 31
0.0
  0
LINE
  5
21B
330
1F
100
AcDbEntity
  8
0
  6
Continuous
 62
     7
370
    25
100
AcDbLine
 10
-16.2583961747
 20
14.1382299245
 30
0.0
 11
-16.2587551227
 21
14.8382297405
 31
0.0
  0
LINE
  5
21C
330
1F
100
AcDbEntity
  8
0
  6
Continuous
 62
     7
370
    25
100
AcDbLine
 10
-15.6587552103
 20
14.8385373577
 30
0.0
 11
-16.2587551227
 21
14.8382297405
 31
0.0
  0
LINE
  5
21D
330
1F
100
AcDbEntity
  8
0
  6
Continuous
 62
     7
370
    25
100
AcDbLine
 10
-16.2584473391
 20
14.138076116
 30
0.0
 11
-16.258806287
 21
14.838075932
 31
0.0
  0
LINE
  5
21E
330
1F
100
AcDbEntity
  8
0
  6
Continuous
 62
     7
370
    25
100
AcDbLine
 10
-16.2587551227
 20
14.8382297405
 30
0.0
 11
-16.258806287
 21
14.838075932
 31
0.0
  0
LINE
  5
21F
330
1F
100
AcDbEntity
  8
0
  6
Continuous
 62
     7
370
    25
100
AcDbLine
 10
-9.7583971238
 20
14.1415624439
 30
0.0
 11
-9.7587560718
 21
14.8415622599
 31
0.0
  0
LINE
  5
220
330
1F
100
AcDbEntity
  8
0
  6
Continuous
 62
     7
370
    25
100
AcDbLine
 10
-9.7587560718
 20
14.8415622599
 30
0.0
 11
-10.3586705788
 21
14.8412546865
 31
0.0
  0
LINE
  5
221
330
1F
100
AcDbEntity
  8
0
  6
Continuous
 62
     7
370
    25
100
AcDbLine
 10
-13.4502433374
 20
-1.7603303493
 30
0.0
 11
-13.4494843991
 21
-1.7580488557
 31
0.0
  0
LINE
  5
222
330
1F
100
AcDbEntity
  8
0
  6
Continuous
 62
     7
370
    25
100
AcDbLine
 10
-12.1942999108
 20
-1.7572836983
 30
0.0
 11
-13.4494843991
 21
-1.7580488557
 31
0.0
  0
LINE
  5
223
330
1F
100
AcDbEntity
  8
0
  6
Continuous
 62
     7
370
    25
100
AcDbLine
 10
-11.5715709419
 20
-1.7577788998
 30
0.0
 11
-12.1942999108
 21
-1.7572836983
 31
0.0
  0
LINE
  5
224
330
1F
100
AcDbEntity
  8
0
  6
Continuous
 62
     7
370
    25
100
AcDbLine
 10
-11.6972098778
 20
-1.7578923438
 30
0.0
 11
-11.5533461837
 21
-1.7577968053
 31
0.0
  0
LINE
  5
225
330
1F
100
AcDbEntity
  8
0
  6
Continuous
 62
     7
370
    25
100
AcDbLine
 10
-12.3339578916
 20
-1.7573833687
 30
0.0
 11
-11.7112289226
 21
-1.7578785703
 31
0.0
  0
LINE
  5
226
330
1F
100
AcDbEntity
  8
0
  6
Continuous
 62
     7
370
    25
100
AcDbLine
 10
-12.3339578916
 20
-1.7573833687
 30
0.0
 11
-13.299484421
 21
-1.7579719514
 31
0.0
  0
LINE
  5
227
330
1F
100
AcDbEntity
  8
0
  6
Continuous
 62
     7
370
    25
100
AcDbLine
 10
-13.299484421
 20
-1.7579719514
 30
0.0
 11
-13.3002433593
 21
-1.760253445
 31
0.0
  0
LINE
  5
228
330
1F
100
AcDbEntity
  8
0
  6
Continuous
 62
     7
370
    25
100
AcDbLine
 10
-13.6002944799
 20
-1.7605610621
 30
0.0
 11
-13.3002433593
 21
-1.760253445
 31
0.0
  0
LINE
  5
229
330
1F
100
AcDbEntity
  8
0
  6
Continuous
 62
     7
370
    25
100
AcDbLine
 10
-13.6002944799
 20
-1.7605610621
 30
0.0
 11
-16.8002940126
 21
-1.762201687
 31
0.0
  0
LINE
  5
22A
330
1F
100
AcDbEntity
  8
0
  6
Continuous
 62
     7
370
    25
100
AcDbLine
 10
-16.8002940126
 20
-1.762201687
 30
0.0
 11
-16.8002684304
 21
-1.7621247827
 31
0.0
  0
LINE
  5
22B
330
1F
100
AcDbEntity
  8
0
  6
Continuous
 62
     7
370
    25
100
AcDbLine
 10
-16.8002684304
 20
-1.7621247827
 30
0.0
 11
-13.6002688977
 21
-1.7604841578
 31
0.0
  0
LINE
  5
22C
330
1F
100
AcDbEntity
  8
0
  6
Continuous
 62
     7
370
    25
100
AcDbLine
 10
-13.6002688977
 20
-1.7604841578
 30
0.0
 11
-13.4502433374
 21
-1.7603303493
 31
0.0
  0
LINE
  5
22D
330
1F
100
AcDbEntity
  8
0
  6
Continuous
 62
     7
370
    25
100
AcDbLine
 10
-13.4512791388
 20
1.7419502243
 30
0.0
 11
-13.4494843991
 21
-1.7580488557
 31
0.0
  0
LINE
  5
22E
330
1F
100
AcDbEntity
  8
0
  6
Continuous
 62
     7
370
    25
100
AcDbLine
 10
-12.1960946506
 20
1.7427153817
 30
0.0
 11
-13.4512791388
 21
1.7419502243
 31
0.0
  0
LINE
  5
22F
330
1F
100
AcDbEntity
  8
0
  6
Continuous
 62
     7
370
    25
100
AcDbLine
 10
-12.1942999108
 20
-1.7572836983
 30
0.0
 11
-12.1960946506
 21
1.7427153817
 31
0.0
  0
LINE
  5
230
330
1F
100
AcDbEntity
  8
0
  6
Continuous
 62
     7
370
    25
100
AcDbLine
 10
-11.5733656816
 20
1.7422201802
 30
0.0
 11
-11.5727247031
 21
0.4922205088
 31
0.0
  0
LINE
  5
231
330
1F
100
AcDbEntity
  8
0
  6
Continuous
 62
     7
370
    25
100
AcDbLine
 10
-11.5727247031
 20
0.4922205088
 30
0.0
 11
-11.9085158427
 21
0.4924875339
 31
0.0
  0
LINE
  5
232
330
1F
100
AcDbEntity
  8
0
  6
Continuous
 62
     7
370
    25
100
AcDbLine
 10
-11.9080030599
 20
-0.5075122032
 30
0.0
 11
-11.5722119203
 21
-0.5077792283
 31
0.0
  0
LINE
  5
233
330
1F
100
AcDbEntity
  8
0
  6
Continuous
 62
     7
370
    25
100
AcDbLine
 10
-11.5722119203
 20
-0.5077792283
 30
0.0
 11
-11.5715709419
 21
-1.7577788998
 31
0.0
  0
LINE
  5
234
330
1F
100
AcDbEntity
  8
0
  6
Continuous
 62
     7
370
    25
100
AcDbLine
 10
-12.1960946506
 20
1.7427153817
 30
0.0
 11
-11.5733656816
 21
1.7422201802
 31
0.0
  0
LINE
  5
235
330
1F
100
AcDbEntity
  8
0
  6
Continuous
 62
     7
370
    25
100
AcDbLine
 10
-13.4502433374
 20
-1.7603303493
 30
0.0
 11
-13.4520380771
 21
1.7396687307
 31
0.0
  0
LINE
  5
236
330
1F
100
AcDbEntity
  8
0
  6
Continuous
 62
     7
370
    25
100
AcDbLine
 10
-13.4512791388
 20
1.7419502243
 30
0.0
 11
-13.4520380771
 21
1.7396687307
 31
0.0
  0
LINE
  5
237
330
1F
100
AcDbEntity
  8
0
  6
Continuous
 62
     7
370
    25
100
AcDbLine
 10
-11.6983636391
 20
0.4921070648
 30
0.0
 11
-11.5544999449
 21
0.4922026033
 31
0.0
  0
LINE
  5
238
330
1F
100
AcDbEntity
  8
0
  6
Continuous
 62
     7
370
    25
100
AcDbLine
 10
-11.9138119962
 20
0.4922810173
 30
0.0
 11
-11.7123826838
 21
0.4921208383
 31
0.0
  0
LINE
  5
239
330
1F
100
AcDbEntity
  8
0
  6
Continuous
 62
     7
370
    25
100
AcDbLine
 10
-11.5533461837
 20
-1.7577968053
 30
0.0
 11
-11.5267925528
 21
-1.6858367143
 31
0.0
  0
LINE
  5
23A
330
1F
100
AcDbEntity
  8
0
  6
Continuous
 62
     7
370
    25
100
AcDbLine
 10
-11.5544999449
 20
0.4922026033
 30
0.0
 11
-11.5279463141
 21
0.5641626943
 31
0.0
  0
LINE
  5
23B
330
1F
100
AcDbEntity
  8
0
  6
Continuous
 62
     7
370
    25
100
AcDbLine
 10
-13.6020636374
 20
1.7395149222
 30
0.0
 11
-13.6002688977
 21
-1.7604841578
 31
0.0
  0
LINE
  5
23C
330
1F
100
AcDbEntity
  8
0
  6
Continuous
 62
     7
370
    25
100
AcDbLine
 10
-13.6020636374
 20
1.7395149222
 30
0.0
 11
-13.4520380771
 21
1.7396687307
 31
0.0
  0
LINE
  5
23D
330
1F
100
AcDbEntity
  8
0
  6
Continuous
 62
     7
370
    25
100
AcDbLine
 10
-16.8020631702
 20
1.7378742973
 30
0.0
 11
-16.8002684304
 21
-1.7621247827
 31
0.0
  0
LINE
  5
23E
330
1F
100
AcDbEntity
  8
0
  6
Continuous
 62
     7
370
    25
100
AcDbLine
 10
-13.6020636374
 20
1.7395149222
 30
0.0
 11
-16.8020631702
 21
1.7378742973
 31
0.0
  0
LINE
  5
23F
330
1F
100
AcDbEntity
  8
0
  6
Continuous
 62
     7
370
    25
100
AcDbLine
 10
-16.8002940126
 20
-1.762201687
 30
0.0
 11
-16.8020887524
 21
1.737797393
 31
0.0
  0
LINE
  5
240
330
1F
100
AcDbEntity
  8
0
  6
Continuous
 62
     7
370
    25
100
AcDbLine
 10
-16.8020631702
 20
1.7378742973
 30
0.0
 11
-16.8020887524
 21
1.737797393
 31
0.0
  0
LINE
  5
241
330
1F
100
AcDbEntity
  8
0
  6
Continuous
 62
     7
370
    25
100
AcDbLine
 10
-0.4053518312
 20
-4.1666062866
 30
0.0
 11
-0.4053469516
 21
-4.1270868021
 31
0.0
  0
LINE
  5
242
330
1F
100
AcDbEntity
  8
0
  6
Continuous
 62
     7
370
    25
100
AcDbLine
 10
-1.9801516013
 20
-4.1674136791
 30
0.0
 11
-1.9801467216
 21
-4.1278941947
 31
0.0
  0
LINE
  5
243
330
1F
100
AcDbEntity
  8
0
  6
Continuous
 62
     7
370
    25
100
AcDbLine
 10
-1.9801467216
 20
-4.1278941947
 30
0.0
 11
-1.9814347151
 21
-1.8219673658
 31
0.0
  0
LINE
  5
244
330
1F
100
AcDbEntity
  8
0
  6
Continuous
 62
     7
370
    25
100
AcDbLine
 10
-1.9814347151
 20
-1.8219673658
 30
0.0
 11
-0.4066349451
 21
-1.8211599733
 31
0.0
  0
LINE
  5
245
330
1F
100
AcDbEntity
  8
0
  6
Continuous
 62
     7
370
    25
100
AcDbLine
 10
-0.4066349451
 20
-1.8211599733
 30
0.0
 11
-0.4053469516
 21
-4.1270868021
 31
0.0
  0
LINE
  5
246
330
1F
100
AcDbEntity
  8
0
  6
Continuous
 62
     7
370
    25
100
AcDbLine
 10
1.9822526998
 20
-4.1258626909
 30
0.0
 11
1.9822478201
 21
-4.1653821754
 31
0.0
  0
LINE
  5
247
330
1F
100
AcDbEntity
  8
0
  6
Continuous
 62
     7
370
    25
100
AcDbLine
 10
0.4074529297
 20
-4.1266700834
 30
0.0
 11
0.4074480501
 21
-4.1661895679
 31
0.0
  0
LINE
  5
248
330
1F
100
AcDbEntity
  8
0
  6
Continuous
 62
     7
370
    25
100
AcDbLine
 10
0.4061649362
 20
-1.8207432546
 30
0.0
 11
0.4074529297
 21
-4.1266700834
 31
0.0
  0
LINE
  5
249
330
1F
100
AcDbEntity
  8
0
  6
Continuous
 62
     7
370
    25
100
AcDbLine
 10
0.4061649362
 20
-1.8207432546
 30
0.0
 11
1.9809647063
 21
-1.8199358621
 31
0.0
  0
LINE
  5
24A
330
1F
100
AcDbEntity
  8
0
  6
Continuous
 62
     7
370
    25
100
AcDbLine
 10
1.9809647063
 20
-1.8199358621
 30
0.0
 11
1.9822526998
 21
-4.1258626909
 31
0.0
  0
LINE
  5
24B
330
1F
100
AcDbEntity
  8
0
  6
Continuous
 62
     7
370
    25
100
AcDbLine
 10
-0.4084988531
 20
1.8137271162
 30
0.0
 11
-0.4095760642
 21
4.1202875914
 31
0.0
  0
LINE
  5
24C
330
1F
100
AcDbEntity
  8
0
  6
Continuous
 62
     7
370
    25
100
AcDbLine
 10
-0.4084988531
 20
1.8137271162
 30
0.0
 11
-1.9832986231
 21
1.8129197237
 31
0.0
  0
LINE
  5
24D
330
1F
100
AcDbEntity
  8
0
  6
Continuous
 62
     7
370
    25
100
AcDbLine
 10
-1.9832986231
 20
1.8129197237
 30
0.0
 11
-1.9843758343
 21
4.1194801989
 31
0.0
  0
LINE
  5
24E
330
1F
100
AcDbEntity
  8
0
  6
Continuous
 62
     7
370
    25
100
AcDbLine
 10
1.9780235871
 20
4.1215117027
 30
0.0
 11
1.9791007983
 21
1.8149512274
 31
0.0
  0
LINE
  5
24F
330
1F
100
AcDbEntity
  8
0
  6
Continuous
 62
     7
370
    25
100
AcDbLine
 10
1.9791007983
 20
1.8149512274
 30
0.0
 11
0.4043010282
 21
1.8141438349
 31
0.0
  0
LINE
  5
250
330
1F
100
AcDbEntity
  8
0
  6
Continuous
 62
     7
370
    25
100
AcDbLine
 10
0.4043010282
 20
1.8141438349
 30
0.0
 11
0.4032238171
 21
4.1207043102
 31
0.0
  0
LINE
  5
251
330
1F
100
AcDbEntity
  8
0
  6
Continuous
 62
     7
370
    25
100
AcDbLine
 10
-1.9843758343
 20
4.1194801989
 30
0.0
 11
-1.9844211664
 21
4.1588487386
 31
0.0
  0
LINE
  5
252
330
1F
100
AcDbEntity
  8
0
  6
Continuous
 62
     7
370
    25
100
AcDbLine
 10
-0.4095760642
 20
4.1202875914
 30
0.0
 11
-0.4096213963
 21
4.1596561312
 31
0.0
  0
LINE
  5
253
330
1F
100
AcDbEntity
  8
0
  6
Continuous
 62
     7
370
    25
100
AcDbLine
 10
0.403178485
 20
4.1600728499
 30
0.0
 11
0.4032238171
 21
4.1207043102
 31
0.0
  0
LINE
  5
254
330
1F
100
AcDbEntity
  8
0
  6
Continuous
 62
     7
370
    25
100
AcDbLine
 10
1.977978255
 20
4.1608802424
 30
0.0
 11
1.9780235871
 21
4.1215117027
 31
0.0
  0
LINE
  5
255
330
1F
100
AcDbEntity
  8
0
  6
Continuous
 62
     7
370
    25
100
AcDbLine
 10
-1.9814395948
 20
-1.8614868503
 30
0.0
 11
-1.9814347151
 21
-1.8219673658
 31
0.0
  0
LINE
  5
256
330
1F
100
AcDbEntity
  8
0
  6
Continuous
 62
     7
370
    25
100
AcDbLine
 10
-1.9814395948
 20
-1.8614868503
 30
0.0
 11
-1.9801516013
 21
-4.1674136791
 31
0.0
  0
LINE
  5
257
330
1F
100
AcDbEntity
  8
0
  6
Continuous
 62
     7
370
    25
100
AcDbLine
 10
0.4061600566
 20
-1.8602627391
 30
0.0
 11
0.4061649362
 21
-1.8207432546
 31
0.0
  0
LINE
  5
258
330
1F
100
AcDbEntity
  8
0
  6
Continuous
 62
     7
370
    25
100
AcDbLine
 10
0.4061600566
 20
-1.8602627391
 30
0.0
 11
0.4074480501
 21
-4.1661895679
 31
0.0
  0
LINE
  5
259
330
1F
100
AcDbEntity
  8
0
  6
Continuous
 62
     7
370
    25
100
AcDbLine
 10
-1.9832986231
 20
1.8129197237
 30
0.0
 11
-1.9833439552
 21
1.8522882634
 31
0.0
  0
LINE
  5
25A
330
1F
100
AcDbEntity
  8
0
  6
Continuous
 62
     7
370
    25
100
AcDbLine
 10
-1.9844211664
 20
4.1588487386
 30
0.0
 11
-1.9833439552
 21
1.8522882634
 31
0.0
  0
LINE
  5
25B
330
1F
100
AcDbEntity
  8
0
  6
Continuous
 62
     7
370
    25
100
AcDbLine
 10
0.4043010282
 20
1.8141438349
 30
0.0
 11
0.4042556962
 21
1.8535123746
 31
0.0
  0
LINE
  5
25C
330
1F
100
AcDbEntity
  8
0
  6
Continuous
 62
     7
370
    25
100
AcDbLine
 10
0.4042556962
 20
1.8535123746
 30
0.0
 11
0.403178485
 21
4.1600728499
 31
0.0
  0
LINE
  5
25D
330
1F
100
AcDbEntity
  8
0
  6
Continuous
 62
     7
370
    25
100
AcDbLine
 10
-1.981455827
 20
-1.7825260161
 30
0.0
 11
-1.9814818185
 21
-1.7826041509
 31
0.0
  0
LINE
  5
25E
330
1F
100
AcDbEntity
  8
0
  6
Continuous
 62
     7
370
    25
100
AcDbLine
 10
0.4061438244
 20
-1.7813019049
 30
0.0
 11
0.4061178329
 21
-1.7813800396
 31
0.0
  0
LINE
  5
25F
330
1F
100
AcDbEntity
  8
0
  6
Continuous
 62
     7
370
    25
100
AcDbLine
 10
1.9809435944
 20
-1.7804945123
 30
0.0
 11
-1.981455827
 21
-1.7825260161
 31
0.0
  0
LINE
  5
260
330
1F
100
AcDbEntity
  8
0
  6
Continuous
 62
     7
370
    25
100
AcDbLine
 10
-1.9833052741
 20
1.7733949144
 30
0.0
 11
-1.9832792826
 21
1.7734730492
 31
0.0
  0
LINE
  5
261
330
1F
100
AcDbEntity
  8
0
  6
Continuous
 62
     7
370
    25
100
AcDbLine
 10
-1.9832792826
 20
1.7734730492
 30
0.0
 11
1.9791201389
 21
1.7755045529
 31
0.0
  0
LINE
  5
262
330
1F
100
AcDbEntity
  8
0
  6
Continuous
 62
     7
370
    25
100
AcDbLine
 10
-1.9832792826
 20
1.7734730492
 30
0.0
 11
-1.981455827
 21
-1.7825260161
 31
0.0
  0
LINE
  5
263
330
1F
100
AcDbEntity
  8
0
  6
Continuous
 62
     7
370
    25
100
AcDbLine
 10
-1.9833052741
 20
1.7733949144
 30
0.0
 11
-1.9814818185
 21
-1.7826041509
 31
0.0
  0
LINE
  5
264
330
1F
100
AcDbEntity
  8
0
  6
Continuous
 62
     7
370
    25
100
AcDbLine
 10
1.9791201389
 20
1.7755045529
 30
0.0
 11
1.9809435944
 21
-1.7804945123
 31
0.0
  0
LINE
  5
265
330
1F
100
AcDbEntity
  8
0
  6
Continuous
 62
     7
370
    25
100
AcDbLine
 10
0.4061178329
 20
-1.7813800396
 30
0.0
 11
-0.4066560169
 21
-1.781796745
 31
0.0
  0
ARC
  5
266
330
1F
100
AcDbEntity
  8
0
  6
Continuous
 62
     7
370
    25
100
AcDbCircle
 10
-2.9920273367
 20
-17.8801019977
 30
0.0
 40
0.4999999136021939
100
AcDbArc
 50
269.1061994366
 51
0.0293777175
  0
ARC
  5
267
330
1F
100
AcDbEntity
  8
0
  6
Continuous
 62
     7
370
    25
100
AcDbCircle
 10
3.0079717314
 20
-17.8770266014
 30
0.0
 40
0.5000000155959937
100
AcDbArc
 50
180.0293845535
 51
270.9524421906
  0
ARC
  5
268
330
1F
100
AcDbEntity
  8
0
  6
Continuous
 62
     7
370
    25
100
AcDbCircle
 10
0.007010689
 20
-16.003584887
 30
0.0
 40
2.499999963529601
100
AcDbArc
 50
0.0293804663
 51
180.0293700883
  0
ARC
  5
269
330
1F
100
AcDbEntity
  8
0
  6
Continuous
 62
     7
370
    25
100
AcDbCircle
 10
13.0054704424
 20
-12.9969205674
 30
0.0
 40
1.74999997447072
100
AcDbArc
 50
0.0293804111
 51
180.0293701435
  0
ARC
  5
26A
330
1F
100
AcDbEntity
  8
0
  6
Continuous
 62
     7
370
    25
100
AcDbCircle
 10
13.0054704422
 20
-12.9969202538
 30
0.0
 40
1.74999997447072
100
AcDbArc
 50
180.0293804111
 51
0.0293701435
  0
ARC
  5
26B
330
1F
100
AcDbEntity
  8
0
  6
Continuous
 62
     7
370
    25
100
AcDbCircle
 10
-0.0091419685
 20
15.4964069026
 30
0.0
 40
1.749999974470721
100
AcDbArc
 50
0.0293804111
 51
180.0293701435
  0
ARC
  5
26C
330
1F
100
AcDbEntity
  8
0
  6
Continuous
 62
     7
370
    25
100
AcDbCircle
 10
-0.0091419687
 20
15.4964072162
 30
0.0
 40
1.749999974470721
100
AcDbArc
 50
180.0293804111
 51
0.0293701435
  0
ARC
  5
26D
330
1F
100
AcDbEntity
  8
0
  6
Continuous
 62
     7
370
    25
100
AcDbCircle
 10
-14.997089383
 20
-8.0112773494
 30
0.0
 40
1.749999974470722
100
AcDbArc
 50
0.0293804111
 51
180.0293701435
  0
ARC
  5
26E
330
1F
100
AcDbEntity
  8
0
  6
Continuous
 62
     7
370
    25
100
AcDbCircle
 10
-14.9970893832
 20
-8.0112770358
 30
0.0
 40
1.749999974470724
100
AcDbArc
 50
180.0293804111
 51
0.0293701435
  0
ARC
  5
26F
330
1F
100
AcDbEntity
  8
0
  6
Continuous
 62
     7
370
    25
100
AcDbCircle
 10
-2.9922320067
 20
-17.8807172076
 30
0.0
 40
0.4999999377573153
100
AcDbArc
 50
269.106200911
 51
341.600304234
  0
ARC
  5
270
330
1F
100
AcDbEntity
  8
0
  6
Continuous
 62
     7
370
    25
100
AcDbCircle
 10
3.0077670739
 20
-17.8776418357
 30
0.0
 40
0.5000000156060267
100
AcDbArc
 50
180.0293845547
 51
270.9524421894
  0
ARC
  5
271
330
1F
100
AcDbEntity
  8
0
  6
Continuous
 62
     7
370
    25
100
AcDbCircle
 10
0.0068059589
 20
-16.0042002271
 30
0.0
 40
2.500000036135527
100
AcDbArc
 50
0.0293828907
 51
161.6002992318
  0
ARC
  5
272
330
1F
100
AcDbEntity
  8
0
  6
Continuous
 62
     7
370
    25
100
AcDbCircle
 10
-14.9972935741
 20
-8.0118925831
 30
0.0
 40
1.749999507978027
100
AcDbArc
 50
341.6003070115
 51
0.029380399
  0
ARC
  5
273
330
1F
100
AcDbEntity
  8
0
  6
Continuous
 62
     7
370
    25
100
AcDbCircle
 10
-14.9972940904
 20
-8.0118926534
 30
0.0
 40
1.750000024319812
100
AcDbArc
 50
0.0293826939
 51
161.6002994286
  0
ARC
  5
274
330
1F
100
AcDbEntity
  8
0
  6
Continuous
 62
     7
370
    25
100
AcDbCircle
 10
13.0052662514
 20
-12.997535801
 30
0.0
 40
1.749999507978423
100
AcDbArc
 50
341.6003070115
 51
0.029380399
  0
ARC
  5
275
330
1F
100
AcDbEntity
  8
0
  6
Continuous
 62
     7
370
    25
100
AcDbCircle
 10
13.0052657351
 20
-12.9975358714
 30
0.0
 40
1.750000024319812
100
AcDbArc
 50
0.0293826939
 51
161.6002994286
  0
ARC
  5
276
330
1F
100
AcDbEntity
  8
0
  6
Continuous
 62
     7
370
    25
100
AcDbCircle
 10
-0.0093461596
 20
15.495791669
 30
0.0
 40
1.749999507978535
100
AcDbArc
 50
341.6003070115
 51
0.029380399
  0
ARC
  5
277
330
1F
100
AcDbEntity
  8
0
  6
Continuous
 62
     7
370
    25
100
AcDbCircle
 10
-0.0093466759
 20
15.4957915986
 30
0.0
 40
1.750000024319811
100
AcDbArc
 50
0.0293826939
 51
161.6002994286
  0
ARC
  5
278
330
1F
100
AcDbEntity
  8
0
  6
Continuous
 62
     7
370
    25
100
AcDbCircle
 10
-13.0070053738
 20
12.9923062432
 30
0.0
 40
0.9499999861412521
100
AcDbArc
 50
180.0293806625
 51
0.0293698921
  0
ARC
  5
279
330
1F
100
AcDbEntity
  8
0
  6
Continuous
 62
     7
370
    25
100
AcDbCircle
 10
-13.0070394834
 20
12.9922037166
 30
0.0
 40
1.149999983223615
100
AcDbArc
 50
180.0293803496
 51
0.029370205
  0
ARC
  5
27A
330
1F
100
AcDbEntity
  8
0
  6
Continuous
 62
     7
370
    25
100
AcDbCircle
 10
-13.0070053737
 20
12.9923060646
 30
0.0
 40
0.9499999861412519
100
AcDbArc
 50
0.0293806625
 51
180.0293698921
  0
ARC
  5
27B
330
1F
100
AcDbEntity
  8
0
  6
Continuous
 62
     7
370
    25
100
AcDbCircle
 10
-13.0070394833
 20
12.992203513
 30
0.0
 40
1.149999983223615
100
AcDbArc
 50
0.0293803496
 51
180.029370205
  0
ARC
  5
27C
330
1F
100
AcDbEntity
  8
0
  6
Continuous
 62
     7
370
    25
100
AcDbCircle
 10
-13.0073634915
 20
12.9912296444
 30
0.0
 40
1.150000016231367
100
AcDbArc
 50
180.0293827706
 51
341.6002993519
  0
ARC
  5
27D
330
1F
100
AcDbEntity
  8
0
  6
Continuous
 62
     7
370
    25
100
AcDbCircle
 10
-14.606491674
 20
11.3905634389
 30
0.0
 40
0.2999999956235522
100
AcDbArc
 50
180.0293806625
 51
0.0293698921
  0
ARC
  5
27E
330
1F
100
AcDbEntity
  8
0
  6
Continuous
 62
     7
370
    25
100
AcDbCircle
 10
-14.6065257836
 20
11.3904609113
 30
0.0
 40
0.4999999927059198
100
AcDbArc
 50
180.029379828
 51
0.029370728
  0
ARC
  5
27F
330
1F
100
AcDbEntity
  8
0
  6
Continuous
 62
     7
370
    25
100
AcDbCircle
 10
-14.606491674
 20
11.3905633825
 30
0.0
 40
0.2999999956235539
100
AcDbArc
 50
0.0293806625
 51
180.0293698921
  0
ARC
  5
280
330
1F
100
AcDbEntity
  8
0
  6
Continuous
 62
     7
370
    25
100
AcDbCircle
 10
-14.6065257835
 20
11.3904608319
 30
0.0
 40
0.4999999927059198
100
AcDbArc
 50
0.029379828
 51
180.029370728
  0
ARC
  5
281
330
1F
100
AcDbEntity
  8
0
  6
Continuous
 62
     7
370
    25
100
AcDbCircle
 10
-11.4064921412
 20
11.3922040637
 30
0.0
 40
0.2999999956235531
100
AcDbArc
 50
180.0293806625
 51
0.0293698921
  0
ARC
  5
282
330
1F
100
AcDbEntity
  8
0
  6
Continuous
 62
     7
370
    25
100
AcDbCircle
 10
-11.4065262508
 20
11.3921015362
 30
0.0
 40
0.4999999927059198
100
AcDbArc
 50
180.029379828
 51
0.029370728
  0
ARC
  5
283
330
1F
100
AcDbEntity
  8
0
  6
Continuous
 62
     7
370
    25
100
AcDbCircle
 10
-11.4064921412
 20
11.3922040074
 30
0.0
 40
0.2999999956235522
100
AcDbArc
 50
0.0293806625
 51
180.0293698921
  0
ARC
  5
284
330
1F
100
AcDbEntity
  8
0
  6
Continuous
 62
     7
370
    25
100
AcDbCircle
 10
-11.4065262508
 20
11.3921014568
 30
0.0
 40
0.4999999927059198
100
AcDbArc
 50
0.029379828
 51
180.029370728
  0
ARC
  5
285
330
1F
100
AcDbEntity
  8
0
  6
Continuous
 62
     7
370
    25
100
AcDbCircle
 10
-14.6081325789
 20
14.5905625977
 30
0.0
 40
0.2999999956235531
100
AcDbArc
 50
180.0293806625
 51
0.0293698921
  0
ARC
  5
286
330
1F
100
AcDbEntity
  8
0
  6
Continuous
 62
     7
370
    25
100
AcDbCircle
 10
-14.6081666885
 20
14.5904600702
 30
0.0
 40
0.4999999927059216
100
AcDbArc
 50
180.029379828
 51
0.029370728
  0
ARC
  5
287
330
1F
100
AcDbEntity
  8
0
  6
Continuous
 62
     7
370
    25
100
AcDbCircle
 10
-14.6081325789
 20
14.5905625413
 30
0.0
 40
0.2999999956235522
100
AcDbArc
 50
0.0293806625
 51
180.0293698921
  0
ARC
  5
288
330
1F
100
AcDbEntity
  8
0
  6
Continuous
 62
     7
370
    25
100
AcDbCircle
 10
-14.6081666884
 20
14.5904599908
 30
0.0
 40
0.4999999927059213
100
AcDbArc
 50
0.029379828
 51
180.029370728
  0
ARC
  5
289
330
1F
100
AcDbEntity
  8
0
  6
Continuous
 62
     7
370
    25
100
AcDbCircle
 10
-11.4081330461
 20
14.5922032226
 30
0.0
 40
0.2999999956235522
100
AcDbArc
 50
180.0293806625
 51
0.0293698921
  0
ARC
  5
28A
330
1F
100
AcDbEntity
  8
0
  6
Continuous
 62
     7
370
    25
100
AcDbCircle
 10
-11.4081671557
 20
14.5921006951
 30
0.0
 40
0.4999999927059198
100
AcDbArc
 50
180.029379828
 51
0.029370728
  0
ARC
  5
28B
330
1F
100
AcDbEntity
  8
0
  6
Continuous
 62
     7
370
    25
100
AcDbCircle
 10
-11.4081330461
 20
14.5922031662
 30
0.0
 40
0.2999999956235522
100
AcDbArc
 50
0.0293806625
 51
180.0293698921
  0
ARC
  5
28C
330
1F
100
AcDbEntity
  8
0
  6
Continuous
 62
     7
370
    25
100
AcDbCircle
 10
-11.4081671557
 20
14.5921006157
 30
0.0
 40
0.4999999927059198
100
AcDbArc
 50
0.029379828
 51
180.029370728
  0
ARC
  5
28D
330
1F
100
AcDbEntity
  8
0
  6
Continuous
 62
     7
370
    25
100
AcDbCircle
 10
-14.6065428245
 20
11.3904096648
 30
0.0
 40
0.5000000066125291
100
AcDbArc
 50
180.0293824566
 51
341.6002996659
  0
ARC
  5
28E
330
1F
100
AcDbEntity
  8
0
  6
Continuous
 62
     7
370
    25
100
AcDbCircle
 10
-11.4065432917
 20
11.3920502897
 30
0.0
 40
0.5000000066125291
100
AcDbArc
 50
180.0293824566
 51
341.6002996659
  0
ARC
  5
28F
330
1F
100
AcDbEntity
  8
0
  6
Continuous
 62
     7
370
    25
100
AcDbCircle
 10
-14.6081837294
 20
14.5904088236
 30
0.0
 40
0.5000000066125293
100
AcDbArc
 50
180.0293824566
 51
341.6002996659
  0
ARC
  5
290
330
1F
100
AcDbEntity
  8
0
  6
Continuous
 62
     7
370
    25
100
AcDbCircle
 10
-11.4081841966
 20
14.5920494485
 30
0.0
 40
0.5000000066125315
100
AcDbArc
 50
180.0293824566
 51
341.6002996659
  0
ARC
  5
291
330
1F
100
AcDbEntity
  8
0
  6
Continuous
 62
     7
370
    25
100
AcDbCircle
 10
-1.1605806546
 20
-5.9296693229
 30
0.0
 40
1.858685835321014
100
AcDbArc
 50
75.9403103433
 51
90.9912081332
  0
ARC
  5
292
330
1F
100
AcDbEntity
  8
0
  6
Continuous
 62
     7
370
    25
100
AcDbCircle
 10
-1.1845887273
 20
-4.1185138528
 30
0.0
 40
0.4756132877429338
100
AcDbArc
 50
269.0493208565
 51
359.0181482308
  0
ARC
  5
293
330
1F
100
AcDbEntity
  8
0
  6
Continuous
 62
     7
370
    25
100
AcDbCircle
 10
-1.2008515196
 20
-4.1184709729
 30
0.0
 40
0.475664372597486
100
AcDbArc
 50
181.0466640727
 51
271.0084405556
  0
ARC
  5
294
330
1F
100
AcDbEntity
  8
0
  6
Continuous
 62
     7
370
    25
100
AcDbCircle
 10
-1.2229529887
 20
-5.9305237318
 30
0.0
 40
1.859507674246647
100
AcDbArc
 50
89.0688421859
 51
104.1152357165
  0
ARC
  5
295
330
1F
100
AcDbEntity
  8
0
  6
Continuous
 62
     7
370
    25
100
AcDbCircle
 10
1.2270189967
 20
-5.9284452117
 30
0.0
 40
1.858685835321057
100
AcDbArc
 50
75.9403103433
 51
90.9912081332
  0
ARC
  5
296
330
1F
100
AcDbEntity
  8
0
  6
Continuous
 62
     7
370
    25
100
AcDbCircle
 10
1.2030109241
 20
-4.1172897415
 30
0.0
 40
0.4756132877429354
100
AcDbArc
 50
269.0493208565
 51
359.0181482308
  0
ARC
  5
297
330
1F
100
AcDbEntity
  8
0
  6
Continuous
 62
     7
370
    25
100
AcDbCircle
 10
1.1867481318
 20
-4.1172468616
 30
0.0
 40
0.4756643725974875
100
AcDbArc
 50
181.0466640727
 51
271.0084405556
  0
ARC
  5
298
330
1F
100
AcDbEntity
  8
0
  6
Continuous
 62
     7
370
    25
100
AcDbCircle
 10
1.1646466626
 20
-5.9292996205
 30
0.0
 40
1.859507674246772
100
AcDbArc
 50
89.0688421859
 51
104.1152357165
  0
ARC
  5
299
330
1F
100
AcDbEntity
  8
0
  6
Continuous
 62
     7
370
    25
100
AcDbCircle
 10
-1.2290516202
 20
5.9299001719
 30
0.0
 40
1.8662720541398
100
AcDbArc
 50
255.9961596792
 51
270.9869526806
  0
ARC
  5
29A
330
1F
100
AcDbEntity
  8
0
  6
Continuous
 62
     7
370
    25
100
AcDbCircle
 10
-1.205009542
 20
4.110960088
 30
0.0
 40
0.4757250763018039
100
AcDbArc
 50
89.0578999216
 51
179.020236242
  0
ARC
  5
29B
330
1F
100
AcDbEntity
  8
0
  6
Continuous
 62
     7
370
    25
100
AcDbCircle
 10
-1.1888707751
 20
4.1110193761
 30
0.0
 40
0.4756741938033832
100
AcDbArc
 50
1.0324766202
 51
91.0018350425
  0
ARC
  5
29C
330
1F
100
AcDbEntity
  8
0
  6
Continuous
 62
     7
370
    25
100
AcDbCircle
 10
-1.1666441634
 20
5.9291063793
 30
0.0
 40
1.865446855930453
100
AcDbArc
 50
269.0705021595
 51
284.0657847567
  0
ARC
  5
29D
330
1F
100
AcDbEntity
  8
0
  6
Continuous
 62
     7
370
    25
100
AcDbCircle
 10
1.1585480311
 20
5.9311242831
 30
0.0
 40
1.866272054139891
100
AcDbArc
 50
255.9961596792
 51
270.9869526806
  0
ARC
  5
29E
330
1F
100
AcDbEntity
  8
0
  6
Continuous
 62
     7
370
    25
100
AcDbCircle
 10
1.1825901094
 20
4.1121841992
 30
0.0
 40
0.4757250763017996
100
AcDbArc
 50
89.0578999216
 51
179.020236242
  0
ARC
  5
29F
330
1F
100
AcDbEntity
  8
0
  6
Continuous
 62
     7
370
    25
100
AcDbCircle
 10
1.1987288763
 20
4.1122434873
 30
0.0
 40
0.4756741938033806
100
AcDbArc
 50
1.0324766202
 51
91.0018350425
  0
ARC
  5
2A0
330
1F
100
AcDbEntity
  8
0
  6
Continuous
 62
     7
370
    25
100
AcDbCircle
 10
1.220955488
 20
5.9303304906
 30
0.0
 40
1.865446855930432
100
AcDbArc
 50
269.0705021595
 51
284.0657847567
  0
ARC
  5
2A1
330
1F
100
AcDbEntity
  8
0
  6
Continuous
 62
     7
370
    25
100
AcDbCircle
 10
-1.2008930726
 20
-4.1353097701
 30
0.0
 40
0.475613287743034
100
AcDbArc
 50
89.0493208565
 51
179.0181482308
  0
ARC
  5
2A2
330
1F
100
AcDbEntity
  8
0
  6
Continuous
 62
     7
370
    25
100
AcDbCircle
 10
-1.1846302802
 20
-4.13535265
 30
0.0
 40
0.4756643725974911
100
AcDbArc
 50
1.0466640727
 51
91.0084405556
  0
ARC
  5
2A3
330
1F
100
AcDbEntity
  8
0
  6
Continuous
 62
     7
370
    25
100
AcDbCircle
 10
1.1867065788
 20
-4.1340856588
 30
0.0
 40
0.4756132877430314
100
AcDbArc
 50
89.0493208565
 51
179.0181482308
  0
ARC
  5
2A4
330
1F
100
AcDbEntity
  8
0
  6
Continuous
 62
     7
370
    25
100
AcDbCircle
 10
1.2029693712
 20
-4.1341285387
 30
0.0
 40
0.4756643725974879
100
AcDbArc
 50
1.0466640727
 51
91.0084405556
  0
ARC
  5
2A5
330
1F
100
AcDbEntity
  8
0
  6
Continuous
 62
     7
370
    25
100
AcDbCircle
 10
-1.1889293345
 20
4.1277251681
 30
0.0
 40
0.4757250763018955
100
AcDbArc
 50
269.0578999216
 51
359.020236242
  0
ARC
  5
2A6
330
1F
100
AcDbEntity
  8
0
  6
Continuous
 62
     7
370
    25
100
AcDbCircle
 10
-1.2050681014
 20
4.12766588
 30
0.0
 40
0.4756741938033811
100
AcDbArc
 50
181.0324766202
 51
271.0018350425
  0
ARC
  5
2A7
330
1F
100
AcDbEntity
  8
0
  6
Continuous
 62
     7
370
    25
100
AcDbCircle
 10
1.1986703168
 20
4.1289492794
 30
0.0
 40
0.4757250763018969
100
AcDbArc
 50
269.0578999216
 51
359.020236242
  0
ARC
  5
2A8
330
1F
100
AcDbEntity
  8
0
  6
Continuous
 62
     7
370
    25
100
AcDbCircle
 10
1.1825315499
 20
4.1288899913
 30
0.0
 40
0.475674193803382
100
AcDbArc
 50
181.0324766202
 51
271.0018350425
  0
ARC
  5
2A9
330
1F
100
AcDbEntity
  8
0
  6
Continuous
 62
     7
370
    25
100
AcDbCircle
 10
-1.1927573628
 20
-4.1069594369
 30
0.0
 40
0.7876676116928027
100
AcDbArc
 50
181.5229958837
 51
358.5357546709
  0
ARC
  5
2AA
330
1F
100
AcDbEntity
  8
0
  6
Continuous
 62
     7
370
    25
100
AcDbCircle
 10
-1.1927622424
 20
-4.1464789213
 30
0.0
 40
0.7876676116928025
100
AcDbArc
 50
181.5229958837
 51
358.5357546709
  0
ARC
  5
2AB
330
1F
100
AcDbEntity
  8
0
  6
Continuous
 62
     7
370
    25
100
AcDbCircle
 10
-1.1774962944
 20
-4.1360816538
 30
0.0
 40
0.5444102473209499
100
AcDbArc
 50
268.4272741342
 51
91.6367318726
  0
ARC
  5
2AC
330
1F
100
AcDbEntity
  8
0
  6
Continuous
 62
     7
370
    25
100
AcDbCircle
 10
-1.207987772
 20
-4.136098685
 30
0.0
 40
0.544410247321034
100
AcDbArc
 50
88.4272741339
 51
271.6367318729
  0
ARC
  5
2AD
330
1F
100
AcDbEntity
  8
0
  6
Continuous
 62
     7
370
    25
100
AcDbCircle
 10
1.1948422886
 20
-4.1057353256
 30
0.0
 40
0.7876676116928022
100
AcDbArc
 50
181.5229958837
 51
358.5357546709
  0
ARC
  5
2AE
330
1F
100
AcDbEntity
  8
0
  6
Continuous
 62
     7
370
    25
100
AcDbCircle
 10
1.1948374089
 20
-4.1452548101
 30
0.0
 40
0.7876676116928027
100
AcDbArc
 50
181.5229958837
 51
358.5357546709
  0
ARC
  5
2AF
330
1F
100
AcDbEntity
  8
0
  6
Continuous
 62
     7
370
    25
100
AcDbCircle
 10
1.1796118793
 20
-4.1348745738
 30
0.0
 40
0.5444102473210357
100
AcDbArc
 50
88.4272741339
 51
271.6367318729
  0
ARC
  5
2B0
330
1F
100
AcDbEntity
  8
0
  6
Continuous
 62
     7
370
    25
100
AcDbCircle
 10
1.210103357
 20
-4.1348575425
 30
0.0
 40
0.5444102473209517
100
AcDbArc
 50
268.4272741342
 51
91.6367318726
  0
ARC
  5
2B1
330
1F
100
AcDbEntity
  8
0
  6
Continuous
 62
     7
370
    25
100
AcDbCircle
 10
-1.1969655062
 20
4.0995149406
 30
0.0
 40
0.7876634029388561
100
AcDbArc
 50
1.5112079901
 51
178.5475425645
  0
ARC
  5
2B2
330
1F
100
AcDbEntity
  8
0
  6
Continuous
 62
     7
370
    25
100
AcDbCircle
 10
-1.1818504472
 20
4.1284929951
 30
0.0
 40
0.5445564617968697
100
AcDbArc
 50
268.4346933383
 51
91.6188232718
  0
ARC
  5
2B3
330
1F
100
AcDbEntity
  8
0
  6
Continuous
 62
     7
370
    25
100
AcDbCircle
 10
-1.212109486
 20
4.1284788635
 30
0.0
 40
0.5445564617967867
100
AcDbArc
 50
88.4346933386
 51
271.6188232715
  0
ARC
  5
2B4
330
1F
100
AcDbEntity
  8
0
  6
Continuous
 62
     7
370
    25
100
AcDbCircle
 10
1.1906341452
 20
4.1007390519
 30
0.0
 40
0.7876634029388561
100
AcDbArc
 50
1.5112079901
 51
178.5475425645
  0
ARC
  5
2B5
330
1F
100
AcDbEntity
  8
0
  6
Continuous
 62
     7
370
    25
100
AcDbCircle
 10
1.1754901653
 20
4.1297029747
 30
0.0
 40
0.5445564617967859
100
AcDbArc
 50
88.4346933386
 51
271.6188232715
  0
ARC
  5
2B6
330
1F
100
AcDbEntity
  8
0
  6
Continuous
 62
     7
370
    25
100
AcDbCircle
 10
1.2057492042
 20
4.1297171063
 30
0.0
 40
0.5445564617968688
100
AcDbArc
 50
268.4346933383
 51
91.6188232718
  0
ARC
  5
2B7
330
1F
100
AcDbEntity
  8
0
  6
Continuous
 62
     7
370
    25
100
AcDbCircle
 10
-1.1970108383
 20
4.1388834804
 30
0.0
 40
0.7876634029388561
100
AcDbArc
 50
1.5112079901
 51
178.5475425645
  0
ARC
  5
2B8
330
1F
100
AcDbEntity
  8
0
  6
Continuous
 62
     7
370
    25
100
AcDbCircle
 10
1.1905888131
 20
4.1401075916
 30
0.0
 40
0.7876634029388565
100
AcDbArc
 50
1.5112079901
 51
178.5475425645
  0
ENDSEC
  0
SECTION
  2
OBJECTS
  0
DICTIONARY
  5
C
330
0
100
AcDbDictionary
281
     1
  3
ACAD_GROUP
350
D
  3
ACAD_LAYOUT
350
1A
  3
ACAD_MLINESTYLE
350
17
  3
ACAD_PLOTSETTINGS
350
19
  3
ACAD_PLOTSTYLENAME
350
E
  3
ACAD_SCALELIST
350
47
  3
DWGPROPS
350
2B9
  0
DICTIONARY
  5
D
102
{ACAD_REACTORS
330
C
102
}
330
C
100
AcDbDictionary
281
     1
  0
DICTIONARY
  5
1A
102
{ACAD_REACTORS
330
C
102
}
330
C
100
AcDbDictionary
281
     1
  3
Layout1
350
1E
  3
Layout2
350
26
  3
Model
350
22
  0
DICTIONARY
  5
17
102
{ACAD_REACTORS
330
C
102
}
330
C
100
AcDbDictionary
281
     1
  3
Standard
350
18
  0
DICTIONARY
  5
19
102
{ACAD_REACTORS
330
C
102
}
330
C
100
AcDbDictionary
281
     1
  0
ACDBDICTIONARYWDFLT
  5
E
102
{ACAD_REACTORS
330
C
102
}
330
C
100
AcDbDictionary
281
     1
  3
Normal
350
F
100
AcDbDictionaryWithDefault
340
F
  0
DICTIONARY
  5
47
102
{ACAD_REACTORS
330
C
102
}
330
C
100
AcDbDictionary
281
     1
  3
A0
350
48
  3
A1
350
49
  3
A2
350
4A
  3
A3
350
4B
  3
A4
350
4C
  3
A5
350
4D
  3
A6
350
4E
  3
A7
350
4F
  3
A8
350
50
  3
A9
350
51
  3
B0
350
52
  3
B1
350
53
  3
B2
350
54
  3
B3
350
55
  3
B4
350
56
  3
B5
350
57
  3
B6
350
58
  0
XRECORD
  5
2B9
102
{ACAD_REACTORS
330
C
102
}
330
C
100
AcDbXrecord
280
     1
  1
DWGPROPS COOKIE
  2

  3

  4

  6

  7

  8
avi
  9

300
=
301
=
302
=
303
=
304
=
305
=
306
=
307
=
308
=
309
=
 40
0.0
 41
2460810.613747523
 42
2460810.613809352
  1

 90
        0
  0
LAYOUT
  5
1E
102
{ACAD_REACTORS
330
1A
102
}
330
1A
100
AcDbPlotSettings
  1

  2
none_device
  4

  6

 40
0.0
 41
0.0
 42
0.0
 43
0.0
 44
0.0
 45
0.0
 46
0.0
 47
0.0
 48
0.0
 49
0.0
140
0.0
141
0.0
142
1.0
143
1.0
 70
   688
 72
     1
 73
     0
 74
     5
  7

 75
    16
147
1.0
148
0.0
149
0.0
100
AcDbLayout
  1
Layout1
 70
     1
 71
     1
 10
0.0
 20
0.0
 11
420.0
 21
297.0
 12
0.0
 22
0.0
 32
0.0
 14
1.0000000000E+20
 24
1.0000000000E+20
 34
1.0000000000E+20
 15
-1.0000000000E+20
 25
-1.0000000000E+20
 35
-1.0000000000E+20
146
0.0
 13
0.0
 23
0.0
 33
0.0
 16
1.0
 26
0.0
 36
0.0
 17
0.0
 27
1.0
 37
0.0
 76
     0
330
1B
  0
LAYOUT
  5
26
102
{ACAD_REACTORS
330
1A
102
}
330
1A
100
AcDbPlotSettings
  1

  2
none_device
  4

  6

 40
0.0
 41
0.0
 42
0.0
 43
0.0
 44
0.0
 45
0.0
 46
0.0
 47
0.0
 48
0.0
 49
0.0
140
0.0
141
0.0
142
1.0
143
1.0
 70
   688
 72
     1
 73
     0
 74
     5
  7

 75
    16
147
1.0
148
0.0
149
0.0
100
AcDbLayout
  1
Layout2
 70
     1
 71
     2
 10
0.0
 20
0.0
 11
0.0
 21
0.0
 12
0.0
 22
0.0
 32
0.0
 14
0.0
 24
0.0
 34
0.0
 15
0.0
 25
0.0
 35
0.0
146
0.0
 13
0.0
 23
0.0
 33
0.0
 16
1.0
 26
0.0
 36
0.0
 17
0.0
 27
1.0
 37
0.0
 76
     0
330
23
  0
LAYOUT
  5
22
102
{ACAD_REACTORS
330
1A
102
}
330
1A
100
AcDbPlotSettings
  1

  2
none_device
  4
ANSI_A_(11.00_x_8.50_Inches)
  6

 40
6.35
 41
19.05
 42
6.35000508
 43
19.05000254
 44
279.4
 45
215.9
 46
133.3575310239
 47
88.8618333856
 48
0.0
 49
0.0
140
0.0
141
0.0
142
0.2288266227
143
1.0
 70
  1696
 72
     0
 73
     0
 74
     0
  7

 75
     0
147
0.0179189148
148
-1300.4909072572
149
0.0
100
AcDbLayout
  1
Model
 70
     1
 71
     0
 10
0.0
 20
0.0
 11
420.0
 21
297.0
 12
0.0
 22
0.0
 32
0.0
 14
-18.3988395019
 24
-18.3807171453
 34
0.0
 15
18.3962471724
 25
18.3938499932
 35
0.0
146
0.0
 13
0.0
 23
0.0
 33
0.0
 16
1.0
 26
0.0
 36
0.0
 17
0.0
 27
1.0
 37
0.0
 76
     0
330
1F
331
29
  0
MLINESTYLE
  5
18
102
{ACAD_REACTORS
330
17
102
}
330
17
100
AcDbMlineStyle
  2
Standard
 70
     0
  3

 62
   256
 51
90.0
 52
90.0
 71
     2
 49
0.5
 62
   256
  6
BYLAYER
 49
-0.5
 62
   256
  6
BYLAYER
  0
ACDBPLACEHOLDER
  5
F
102
{ACAD_REACTORS
330
E
102
}
330
E
  0
SCALE
  5
48
102
{ACAD_REACTORS
330
47
102
}
330
47
100
AcDbScale
 70
     0
300
1:1
140
1.0
141
1.0
290
     1
  0
SCALE
  5
49
102
{ACAD_REACTORS
330
47
102
}
330
47
100
AcDbScale
 70
     0
300
1:2
140
1.0
141
2.0
290
     0
  0
SCALE
  5
4A
102
{ACAD_REACTORS
330
47
102
}
330
47
100
AcDbScale
 70
     0
300
1:4
140
1.0
141
4.0
290
     0
  0
SCALE
  5
4B
102
{ACAD_REACTORS
330
47
102
}
330
47
100
AcDbScale
 70
     0
300
1:5
140
1.0
141
5.0
290
     0
  0
SCALE
  5
4C
102
{ACAD_REACTORS
330
47
102
}
330
47
100
AcDbScale
 70
     0
300
1:8
140
1.0
141
8.0
290
     0
  0
SCALE
  5
4D
102
{ACAD_REACTORS
330
47
102
}
330
47
100
AcDbScale
 70
     0
300
1:10
140
1.0
141
10.0
290
     0
  0
SCALE
  5
4E
102
{ACAD_REACTORS
330
47
102
}
330
47
100
AcDbScale
 70
     0
300
1:16
140
1.0
141
16.0
290
     0
  0
SCALE
  5
4F
102
{ACAD_REACTORS
330
47
102
}
330
47
100
AcDbScale
 70
     0
300
1:20
140
1.0
141
20.0
290
     0
  0
SCALE
  5
50
102
{ACAD_REACTORS
330
47
102
}
330
47
100
AcDbScale
 70
     0
300
1:30
140
1.0
141
30.0
290
     0
  0
SCALE
  5
51
102
{ACAD_REACTORS
330
47
102
}
330
47
100
AcDbScale
 70
     0
300
1:40
140
1.0
141
40.0
290
     0
  0
SCALE
  5
52
102
{ACAD_REACTORS
330
47
102
}
330
47
100
AcDbScale
 70
     0
300
1:50
140
1.0
141
50.0
290
     0
  0
SCALE
  5
53
102
{ACAD_REACTORS
330
47
102
}
330
47
100
AcDbScale
 70
     0
300
1:100
140
1.0
141
100.0
290
     0
  0
SCALE
  5
54
102
{ACAD_REACTORS
330
47
102
}
330
47
100
AcDbScale
 70
     0
300
2:1
140
2.0
141
1.0
290
     0
  0
SCALE
  5
55
102
{ACAD_REACTORS
330
47
102
}
330
47
100
AcDbScale
 70
     0
300
4:1
140
4.0
141
1.0
290
     0
  0
SCALE
  5
56
102
{ACAD_REACTORS
330
47
102
}
330
47
100
AcDbScale
 70
     0
300
8:1
140
8.0
141
1.0
290
     0
  0
SCALE
  5
57
102
{ACAD_REACTORS
330
47
102
}
330
47
100
AcDbScale
 70
     0
300
10:1
140
10.0
141
1.0
290
     0
  0
SCALE
  5
58
102
{ACAD_REACTORS
330
47
102
}
330
47
100
AcDbScale
 70
     0
300
100:1
140
100.0
141
1.0
290
     0
  0
ENDSEC
  0
EOF
