  0
SECTION
  2
HEADER
  9
$ACADVER
  1
AC1015
  9
$ACADMAINTVER
 70
     6
  9
$DWGCODEPAGE
  3
ANSI_1252
  9
$INSBASE
 10
0.0
 20
0.0
 30
0.0
  9
$EXTMIN
 10
0.0
 20
0.0
 30
0.0
  9
$EXTMAX
 10
297.0
 20
210.0
 30
0.0
  9
$LIMMIN
 10
0.0
 20
0.0
  9
$LIMMAX
 10
297.0
 20
210.0
  9
$ORTHOMODE
 70
     0
  9
$REGENMODE
 70
     1
  9
$FILLMODE
 70
     1
  9
$QTEXTMODE
 70
     0
  9
$MIRRTEXT
 70
     1
  9
$LTSCALE
 40
1.0
  9
$ATTMODE
 70
     1
  9
$TEXTSIZE
 40
3.5
  9
$TRACEWID
 40
1.0
  9
$TEXTSTYLE
  7
Standard
  9
$CLAYER
  8
0
  9
$CELTYPE
  6
ByLayer
  9
$CECOLOR
 62
   256
  9
$CELTSCALE
 40
1.0
  9
$DISPSILH
 70
     0
  9
$DIMSCALE
 40
1.0
  9
$DIMASZ
 40
3.556
  9
$DIMEXO
 40
1.0
  9
$DIMDLI
 40
3.75
  9
$DIMRND
 40
0.0
  9
$DIMDLE
 40
0.0
  9
$DIMEXE
 40
1.0
  9
$DIMTP
 40
0.0
  9
$DIMTM
 40
0.0
  9
$DIMTXT
 40
3.5
  9
$DIMCEN
 40
2.5
  9
$DIMTSZ
 40
0.0
  9
$DIMTOL
 70
     0
  9
$DIMLIM
 70
     0
  9
$DIMTIH
 70
     1
  9
$DIMTOH
 70
     1
  9
$DIMSE1
 70
     0
  9
$DIMSE2
 70
     0
  9
$DIMTAD
 70
     1
  9
$DIMZIN
 70
     1
  9
$DIMBLK
  1

  9
$DIMASO
 70
     1
  9
$DIMSHO
 70
     1
  9
$DIMPOST
  1

  9
$DIMAPOST
  1

  9
$DIMALT
 70
     0
  9
$DIMALTD
 70
     3
  9
$DIMALTF
 40
0.0393700787
  9
$DIMLFAC
 40
1.0
  9
$DIMTOFL
 70
     1
  9
$DIMTVP
 40
0.0
  9
$DIMTIX
 70
     0
  9
$DIMSOXD
 70
     0
  9
$DIMSAH
 70
     0
  9
$DIMBLK1
  1

  9
$DIMBLK2
  1

  9
$DIMSTYLE
  2
ISO-25
  9
$DIMCLRD
 70
     0
  9
$DIMCLRE
 70
     0
  9
$DIMCLRT
 70
     0
  9
$DIMTFAC
 40
1.0
  9
$DIMGAP
 40
1.524
  9
$DIMJUST
 70
     0
  9
$DIMSD1
 70
     0
  9
$DIMSD2
 70
     0
  9
$DIMTOLJ
 70
     0
  9
$DIMTZIN
 70
     1
  9
$DIMALTZ
 70
     0
  9
$DIMALTTZ
 70
     0
  9
$DIMUPT
 70
     0
  9
$DIMDEC
 70
     2
  9
$DIMTDEC
 70
     2
  9
$DIMALTU
 70
     2
  9
$DIMALTTD
 70
     3
  9
$DIMTXSTY
  7
Standard
  9
$DIMAUNIT
 70
     0
  9
$DIMADEC
 70
     2
  9
$DIMALTRND
 40
0.0
  9
$DIMAZIN
 70
     0
  9
$DIMDSEP
 70
    44
  9
$DIMATFIT
 70
     3
  9
$DIMFRAC
 70
     0
  9
$DIMLDRBLK
  1

  9
$DIMLUNIT
 70
     2
  9
$DIMLWD
 70
    -2
  9
$DIMLWE
 70
    -2
  9
$DIMTMOVE
 70
     0
  9
$LUNITS
 70
     2
  9
$LUPREC
 70
     2
  9
$SKETCHINC
 40
1.0
  9
$FILLETRAD
 40
0.0
  9
$AUNITS
 70
     0
  9
$AUPREC
 70
     2
  9
$MENU
  1
.
  9
$ELEVATION
 40
0.0
  9
$PELEVATION
 40
0.0
  9
$THICKNESS
 40
0.0
  9
$LIMCHECK
 70
     0
  9
$CHAMFERA
 40
0.0
  9
$CHAMFERB
 40
0.0
  9
$CHAMFERC
 40
0.0
  9
$CHAMFERD
 40
0.0
  9
$SKPOLY
 70
     0
  9
$TDCREATE
 40
2460796.458841922
  9
$TDUCREATE
 40
2460796.625508588
  9
$TDUPDATE
 40
2460796.458842327
  9
$TDUUPDATE
 40
2460796.625508993
  9
$TDINDWG
 40
0.0000000116
  9
$TDUSRTIMER
 40
0.0000000116
  9
$USRTIMER
 70
     1
  9
$ANGBASE
 50
0.0
  9
$ANGDIR
 70
     0
  9
$PDMODE
 70
     0
  9
$PDSIZE
 40
-1.0
  9
$PLINEWID
 40
0.0
  9
$SPLFRAME
 70
     0
  9
$SPLINETYPE
 70
     6
  9
$SPLINESEGS
 70
     8
  9
$HANDSEED
  5
292
  9
$SURFTAB1
 70
     6
  9
$SURFTAB2
 70
     6
  9
$SURFTYPE
 70
     6
  9
$SURFU
 70
     6
  9
$SURFV
 70
     6
  9
$UCSBASE
  2

  9
$UCSNAME
  2

  9
$UCSORG
 10
0.0
 20
0.0
 30
0.0
  9
$UCSXDIR
 10
1.0
 20
0.0
 30
0.0
  9
$UCSYDIR
 10
0.0
 20
1.0
 30
0.0
  9
$UCSORTHOREF
  2

  9
$UCSORTHOVIEW
 70
     0
  9
$UCSORGTOP
 10
0.0
 20
0.0
 30
0.0
  9
$UCSORGBOTTOM
 10
0.0
 20
0.0
 30
0.0
  9
$UCSORGLEFT
 10
0.0
 20
0.0
 30
0.0
  9
$UCSORGRIGHT
 10
0.0
 20
0.0
 30
0.0
  9
$UCSORGFRONT
 10
0.0
 20
0.0
 30
0.0
  9
$UCSORGBACK
 10
0.0
 20
0.0
 30
0.0
  9
$PUCSBASE
  2

  9
$PUCSNAME
  2

  9
$PUCSORG
 10
0.0
 20
0.0
 30
0.0
  9
$PUCSXDIR
 10
1.0
 20
0.0
 30
0.0
  9
$PUCSYDIR
 10
0.0
 20
1.0
 30
0.0
  9
$PUCSORTHOREF
  2

  9
$PUCSORTHOVIEW
 70
     0
  9
$PUCSORGTOP
 10
0.0
 20
0.0
 30
0.0
  9
$PUCSORGBOTTOM
 10
0.0
 20
0.0
 30
0.0
  9
$PUCSORGLEFT
 10
0.0
 20
0.0
 30
0.0
  9
$PUCSORGRIGHT
 10
0.0
 20
0.0
 30
0.0
  9
$PUCSORGFRONT
 10
0.0
 20
0.0
 30
0.0
  9
$PUCSORGBACK
 10
0.0
 20
0.0
 30
0.0
  9
$USERI1
 70
     0
  9
$USERI2
 70
     0
  9
$USERI3
 70
     0
  9
$USERI4
 70
     0
  9
$USERI5
 70
     0
  9
$USERR1
 40
0.0
  9
$USERR2
 40
0.0
  9
$USERR3
 40
0.0
  9
$USERR4
 40
0.0
  9
$USERR5
 40
0.0
  9
$WORLDVIEW
 70
     1
  9
$SHADEDGE
 70
     3
  9
$SHADEDIF
 70
    70
  9
$TILEMODE
 70
     1
  9
$MAXACTVP
 70
    64
  9
$PINSBASE
 10
0.0
 20
0.0
 30
0.0
  9
$PLIMCHECK
 70
     0
  9
$PEXTMIN
 10
1.0000000000E+20
 20
1.0000000000E+20
 30
1.0000000000E+20
  9
$PEXTMAX
 10
-1.0000000000E+20
 20
-1.0000000000E+20
 30
-1.0000000000E+20
  9
$PLIMMIN
 10
0.0
 20
0.0
  9
$PLIMMAX
 10
420.0
 20
297.0
  9
$UNITMODE
 70
     0
  9
$VISRETAIN
 70
     1
  9
$PLINEGEN
 70
     0
  9
$PSLTSCALE
 70
     1
  9
$TREEDEPTH
 70
  3020
  9
$CMLSTYLE
  2
Standard
  9
$CMLJUST
 70
     0
  9
$CMLSCALE
 40
20.0
  9
$PROXYGRAPHICS
 70
     1
  9
$MEASUREMENT
 70
     1
  9
$CELWEIGHT
370
    -1
  9
$ENDCAPS
280
     0
  9
$JOINSTYLE
280
     0
  9
$LWDISPLAY
290
     1
  9
$INSUNITS
 70
     4
  9
$HYPERLINKBASE
  1

  9
$STYLESHEET
  1

  9
$XEDIT
290
     1
  9
$CEPSNTYPE
380
     0
  9
$PSTYLEMODE
290
     1
  9
$FINGERPRINTGUID
  2
{cfb5f288-dc36-4091-8546-516cf25e59b8}
  9
$VERSIONGUID
  2
{FAEB1C32-E019-11D5-929B-00C0DF256EC4}
  9
$EXTNAMES
290
     1
  9
$PSVPSCALE
 40
0.0
  9
$OLESTARTUP
290
     0
  0
ENDSEC
  0
SECTION
  2
CLASSES
  0
CLASS
  1
ACDBDICTIONARYWDFLT
  2
AcDbDictionaryWithDefault
  3
ObjectDBX Classes
 90
        0
280
     0
281
     0
  0
CLASS
  1
VISUALSTYLE
  2
AcDbVisualStyle
  3
ObjectDBX Classes
 90
     4095
280
     0
281
     0
  0
CLASS
  1
MATERIAL
  2
AcDbMaterial
  3
ObjectDBX Classes
 90
     1153
280
     0
281
     0
  0
CLASS
  1
SCALE
  2
AcDbScale
  3
ObjectDBX Classes
 90
     1153
280
     0
281
     0
  0
CLASS
  1
TABLESTYLE
  2
AcDbTableStyle
  3
ObjectDBX Classes
 90
     4095
280
     0
281
     0
  0
CLASS
  1
MLEADERSTYLE
  2
AcDbMLeaderStyle
  3
ACDB_MLEADERSTYLE_CLASS
 90
     4095
280
     0
281
     0
  0
CLASS
  1
SUN
  2
AcDbSun
  3
SCENEOE
 90
     1153
280
     0
281
     0
  0
CLASS
  1
ACDBPLACEHOLDER
  2
AcDbPlaceHolder
  3
ObjectDBX Classes
 90
        0
280
     0
281
     0
  0
CLASS
  1
LAYOUT
  2
AcDbLayout
  3
ObjectDBX Classes
 90
        0
280
     0
281
     0
  0
ENDSEC
  0
SECTION
  2
TABLES
  0
TABLE
  2
VPORT
  5
8
330
0
100
AcDbSymbolTable
 70
     1
  0
VPORT
  5
29
330
8
100
AcDbSymbolTableRecord
100
AcDbViewportTableRecord
  2
*Active
 70
     0
 10
0.0
 20
0.0
 11
1.0
 21
1.0
 12
148.5
 22
105.0
 13
0.0
 23
0.0
 14
10.0
 24
10.0
 15
10.0
 25
10.0
 16
0.0
 26
0.0
 36
1.0
 17
0.0
 27
0.0
 37
0.0
 40
210.0
 41
1.4142857143
 42
50.0
 43
0.0
 44
0.0
 50
0.0
 51
0.0
 71
     0
 72
  2000
 73
     1
 74
     3
 75
     0
 76
     0
 77
     0
 78
     0
281
     0
 65
     1
110
0.0
120
0.0
130
0.0
111
1.0
121
0.0
131
0.0
112
0.0
122
1.0
132
0.0
 79
     0
146
0.0
  0
ENDTAB
  0
TABLE
  2
LTYPE
  5
5
330
0
100
AcDbSymbolTable
 70
     6
  0
LTYPE
  5
14
330
5
100
AcDbSymbolTableRecord
100
AcDbLinetypeTableRecord
  2
ByBlock
 70
     0
  3

 72
    65
 73
     0
 40
0.0
  0
LTYPE
  5
15
330
5
100
AcDbSymbolTableRecord
100
AcDbLinetypeTableRecord
  2
ByLayer
 70
     0
  3

 72
    65
 73
     0
 40
0.0
  0
LTYPE
  5
16
330
5
100
AcDbSymbolTableRecord
100
AcDbLinetypeTableRecord
  2
Continuous
 70
     0
  3
Solid line
 72
    65
 73
     0
 40
0.0
  0
LTYPE
  5
5E
330
5
100
AcDbSymbolTableRecord
100
AcDbLinetypeTableRecord
  2
HIDDEN
 70
     0
  3
Hidden __ __ __ __ __ __ __ __ __ __ __ __ __ __
 72
    65
 73
     2
 40
1.905
 49
1.27
 74
     0
 49
-0.635
 74
     0
  0
LTYPE
  5
5F
330
5
100
AcDbSymbolTableRecord
100
AcDbLinetypeTableRecord
  2
PHANTOM
 70
     0
  3
Phantom ______  __  __  ______  __  __  ______
 72
    65
 73
     6
 40
12.7
 49
6.35
 74
     0
 49
-1.27
 74
     0
 49
1.27
 74
     0
 49
-1.27
 74
     0
 49
1.27
 74
     0
 49
-1.27
 74
     0
  0
LTYPE
  5
60
330
5
100
AcDbSymbolTableRecord
100
AcDbLinetypeTableRecord
  2
CENTER
 70
     0
  3
Center ____ _ ____ _ ____ _ ____ _ ____ _ ____
 72
    65
 73
     4
 40
10.16
 49
6.35
 74
     0
 49
-1.27
 74
     0
 49
1.27
 74
     0
 49
-1.27
 74
     0
  0
LTYPE
  5
61
330
5
100
AcDbSymbolTableRecord
100
AcDbLinetypeTableRecord
  2
CENTERX2
 70
     0
  3
Center (2x) ________  __  ________  __  _____
 72
    65
 73
     4
 40
20.32
 49
12.7
 74
     0
 49
-2.54
 74
     0
 49
2.54
 74
     0
 49
-2.54
 74
     0
  0
LTYPE
  5
62
330
5
100
AcDbSymbolTableRecord
100
AcDbLinetypeTableRecord
  2
DOT2
 70
     0
  3
Dot (.5x) ........................................
 72
    65
 73
     2
 40
0.635
 49
0.0
 74
     0
 49
-0.635
 74
     0
  0
ENDTAB
  0
TABLE
  2
LAYER
  5
2
330
0
100
AcDbSymbolTable
 70
     2
  0
LAYER
  5
10
330
2
100
AcDbSymbolTableRecord
100
AcDbLayerTableRecord
  2
0
 70
     0
 62
     7
  6
Continuous
370
    -3
390
F
  0
LAYER
  5
63
330
2
100
AcDbSymbolTableRecord
100
AcDbLayerTableRecord
  2
FORMAT
 70
     0
 62
     7
  6
Continuous
370
    -3
390
F
  0
ENDTAB
  0
TABLE
  2
STYLE
  5
3
330
0
100
AcDbSymbolTable
 70
     2
  0
STYLE
  5
11
330
3
100
AcDbSymbolTableRecord
100
AcDbTextStyleTableRecord
  2
Standard
 70
     0
 40
0.0
 41
1.0
 50
0.0
 71
     0
 42
3.5
  3
txt
  4

  0
STYLE
  5
69
330
3
100
AcDbSymbolTableRecord
100
AcDbTextStyleTableRecord
  2
SLDTEXTSTYLE0
 70
     0
 40
0.0
 41
0.75
 50
0.0
 71
     0
 42
3.5
  3
TXT
  4

  0
ENDTAB
  0
TABLE
  2
VIEW
  5
6
330
0
100
AcDbSymbolTable
 70
     0
  0
ENDTAB
  0
TABLE
  2
UCS
  5
7
330
0
100
AcDbSymbolTable
 70
     0
  0
ENDTAB
  0
TABLE
  2
APPID
  5
9
330
0
100
AcDbSymbolTable
 70
     1
  0
APPID
  5
12
330
9
100
AcDbSymbolTableRecord
100
AcDbRegAppTableRecord
  2
ACAD
 70
     0
  0
ENDTAB
  0
TABLE
  2
DIMSTYLE
  5
A
330
0
100
AcDbSymbolTable
 70
     2
100
AcDbDimStyleTable
  0
DIMSTYLE
105
27
330
A
100
AcDbSymbolTableRecord
100
AcDbDimStyleTableRecord
  2
ISO-25
 70
     0
 41
2.5
 42
0.625
 43
3.75
 44
1.25
 73
     0
 74
     0
 77
     1
 78
     8
140
2.5
141
2.5
143
0.0393700787
147
0.625
171
     3
172
     1
178
     0
271
     2
272
     2
274
     3
278
    44
283
     0
284
     8
340
11
  0
DIMSTYLE
105
6A
102
{ACAD_REACTORS
330
68
330
7B
102
}
330
A
100
AcDbSymbolTableRecord
100
AcDbDimStyleTableRecord
  2
SLDDIMSTYLE0
 70
     0
 41
3.556
 44
0.0
 45
0.000000001
 73
     0
 74
     0
 77
     1
 78
     4
 79
     1
140
3.5
147
0.875
172
     1
173
     1
178
     0
271
     2
272
     2
276
     2
284
    12
289
     0
340
69
341
6B
343
6B
344
6B
  0
ENDTAB
  0
TABLE
  2
BLOCK_RECORD
  5
1
330
0
100
AcDbSymbolTable
 70
     4
  0
BLOCK_RECORD
  5
1F
330
1
100
AcDbSymbolTableRecord
100
AcDbBlockTableRecord
  2
*Model_Space
340
22
  0
BLOCK_RECORD
  5
1B
330
1
100
AcDbSymbolTableRecord
100
AcDbBlockTableRecord
  2
*Paper_Space
340
1E
  0
BLOCK_RECORD
  5
23
330
1
100
AcDbSymbolTableRecord
100
AcDbBlockTableRecord
  2
*Paper_Space0
340
26
  0
BLOCK_RECORD
  5
6B
330
1
100
AcDbSymbolTableRecord
100
AcDbBlockTableRecord
  2
_Closed
340
0
102
{BLKREFS
331
75
331
76
331
7F
331
80
102
}
  0
BLOCK_RECORD
  5
72
330
1
100
AcDbSymbolTableRecord
100
AcDbBlockTableRecord
  2
_D
340
0
  0
BLOCK_RECORD
  5
7C
330
1
100
AcDbSymbolTableRecord
100
AcDbBlockTableRecord
  2
_D_1
340
0
  0
ENDTAB
  0
ENDSEC
  0
SECTION
  2
BLOCKS
  0
BLOCK
  5
20
330
1F
100
AcDbEntity
  8
0
100
AcDbBlockBegin
  2
*Model_Space
 70
     0
 10
0.0
 20
0.0
 30
0.0
  3
*Model_Space
  1

  0
ENDBLK
  5
21
330
1F
100
AcDbEntity
  8
0
100
AcDbBlockEnd
  0
BLOCK
  5
1C
330
1B
100
AcDbEntity
 67
     1
  8
0
100
AcDbBlockBegin
  2
*Paper_Space
 70
     0
 10
0.0
 20
0.0
 30
0.0
  3
*Paper_Space
  1

  0
ENDBLK
  5
1D
330
1B
100
AcDbEntity
 67
     1
  8
0
100
AcDbBlockEnd
  0
BLOCK
  5
24
330
23
100
AcDbEntity
  8
0
100
AcDbBlockBegin
  2
*Paper_Space0
 70
     0
 10
0.0
 20
0.0
 30
0.0
  3
*Paper_Space0
  1

  0
ENDBLK
  5
25
330
23
100
AcDbEntity
  8
0
100
AcDbBlockEnd
  0
BLOCK
  5
6C
330
6B
100
AcDbEntity
  8
0
100
AcDbBlockBegin
  2
_Closed
 70
     0
 10
0.0
 20
0.0
 30
0.0
  3
_Closed
  1

  0
LINE
  5
6E
330
6B
100
AcDbEntity
  8
0
  6
ByBlock
 62
     0
370
    -2
100
AcDbLine
 10
-1.0
 20
0.166667
 30
0.0
 11
0.0
 21
0.0
 31
0.0
  0
LINE
  5
6F
330
6B
100
AcDbEntity
  8
0
  6
ByBlock
 62
     0
370
    -2
100
AcDbLine
 10
0.0
 20
0.0
 30
0.0
 11
-1.0
 21
-0.166667
 31
0.0
  0
LINE
  5
70
330
6B
100
AcDbEntity
  8
0
  6
ByBlock
 62
     0
370
    -2
100
AcDbLine
 10
-1.0
 20
0.166667
 30
0.0
 11
-1.0
 21
-0.166667
 31
0.0
  0
LINE
  5
71
330
6B
100
AcDbEntity
  8
0
  6
ByBlock
 62
     0
370
    -2
100
AcDbLine
 10
0.0
 20
0.0
 30
0.0
 11
-1.0
 21
0.0
 31
0.0
  0
ENDBLK
  5
6D
330
6B
100
AcDbEntity
  8
0
100
AcDbBlockEnd
  0
BLOCK
  5
73
330
72
100
AcDbEntity
  8
0
100
AcDbBlockBegin
  2
_D
 70
     0
 10
0.0
 20
0.0
 30
0.0
  3
_D
  1

  0
INSERT
  5
75
330
72
100
AcDbEntity
  8
0
  6
Continuous
 62
     7
370
    18
100
AcDbBlockReference
  2
_Closed
 10
191.8252427184
 20
56.1737864078
 30
0.0
 41
3.556
 42
3.556
 50
90.0
  0
INSERT
  5
76
330
72
100
AcDbEntity
  8
0
  6
Continuous
 62
     7
370
    18
100
AcDbBlockReference
  2
_Closed
 10
191.8252427184
 20
31.1737864078
 30
0.0
 41
3.556
 42
3.556
 50
270.0
  0
LINE
  5
77
330
72
100
AcDbEntity
  8
0
  6
Continuous
 62
     7
370
     0
100
AcDbLine
 10
207.4621359223
 20
56.1737864078
 30
0.0
 11
190.8252427184
 21
56.1737864078
 31
0.0
  0
LINE
  5
78
330
72
100
AcDbEntity
  8
0
  6
Continuous
 62
     7
370
     0
100
AcDbLine
 10
207.4621359223
 20
31.1737864078
 30
0.0
 11
190.8252427184
 21
31.1737864078
 31
0.0
  0
LINE
  5
79
330
72
100
AcDbEntity
  8
0
  6
Continuous
 62
     7
370
     0
100
AcDbLine
 10
191.8252427184
 20
56.1737864078
 30
0.0
 11
191.8252427184
 21
31.1737864078
 31
0.0
  0
MTEXT
  5
7A
330
72
100
AcDbEntity
  8
0
  6
Continuous
 62
     7
370
    18
100
AcDbMText
 10
187.3135058039
 20
39.0874305303
 30
0.0
 40
3.5
 41
0.0
 71
     1
 72
     1
  1
25.00
  7
SLDTEXTSTYLE0
 11
-7.044195017643634E-15
 21
1.0
 31
0.0
 73
     1
 44
1.0
  0
ENDBLK
  5
74
330
72
100
AcDbEntity
  8
0
100
AcDbBlockEnd
  0
BLOCK
  5
7D
330
7C
100
AcDbEntity
  8
0
100
AcDbBlockBegin
  2
_D_1
 70
     0
 10
0.0
 20
0.0
 30
0.0
  3
_D_1
  1

  0
INSERT
  5
7F
330
7C
100
AcDbEntity
  8
0
  6
Continuous
 62
     7
370
    18
100
AcDbBlockReference
  2
_Closed
 10
208.4621359223
 20
70.8597087379
 30
0.0
 41
3.556
 42
3.556
 50
180.0
  0
INSERT
  5
80
330
7C
100
AcDbEntity
  8
0
  6
Continuous
 62
     7
370
    18
100
AcDbBlockReference
  2
_Closed
 10
233.4621359223
 20
70.8597087379
 30
0.0
 41
3.556
 42
3.556
 50
0.0
  0
LINE
  5
81
330
7C
100
AcDbEntity
  8
0
  6
Continuous
 62
     7
370
     0
100
AcDbLine
 10
208.4621359223
 20
57.1737864078
 30
0.0
 11
208.4621359223
 21
71.8597087379
 31
0.0
  0
LINE
  5
82
330
7C
100
AcDbEntity
  8
0
  6
Continuous
 62
     7
370
     0
100
AcDbLine
 10
233.4621359223
 20
57.1737864078
 30
0.0
 11
233.4621359223
 21
71.8597087379
 31
0.0
  0
LINE
  5
83
330
7C
100
AcDbEntity
  8
0
  6
Continuous
 62
     7
370
     0
100
AcDbLine
 10
208.4621359223
 20
70.8597087379
 30
0.0
 11
233.4621359223
 21
70.8597087379
 31
0.0
  0
MTEXT
  5
84
330
7C
100
AcDbEntity
  8
0
  6
Continuous
 62
     7
370
    18
100
AcDbMText
 10
214.7896120938
 20
75.3714456524
 30
0.0
 40
3.5
 41
0.0
 71
     1
 72
     1
  1
25.00
  7
SLDTEXTSTYLE0
 73
     1
 44
1.0
  0
ENDBLK
  5
7E
330
7C
100
AcDbEntity
  8
0
100
AcDbBlockEnd
  0
ENDSEC
  0
SECTION
  2
ENTITIES
  0
LINE
  5
64
330
1F
100
AcDbEntity
  8
0
  6
Continuous
 62
     7
370
    18
100
AcDbLine
 10
208.4621359223
 20
56.1737864078
 30
0.0
 11
233.4621359223
 21
56.1737864078
 31
0.0
  0
LINE
  5
65
330
1F
100
AcDbEntity
  8
0
  6
Continuous
 62
     7
370
    18
100
AcDbLine
 10
208.4621359223
 20
56.1737864078
 30
0.0
 11
208.4621359223
 21
31.1737864078
 31
0.0
  0
LINE
  5
66
330
1F
100
AcDbEntity
  8
0
  6
Continuous
 62
     7
370
    18
100
AcDbLine
 10
208.4621359223
 20
31.1737864078
 30
0.0
 11
233.4621359223
 21
31.1737864078
 31
0.0
  0
LINE
  5
67
330
1F
100
AcDbEntity
  8
0
  6
Continuous
 62
     7
370
    18
100
AcDbLine
 10
233.4621359223
 20
56.1737864078
 30
0.0
 11
233.4621359223
 21
31.1737864078
 31
0.0
  0
DIMENSION
  5
68
330
1F
100
AcDbEntity
  8
0
  6
Continuous
 62
     7
370
    18
100
AcDbDimension
  2
_D
 10
191.8252427184
 20
31.1737864078
 30
0.0
 11
191.8252427184
 21
44.906180774
 31
0.0
 70
   160
  1
<>
 71
     2
 42
-1.0
  3
SLDDIMSTYLE0
100
AcDbAlignedDimension
 13
208.4621359223
 23
56.1737864078
 33
0.0
 14
208.4621359223
 24
31.1737864078
 34
0.0
 50
90.0
100
AcDbRotatedDimension
  0
DIMENSION
  5
7B
330
1F
100
AcDbEntity
  8
0
  6
Continuous
 62
     7
370
    18
100
AcDbDimension
  2
_D_1
 10
233.4621359223
 20
70.8597087379
 30
0.0
 11
220.6083623374
 21
70.8597087379
 31
0.0
 70
   160
  1
<>
 71
     2
 42
-1.0
  3
SLDDIMSTYLE0
100
AcDbAlignedDimension
 13
208.4621359223
 23
56.1737864078
 33
0.0
 14
233.4621359223
 24
56.1737864078
 34
0.0
100
AcDbRotatedDimension
  0
ARC
  5
85
330
1F
100
AcDbEntity
  8
0
  6
Continuous
 62
     7
370
    25
100
AcDbCircle
 10
115.0641445853
 20
109.6791262456
 30
0.0
 40
1.250000000000014
100
AcDbArc
 50
0.0
 51
180.0
  0
LINE
  5
86
330
1F
100
AcDbEntity
  8
0
  6
Continuous
 62
     7
370
    25
100
AcDbLine
 10
115.0641445853
 20
109.6791262456
 30
0.0
 11
116.3141445853
 21
109.6791262456
 31
0.0
  0
LINE
  5
87
330
1F
100
AcDbEntity
  8
0
  6
Continuous
 62
     7
370
    25
100
AcDbLine
 10
115.0641445853
 20
109.6791262456
 30
0.0
 11
113.8141445853
 21
109.6791262456
 31
0.0
  0
ARC
  5
88
330
1F
100
AcDbEntity
  8
0
  6
Continuous
 62
     7
370
    25
100
AcDbCircle
 10
115.0641445853
 20
109.6791262456
 30
0.0
 40
1.250000000000014
100
AcDbArc
 50
180.0
 51
0.0
  0
ARC
  5
89
330
1F
100
AcDbEntity
  8
0
  6
Continuous
 62
     7
370
    25
100
AcDbCircle
 10
115.0641445853
 20
97.6791262456
 30
0.0
 40
1.400000000000094
100
AcDbArc
 50
180.0
 51
359.3462885477
  0
LINE
  5
8A
330
1F
100
AcDbEntity
  8
0
  6
Continuous
 62
     7
370
    25
100
AcDbLine
 10
116.5347595398
 20
97.6623466579
 30
0.0
 11
116.464053464
 21
97.663153408
 31
0.0
  0
ARC
  5
8B
330
1F
100
AcDbEntity
  8
0
  6
Continuous
 62
     7
370
    25
100
AcDbCircle
 10
115.0641445853
 20
97.6791262456
 30
0.0
 40
1.47071067811841
100
AcDbArc
 50
179.3462885477
 51
359.3462885477
  0
LINE
  5
8C
330
1F
100
AcDbEntity
  8
0
  6
Continuous
 62
     7
370
    25
100
AcDbLine
 10
113.5935296309
 20
97.6959058332
 30
0.0
 11
113.6642357067
 21
97.6950990831
 31
0.0
  0
ARC
  5
8D
330
1F
100
AcDbEntity
  8
0
  6
Continuous
 62
     7
370
    25
100
AcDbCircle
 10
115.0641445853
 20
97.6791262456
 30
0.0
 40
1.400000000000108
100
AcDbArc
 50
179.3462885477
 51
180.0
  0
ARC
  5
8E
330
1F
100
AcDbEntity
  8
0
  6
Continuous
 62
     7
370
    25
100
AcDbCircle
 10
115.0641445853
 20
97.6791262456
 30
0.0
 40
1.400000000000108
100
AcDbArc
 50
0.0
 51
179.3462885477
  0
ARC
  5
8F
330
1F
100
AcDbEntity
  8
0
  6
Continuous
 62
     7
370
    25
100
AcDbCircle
 10
115.0641445853
 20
97.6791262456
 30
0.0
 40
1.400000000000094
100
AcDbArc
 50
359.3462885477
 51
0.0
  0
ARC
  5
90
330
1F
100
AcDbEntity
  8
0
  6
Continuous
 62
     7
370
    25
100
AcDbCircle
 10
115.0641445853
 20
97.6791262456
 30
0.0
 40
1.47071067811841
100
AcDbArc
 50
359.3462885477
 51
179.3462885477
  0
ARC
  5
91
330
1F
100
AcDbEntity
  8
0
  6
Continuous
 62
     7
370
    25
100
AcDbCircle
 10
115.0641445853
 20
97.6791262456
 30
0.0
 40
1.500000000000014
100
AcDbArc
 50
179.3462885477
 51
180.0
  0
LINE
  5
92
330
1F
100
AcDbEntity
  8
0
  6
Continuous
 62
     7
370
    25
100
AcDbLine
 10
113.5642422154
 20
97.6962400001
 30
0.0
 11
113.5935296309
 21
97.6959058332
 31
0.0
  0
LINE
  5
93
330
1F
100
AcDbEntity
  8
0
  6
Continuous
 62
     7
370
    25
100
AcDbLine
 10
116.5640469553
 20
97.6620124911
 30
0.0
 11
116.5347595398
 21
97.6623466579
 31
0.0
  0
ARC
  5
94
330
1F
100
AcDbEntity
  8
0
  6
Continuous
 62
     7
370
    25
100
AcDbCircle
 10
115.0641445853
 20
97.6791262456
 30
0.0
 40
1.500000000000014
100
AcDbArc
 50
180.0
 51
359.3462885477
  0
ARC
  5
95
330
1F
100
AcDbEntity
  8
0
  6
Continuous
 62
     7
370
    25
100
AcDbCircle
 10
115.0641445853
 20
97.6791262456
 30
0.0
 40
1.5
100
AcDbArc
 50
0.0
 51
179.3462885477
  0
ARC
  5
96
330
1F
100
AcDbEntity
  8
0
  6
Continuous
 62
     7
370
    25
100
AcDbCircle
 10
115.0641445853
 20
97.6791262456
 30
0.0
 40
1.5
100
AcDbArc
 50
359.3462885477
 51
0.0
  0
LINE
  5
97
330
1F
100
AcDbEntity
  8
0
  6
Continuous
 62
     7
370
    25
100
AcDbLine
 10
118.2141445853
 20
94.5291262456
 30
0.0
 11
111.9141445853
 21
94.5291262456
 31
0.0
  0
LINE
  5
98
330
1F
100
AcDbEntity
  8
0
  6
Continuous
 62
     7
370
    25
100
AcDbLine
 10
118.2141445853
 20
94.5291262456
 30
0.0
 11
118.2141445853
 21
94.4791262456
 31
0.0
  0
LINE
  5
99
330
1F
100
AcDbEntity
  8
0
  6
Continuous
 62
     7
370
    25
100
AcDbLine
 10
111.9141445853
 20
94.4791262456
 30
0.0
 11
118.2141445853
 21
94.4791262456
 31
0.0
  0
LINE
  5
9A
330
1F
100
AcDbEntity
  8
0
  6
Continuous
 62
     7
370
    25
100
AcDbLine
 10
111.9141445853
 20
94.4791262456
 30
0.0
 11
111.9141445853
 21
94.5291262456
 31
0.0
  0
LINE
  5
9B
330
1F
100
AcDbEntity
  8
0
  6
Continuous
 62
     7
370
    25
100
AcDbLine
 10
111.9141445853
 20
100.8291262456
 30
0.0
 11
118.2141445853
 21
100.8291262456
 31
0.0
  0
LINE
  5
9C
330
1F
100
AcDbEntity
  8
0
  6
Continuous
 62
     7
370
    25
100
AcDbLine
 10
118.2141445853
 20
100.8291262456
 30
0.0
 11
118.2141445853
 21
94.5291262456
 31
0.0
  0
LINE
  5
9D
330
1F
100
AcDbEntity
  8
0
  6
Continuous
 62
     7
370
    25
100
AcDbLine
 10
111.9141445853
 20
94.5291262456
 30
0.0
 11
111.9141445853
 21
100.8291262456
 31
0.0
  0
ARC
  5
9E
330
1F
100
AcDbEntity
  8
0
  6
Continuous
 62
     7
370
    25
100
AcDbCircle
 10
115.0641445853
 20
97.6791262456
 30
0.0
 40
1.600000000000009
100
AcDbArc
 50
0.0
 51
180.0
  0
ARC
  5
9F
330
1F
100
AcDbEntity
  8
0
  6
Continuous
 62
     7
370
    25
100
AcDbCircle
 10
115.0641445853
 20
97.6791262456
 30
0.0
 40
1.600000000000009
100
AcDbArc
 50
180.0
 51
0.0
  0
LINE
  5
A0
330
1F
100
AcDbEntity
  8
0
  6
Continuous
 62
     7
370
    25
100
AcDbLine
 10
118.2141445853
 20
100.8791262456
 30
0.0
 11
111.9141445853
 21
100.8791262456
 31
0.0
  0
LINE
  5
A1
330
1F
100
AcDbEntity
  8
0
  6
Continuous
 62
     7
370
    25
100
AcDbLine
 10
118.2141445853
 20
100.8791262456
 30
0.0
 11
118.2141445853
 21
100.8291262456
 31
0.0
  0
LINE
  5
A2
330
1F
100
AcDbEntity
  8
0
  6
Continuous
 62
     7
370
    25
100
AcDbLine
 10
111.9141445853
 20
100.8291262456
 30
0.0
 11
111.9141445853
 21
100.8791262456
 31
0.0
  0
LINE
  5
A3
330
1F
100
AcDbEntity
  8
0
  6
Continuous
 62
     7
370
    25
100
AcDbLine
 10
113.8141445853
 20
94.3791262456
 30
0.0
 11
113.8141445853
 21
94.4791262456
 31
0.0
  0
LINE
  5
A4
330
1F
100
AcDbEntity
  8
0
  6
Continuous
 62
     7
370
    25
100
AcDbLine
 10
113.8141445853
 20
94.3791262456
 30
0.0
 11
116.3141445853
 21
94.3791262456
 31
0.0
  0
LINE
  5
A5
330
1F
100
AcDbEntity
  8
0
  6
Continuous
 62
     7
370
    25
100
AcDbLine
 10
116.3141445853
 20
94.4791262456
 30
0.0
 11
116.3141445853
 21
94.3791262456
 31
0.0
  0
LINE
  5
A6
330
1F
100
AcDbEntity
  8
0
  6
Continuous
 62
     7
370
    25
100
AcDbLine
 10
116.3141445853
 20
100.9791262456
 30
0.0
 11
116.3141445853
 21
100.8791262456
 31
0.0
  0
LINE
  5
A7
330
1F
100
AcDbEntity
  8
0
  6
Continuous
 62
     7
370
    25
100
AcDbLine
 10
113.8141445853
 20
100.9791262456
 30
0.0
 11
116.3141445853
 21
100.9791262456
 31
0.0
  0
LINE
  5
A8
330
1F
100
AcDbEntity
  8
0
  6
Continuous
 62
     7
370
    25
100
AcDbLine
 10
113.8141445853
 20
100.8791262456
 30
0.0
 11
113.8141445853
 21
100.9791262456
 31
0.0
  0
LINE
  5
A9
330
1F
100
AcDbEntity
  8
0
  6
Continuous
 62
     7
370
    25
100
AcDbLine
 10
116.3141445853
 20
100.8967589436
 30
0.0
 11
116.3641445853
 21
100.8967589436
 31
0.0
  0
LINE
  5
AA
330
1F
100
AcDbEntity
  8
0
  6
Continuous
 62
     7
370
    25
100
AcDbLine
 10
113.7641445853
 20
100.8967589436
 30
0.0
 11
113.8141445853
 21
100.8967589436
 31
0.0
  0
LINE
  5
AB
330
1F
100
AcDbEntity
  8
0
  6
Continuous
 62
     7
370
    25
100
AcDbLine
 10
112.9141445853
 20
100.984922434
 30
0.0
 11
117.2141445853
 21
100.984922434
 31
0.0
  0
LINE
  5
AC
330
1F
100
AcDbEntity
  8
0
  6
Continuous
 62
     7
370
    25
100
AcDbLine
 10
117.2141445853
 20
100.984922434
 30
0.0
 11
117.8141445853
 21
100.8791262456
 31
0.0
  0
LINE
  5
AD
330
1F
100
AcDbEntity
  8
0
  6
Continuous
 62
     7
370
    25
100
AcDbLine
 10
112.3141445853
 20
100.8791262456
 30
0.0
 11
112.9141445853
 21
100.984922434
 31
0.0
  0
LINE
  5
AE
330
1F
100
AcDbEntity
  8
0
  6
Continuous
 62
     7
370
    25
100
AcDbLine
 10
116.3641445853
 20
100.8791262456
 30
0.0
 11
116.3641445853
 21
100.8967589436
 31
0.0
  0
LINE
  5
AF
330
1F
100
AcDbEntity
  8
0
  6
Continuous
 62
     7
370
    25
100
AcDbLine
 10
113.7641445853
 20
100.8967589436
 30
0.0
 11
113.7641445853
 21
100.8791262456
 31
0.0
  0
LINE
  5
B0
330
1F
100
AcDbEntity
  8
0
  6
Continuous
 62
     7
370
    25
100
AcDbLine
 10
113.7641445853
 20
94.4614935475
 30
0.0
 11
113.8141445853
 21
94.4614935475
 31
0.0
  0
LINE
  5
B1
330
1F
100
AcDbEntity
  8
0
  6
Continuous
 62
     7
370
    25
100
AcDbLine
 10
116.3141445853
 20
94.4614935475
 30
0.0
 11
116.3641445853
 21
94.4614935475
 31
0.0
  0
LINE
  5
B2
330
1F
100
AcDbEntity
  8
0
  6
Continuous
 62
     7
370
    25
100
AcDbLine
 10
112.9141445853
 20
94.3733300571
 30
0.0
 11
117.2141445853
 21
94.3733300571
 31
0.0
  0
LINE
  5
B3
330
1F
100
AcDbEntity
  8
0
  6
Continuous
 62
     7
370
    25
100
AcDbLine
 10
117.8141445853
 20
94.4791262456
 30
0.0
 11
117.2141445853
 21
94.3733300571
 31
0.0
  0
LINE
  5
B4
330
1F
100
AcDbEntity
  8
0
  6
Continuous
 62
     7
370
    25
100
AcDbLine
 10
112.9141445853
 20
94.3733300571
 30
0.0
 11
112.3141445853
 21
94.4791262456
 31
0.0
  0
LINE
  5
B5
330
1F
100
AcDbEntity
  8
0
  6
Continuous
 62
     7
370
    25
100
AcDbLine
 10
113.7641445853
 20
94.4791262456
 30
0.0
 11
113.7641445853
 21
94.4614935475
 31
0.0
  0
LINE
  5
B6
330
1F
100
AcDbEntity
  8
0
  6
Continuous
 62
     7
370
    25
100
AcDbLine
 10
116.3641445853
 20
94.4614935475
 30
0.0
 11
116.3641445853
 21
94.4791262456
 31
0.0
  0
LINE
  5
B7
330
1F
100
AcDbEntity
  8
0
  6
Continuous
 62
     7
370
    25
100
AcDbLine
 10
118.6891445853
 20
95.0541262456
 30
0.0
 11
118.6891445853
 21
95.8041262456
 31
0.0
  0
LINE
  5
B8
330
1F
100
AcDbEntity
  8
0
  6
Continuous
 62
     7
370
    25
100
AcDbLine
 10
118.6891445853
 20
95.0541262456
 30
0.0
 11
118.3891445853
 21
95.0541262456
 31
0.0
  0
LINE
  5
B9
330
1F
100
AcDbEntity
  8
0
  6
Continuous
 62
     7
370
    25
100
AcDbLine
 10
118.3891445853
 20
95.8041262456
 30
0.0
 11
118.3891445853
 21
95.0541262456
 31
0.0
  0
LINE
  5
BA
330
1F
100
AcDbEntity
  8
0
  6
Continuous
 62
     7
370
    25
100
AcDbLine
 10
118.3891445853
 20
95.8041262456
 30
0.0
 11
118.6891445853
 21
95.8041262456
 31
0.0
  0
LINE
  5
BB
330
1F
100
AcDbEntity
  8
0
  6
Continuous
 62
     7
370
    25
100
AcDbLine
 10
111.7391445853
 20
99.5541262456
 30
0.0
 11
111.7391445853
 21
100.3041262456
 31
0.0
  0
LINE
  5
BC
330
1F
100
AcDbEntity
  8
0
  6
Continuous
 62
     7
370
    25
100
AcDbLine
 10
111.9141445853
 20
100.3041262456
 30
0.0
 11
111.7391445853
 21
100.3041262456
 31
0.0
  0
LINE
  5
BD
330
1F
100
AcDbEntity
  8
0
  6
Continuous
 62
     7
370
    25
100
AcDbLine
 10
111.9141445853
 20
99.5541262456
 30
0.0
 11
111.7391445853
 21
99.5541262456
 31
0.0
  0
LINE
  5
BE
330
1F
100
AcDbEntity
  8
0
  6
Continuous
 62
     7
370
    25
100
AcDbLine
 10
111.7391445853
 20
95.0541262456
 30
0.0
 11
111.7391445853
 21
95.8041262456
 31
0.0
  0
LINE
  5
BF
330
1F
100
AcDbEntity
  8
0
  6
Continuous
 62
     7
370
    25
100
AcDbLine
 10
111.7391445853
 20
95.0541262456
 30
0.0
 11
111.4391445853
 21
95.0541262456
 31
0.0
  0
LINE
  5
C0
330
1F
100
AcDbEntity
  8
0
  6
Continuous
 62
     7
370
    25
100
AcDbLine
 10
111.4391445853
 20
95.8041262456
 30
0.0
 11
111.4391445853
 21
95.0541262456
 31
0.0
  0
LINE
  5
C1
330
1F
100
AcDbEntity
  8
0
  6
Continuous
 62
     7
370
    25
100
AcDbLine
 10
111.4391445853
 20
95.8041262456
 30
0.0
 11
111.7391445853
 21
95.8041262456
 31
0.0
  0
LINE
  5
C2
330
1F
100
AcDbEntity
  8
0
  6
Continuous
 62
     7
370
    25
100
AcDbLine
 10
111.4391445853
 20
100.3041262456
 30
0.0
 11
111.4391445853
 21
99.5541262456
 31
0.0
  0
LINE
  5
C3
330
1F
100
AcDbEntity
  8
0
  6
Continuous
 62
     7
370
    25
100
AcDbLine
 10
111.4391445853
 20
100.3041262456
 30
0.0
 11
111.7391445853
 21
100.3041262456
 31
0.0
  0
LINE
  5
C4
330
1F
100
AcDbEntity
  8
0
  6
Continuous
 62
     7
370
    25
100
AcDbLine
 10
111.7391445853
 20
99.5541262456
 30
0.0
 11
111.4391445853
 21
99.5541262456
 31
0.0
  0
LINE
  5
C5
330
1F
100
AcDbEntity
  8
0
  6
Continuous
 62
     7
370
    25
100
AcDbLine
 10
118.3891445853
 20
100.3041262456
 30
0.0
 11
118.2141445853
 21
100.3041262456
 31
0.0
  0
LINE
  5
C6
330
1F
100
AcDbEntity
  8
0
  6
Continuous
 62
     7
370
    25
100
AcDbLine
 10
118.3891445853
 20
100.3041262456
 30
0.0
 11
118.3891445853
 21
99.5541262456
 31
0.0
  0
LINE
  5
C7
330
1F
100
AcDbEntity
  8
0
  6
Continuous
 62
     7
370
    25
100
AcDbLine
 10
118.3891445853
 20
99.5541262456
 30
0.0
 11
118.2141445853
 21
99.5541262456
 31
0.0
  0
LINE
  5
C8
330
1F
100
AcDbEntity
  8
0
  6
Continuous
 62
     7
370
    25
100
AcDbLine
 10
118.3891445853
 20
95.8041262456
 30
0.0
 11
118.2141445853
 21
95.8041262456
 31
0.0
  0
LINE
  5
C9
330
1F
100
AcDbEntity
  8
0
  6
Continuous
 62
     7
370
    25
100
AcDbLine
 10
118.3891445853
 20
95.0541262456
 30
0.0
 11
118.2141445853
 21
95.0541262456
 31
0.0
  0
LINE
  5
CA
330
1F
100
AcDbEntity
  8
0
  6
Continuous
 62
     7
370
    25
100
AcDbLine
 10
111.9141445853
 20
95.0541262456
 30
0.0
 11
111.7391445853
 21
95.0541262456
 31
0.0
  0
LINE
  5
CB
330
1F
100
AcDbEntity
  8
0
  6
Continuous
 62
     7
370
    25
100
AcDbLine
 10
111.9141445853
 20
95.8041262456
 30
0.0
 11
111.7391445853
 21
95.8041262456
 31
0.0
  0
LINE
  5
CC
330
1F
100
AcDbEntity
  8
0
  6
Continuous
 62
     7
370
    25
100
AcDbLine
 10
118.6891445853
 20
99.5541262456
 30
0.0
 11
118.6891445853
 21
100.3041262456
 31
0.0
  0
LINE
  5
CD
330
1F
100
AcDbEntity
  8
0
  6
Continuous
 62
     7
370
    25
100
AcDbLine
 10
118.3891445853
 20
100.3041262456
 30
0.0
 11
118.6891445853
 21
100.3041262456
 31
0.0
  0
LINE
  5
CE
330
1F
100
AcDbEntity
  8
0
  6
Continuous
 62
     7
370
    25
100
AcDbLine
 10
118.6891445853
 20
99.5541262456
 30
0.0
 11
118.3891445853
 21
99.5541262456
 31
0.0
  0
LINE
  5
CF
330
1F
100
AcDbEntity
  8
0
  6
Continuous
 62
     7
370
    25
100
AcDbLine
 10
119.2641445853
 20
95.0541262456
 30
0.0
 11
119.2641445853
 21
95.8041262456
 31
0.0
  0
LINE
  5
D0
330
1F
100
AcDbEntity
  8
0
  6
Continuous
 62
     7
370
    25
100
AcDbLine
 10
119.2641445853
 20
95.8041262456
 30
0.0
 11
118.6891445853
 21
95.8041262456
 31
0.0
  0
LINE
  5
D1
330
1F
100
AcDbEntity
  8
0
  6
Continuous
 62
     7
370
    25
100
AcDbLine
 10
119.2641445853
 20
95.0541262456
 30
0.0
 11
118.6891445853
 21
95.0541262456
 31
0.0
  0
LINE
  5
D2
330
1F
100
AcDbEntity
  8
0
  6
Continuous
 62
     7
370
    25
100
AcDbLine
 10
119.2641445853
 20
100.3041262456
 30
0.0
 11
119.2641445853
 21
99.5541262456
 31
0.0
  0
LINE
  5
D3
330
1F
100
AcDbEntity
  8
0
  6
Continuous
 62
     7
370
    25
100
AcDbLine
 10
119.2641445853
 20
100.3041262456
 30
0.0
 11
118.6891445853
 21
100.3041262456
 31
0.0
  0
LINE
  5
D4
330
1F
100
AcDbEntity
  8
0
  6
Continuous
 62
     7
370
    25
100
AcDbLine
 10
119.2641445853
 20
99.5541262456
 30
0.0
 11
118.6891445853
 21
99.5541262456
 31
0.0
  0
LINE
  5
D5
330
1F
100
AcDbEntity
  8
0
  6
Continuous
 62
     7
370
    25
100
AcDbLine
 10
110.8641445853
 20
100.3041262456
 30
0.0
 11
110.8641445853
 21
99.5541262456
 31
0.0
  0
LINE
  5
D6
330
1F
100
AcDbEntity
  8
0
  6
Continuous
 62
     7
370
    25
100
AcDbLine
 10
111.4391445853
 20
100.3041262456
 30
0.0
 11
110.8641445853
 21
100.3041262456
 31
0.0
  0
LINE
  5
D7
330
1F
100
AcDbEntity
  8
0
  6
Continuous
 62
     7
370
    25
100
AcDbLine
 10
111.4391445853
 20
99.5541262456
 30
0.0
 11
110.8641445853
 21
99.5541262456
 31
0.0
  0
LINE
  5
D8
330
1F
100
AcDbEntity
  8
0
  6
Continuous
 62
     7
370
    25
100
AcDbLine
 10
110.8641445853
 20
95.0541262456
 30
0.0
 11
110.8641445853
 21
95.8041262456
 31
0.0
  0
LINE
  5
D9
330
1F
100
AcDbEntity
  8
0
  6
Continuous
 62
     7
370
    25
100
AcDbLine
 10
111.4391445853
 20
95.0541262456
 30
0.0
 11
110.8641445853
 21
95.0541262456
 31
0.0
  0
LINE
  5
DA
330
1F
100
AcDbEntity
  8
0
  6
Continuous
 62
     7
370
    25
100
AcDbLine
 10
111.4391445853
 20
95.8041262456
 30
0.0
 11
110.8641445853
 21
95.8041262456
 31
0.0
  0
ARC
  5
DB
330
1F
100
AcDbEntity
  8
0
  6
Continuous
 62
     7
370
    25
100
AcDbCircle
 10
115.0641445853
 20
121.6791262456
 30
0.0
 40
1.400000000000094
100
AcDbArc
 50
359.3462885477
 51
0.0
  0
ARC
  5
DC
330
1F
100
AcDbEntity
  8
0
  6
Continuous
 62
     7
370
    25
100
AcDbCircle
 10
115.0641445853
 20
121.6791262456
 30
0.0
 40
1.400000000000094
100
AcDbArc
 50
180.0
 51
359.3462885477
  0
ARC
  5
DD
330
1F
100
AcDbEntity
  8
0
  6
Continuous
 62
     7
370
    25
100
AcDbCircle
 10
115.0641445853
 20
121.6791262456
 30
0.0
 40
1.400000000000108
100
AcDbArc
 50
179.3462885477
 51
180.0
  0
ARC
  5
DE
330
1F
100
AcDbEntity
  8
0
  6
Continuous
 62
     7
370
    25
100
AcDbCircle
 10
115.0641445853
 20
121.6791262456
 30
0.0
 40
1.400000000000108
100
AcDbArc
 50
0.0
 51
179.3462885477
  0
LINE
  5
DF
330
1F
100
AcDbEntity
  8
0
  6
Continuous
 62
     7
370
    25
100
AcDbLine
 10
116.5347595398
 20
121.6623466579
 30
0.0
 11
116.464053464
 21
121.663153408
 31
0.0
  0
ARC
  5
E0
330
1F
100
AcDbEntity
  8
0
  6
Continuous
 62
     7
370
    25
100
AcDbCircle
 10
115.0641445853
 20
121.6791262456
 30
0.0
 40
1.47071067811841
100
AcDbArc
 50
179.3462885477
 51
359.3462885477
  0
LINE
  5
E1
330
1F
100
AcDbEntity
  8
0
  6
Continuous
 62
     7
370
    25
100
AcDbLine
 10
113.5935296309
 20
121.6959058332
 30
0.0
 11
113.6642357067
 21
121.6950990831
 31
0.0
  0
ARC
  5
E2
330
1F
100
AcDbEntity
  8
0
  6
Continuous
 62
     7
370
    25
100
AcDbCircle
 10
115.0641445853
 20
121.6791262456
 30
0.0
 40
1.47071067811841
100
AcDbArc
 50
359.3462885477
 51
179.3462885477
  0
ARC
  5
E3
330
1F
100
AcDbEntity
  8
0
  6
Continuous
 62
     7
370
    25
100
AcDbCircle
 10
115.0641445853
 20
121.6791262456
 30
0.0
 40
1.500000000000014
100
AcDbArc
 50
180.0
 51
359.3462885477
  0
ARC
  5
E4
330
1F
100
AcDbEntity
  8
0
  6
Continuous
 62
     7
370
    25
100
AcDbCircle
 10
115.0641445853
 20
121.6791262456
 30
0.0
 40
1.500000000000014
100
AcDbArc
 50
179.3462885477
 51
180.0
  0
LINE
  5
E5
330
1F
100
AcDbEntity
  8
0
  6
Continuous
 62
     7
370
    25
100
AcDbLine
 10
113.5642422154
 20
121.6962400001
 30
0.0
 11
113.5935296309
 21
121.6959058332
 31
0.0
  0
LINE
  5
E6
330
1F
100
AcDbEntity
  8
0
  6
Continuous
 62
     7
370
    25
100
AcDbLine
 10
116.5640469553
 20
121.6620124911
 30
0.0
 11
116.5347595398
 21
121.6623466579
 31
0.0
  0
ARC
  5
E7
330
1F
100
AcDbEntity
  8
0
  6
Continuous
 62
     7
370
    25
100
AcDbCircle
 10
115.0641445853
 20
121.6791262456
 30
0.0
 40
1.5
100
AcDbArc
 50
359.3462885477
 51
0.0
  0
ARC
  5
E8
330
1F
100
AcDbEntity
  8
0
  6
Continuous
 62
     7
370
    25
100
AcDbCircle
 10
115.0641445853
 20
121.6791262456
 30
0.0
 40
1.5
100
AcDbArc
 50
0.0
 51
179.3462885477
  0
LINE
  5
E9
330
1F
100
AcDbEntity
  8
0
  6
Continuous
 62
     7
370
    25
100
AcDbLine
 10
118.2141445853
 20
118.5291262456
 30
0.0
 11
111.9141445853
 21
118.5291262456
 31
0.0
  0
LINE
  5
EA
330
1F
100
AcDbEntity
  8
0
  6
Continuous
 62
     7
370
    25
100
AcDbLine
 10
111.9141445853
 20
118.5291262456
 30
0.0
 11
111.9141445853
 21
124.8291262456
 31
0.0
  0
LINE
  5
EB
330
1F
100
AcDbEntity
  8
0
  6
Continuous
 62
     7
370
    25
100
AcDbLine
 10
111.9141445853
 20
124.8291262456
 30
0.0
 11
118.2141445853
 21
124.8291262456
 31
0.0
  0
LINE
  5
EC
330
1F
100
AcDbEntity
  8
0
  6
Continuous
 62
     7
370
    25
100
AcDbLine
 10
118.2141445853
 20
124.8291262456
 30
0.0
 11
118.2141445853
 21
118.5291262456
 31
0.0
  0
ARC
  5
ED
330
1F
100
AcDbEntity
  8
0
  6
Continuous
 62
     7
370
    25
100
AcDbCircle
 10
115.0641445853
 20
121.6791262456
 30
0.0
 40
1.600000000000009
100
AcDbArc
 50
180.0
 51
0.0
  0
ARC
  5
EE
330
1F
100
AcDbEntity
  8
0
  6
Continuous
 62
     7
370
    25
100
AcDbCircle
 10
115.0641445853
 20
121.6791262456
 30
0.0
 40
1.600000000000009
100
AcDbArc
 50
0.0
 51
180.0
  0
LINE
  5
EF
330
1F
100
AcDbEntity
  8
0
  6
Continuous
 62
     7
370
    25
100
AcDbLine
 10
111.9141445853
 20
124.8291262456
 30
0.0
 11
111.9141445853
 21
124.8791262456
 31
0.0
  0
LINE
  5
F0
330
1F
100
AcDbEntity
  8
0
  6
Continuous
 62
     7
370
    25
100
AcDbLine
 10
118.2141445853
 20
124.8791262456
 30
0.0
 11
111.9141445853
 21
124.8791262456
 31
0.0
  0
LINE
  5
F1
330
1F
100
AcDbEntity
  8
0
  6
Continuous
 62
     7
370
    25
100
AcDbLine
 10
118.2141445853
 20
124.8791262456
 30
0.0
 11
118.2141445853
 21
124.8291262456
 31
0.0
  0
LINE
  5
F2
330
1F
100
AcDbEntity
  8
0
  6
Continuous
 62
     7
370
    25
100
AcDbLine
 10
111.9141445853
 20
118.4791262456
 30
0.0
 11
118.2141445853
 21
118.4791262456
 31
0.0
  0
LINE
  5
F3
330
1F
100
AcDbEntity
  8
0
  6
Continuous
 62
     7
370
    25
100
AcDbLine
 10
111.9141445853
 20
118.4791262456
 30
0.0
 11
111.9141445853
 21
118.5291262456
 31
0.0
  0
LINE
  5
F4
330
1F
100
AcDbEntity
  8
0
  6
Continuous
 62
     7
370
    25
100
AcDbLine
 10
118.2141445853
 20
118.5291262456
 30
0.0
 11
118.2141445853
 21
118.4791262456
 31
0.0
  0
LINE
  5
F5
330
1F
100
AcDbEntity
  8
0
  6
Continuous
 62
     7
370
    25
100
AcDbLine
 10
116.3141445853
 20
124.9791262456
 30
0.0
 11
116.3141445853
 21
124.8791262456
 31
0.0
  0
LINE
  5
F6
330
1F
100
AcDbEntity
  8
0
  6
Continuous
 62
     7
370
    25
100
AcDbLine
 10
113.8141445853
 20
124.8791262456
 30
0.0
 11
113.8141445853
 21
124.9791262456
 31
0.0
  0
LINE
  5
F7
330
1F
100
AcDbEntity
  8
0
  6
Continuous
 62
     7
370
    25
100
AcDbLine
 10
116.3141445853
 20
124.9791262456
 30
0.0
 11
113.8141445853
 21
124.9791262456
 31
0.0
  0
LINE
  5
F8
330
1F
100
AcDbEntity
  8
0
  6
Continuous
 62
     7
370
    25
100
AcDbLine
 10
116.3141445853
 20
118.3791262456
 30
0.0
 11
113.8141445853
 21
118.3791262456
 31
0.0
  0
LINE
  5
F9
330
1F
100
AcDbEntity
  8
0
  6
Continuous
 62
     7
370
    25
100
AcDbLine
 10
116.3141445853
 20
118.4791262456
 30
0.0
 11
116.3141445853
 21
118.3791262456
 31
0.0
  0
LINE
  5
FA
330
1F
100
AcDbEntity
  8
0
  6
Continuous
 62
     7
370
    25
100
AcDbLine
 10
113.8141445853
 20
118.3791262456
 30
0.0
 11
113.8141445853
 21
118.4791262456
 31
0.0
  0
LINE
  5
FB
330
1F
100
AcDbEntity
  8
0
  6
Continuous
 62
     7
370
    25
100
AcDbLine
 10
116.3641445853
 20
124.8967589436
 30
0.0
 11
116.3141445853
 21
124.8967589436
 31
0.0
  0
LINE
  5
FC
330
1F
100
AcDbEntity
  8
0
  6
Continuous
 62
     7
370
    25
100
AcDbLine
 10
113.8141445853
 20
124.8967589436
 30
0.0
 11
113.7641445853
 21
124.8967589436
 31
0.0
  0
LINE
  5
FD
330
1F
100
AcDbEntity
  8
0
  6
Continuous
 62
     7
370
    25
100
AcDbLine
 10
117.2141445853
 20
124.984922434
 30
0.0
 11
112.9141445853
 21
124.984922434
 31
0.0
  0
LINE
  5
FE
330
1F
100
AcDbEntity
  8
0
  6
Continuous
 62
     7
370
    25
100
AcDbLine
 10
112.3141445853
 20
124.8791262456
 30
0.0
 11
112.9141445853
 21
124.984922434
 31
0.0
  0
LINE
  5
FF
330
1F
100
AcDbEntity
  8
0
  6
Continuous
 62
     7
370
    25
100
AcDbLine
 10
117.2141445853
 20
124.984922434
 30
0.0
 11
117.8141445853
 21
124.8791262456
 31
0.0
  0
LINE
  5
100
330
1F
100
AcDbEntity
  8
0
  6
Continuous
 62
     7
370
    25
100
AcDbLine
 10
116.3641445853
 20
124.8791262456
 30
0.0
 11
116.3641445853
 21
124.8967589436
 31
0.0
  0
LINE
  5
101
330
1F
100
AcDbEntity
  8
0
  6
Continuous
 62
     7
370
    25
100
AcDbLine
 10
113.7641445853
 20
124.8967589436
 30
0.0
 11
113.7641445853
 21
124.8791262456
 31
0.0
  0
LINE
  5
102
330
1F
100
AcDbEntity
  8
0
  6
Continuous
 62
     7
370
    25
100
AcDbLine
 10
113.8141445853
 20
118.4614935475
 30
0.0
 11
113.7641445853
 21
118.4614935475
 31
0.0
  0
LINE
  5
103
330
1F
100
AcDbEntity
  8
0
  6
Continuous
 62
     7
370
    25
100
AcDbLine
 10
116.3641445853
 20
118.4614935475
 30
0.0
 11
116.3141445853
 21
118.4614935475
 31
0.0
  0
LINE
  5
104
330
1F
100
AcDbEntity
  8
0
  6
Continuous
 62
     7
370
    25
100
AcDbLine
 10
117.2141445853
 20
118.3733300571
 30
0.0
 11
112.9141445853
 21
118.3733300571
 31
0.0
  0
LINE
  5
105
330
1F
100
AcDbEntity
  8
0
  6
Continuous
 62
     7
370
    25
100
AcDbLine
 10
117.8141445853
 20
118.4791262456
 30
0.0
 11
117.2141445853
 21
118.3733300571
 31
0.0
  0
LINE
  5
106
330
1F
100
AcDbEntity
  8
0
  6
Continuous
 62
     7
370
    25
100
AcDbLine
 10
112.9141445853
 20
118.3733300571
 30
0.0
 11
112.3141445853
 21
118.4791262456
 31
0.0
  0
LINE
  5
107
330
1F
100
AcDbEntity
  8
0
  6
Continuous
 62
     7
370
    25
100
AcDbLine
 10
113.7641445853
 20
118.4791262456
 30
0.0
 11
113.7641445853
 21
118.4614935475
 31
0.0
  0
LINE
  5
108
330
1F
100
AcDbEntity
  8
0
  6
Continuous
 62
     7
370
    25
100
AcDbLine
 10
116.3641445853
 20
118.4614935475
 30
0.0
 11
116.3641445853
 21
118.4791262456
 31
0.0
  0
LINE
  5
109
330
1F
100
AcDbEntity
  8
0
  6
Continuous
 62
     7
370
    25
100
AcDbLine
 10
111.7391445853
 20
123.5541262456
 30
0.0
 11
111.9141445853
 21
123.5541262456
 31
0.0
  0
LINE
  5
10A
330
1F
100
AcDbEntity
  8
0
  6
Continuous
 62
     7
370
    25
100
AcDbLine
 10
111.7391445853
 20
123.5541262456
 30
0.0
 11
111.7391445853
 21
124.3041262456
 31
0.0
  0
LINE
  5
10B
330
1F
100
AcDbEntity
  8
0
  6
Continuous
 62
     7
370
    25
100
AcDbLine
 10
111.7391445853
 20
124.3041262456
 30
0.0
 11
111.9141445853
 21
124.3041262456
 31
0.0
  0
LINE
  5
10C
330
1F
100
AcDbEntity
  8
0
  6
Continuous
 62
     7
370
    25
100
AcDbLine
 10
118.3891445853
 20
124.3041262456
 30
0.0
 11
118.3891445853
 21
123.5541262456
 31
0.0
  0
LINE
  5
10D
330
1F
100
AcDbEntity
  8
0
  6
Continuous
 62
     7
370
    25
100
AcDbLine
 10
118.3891445853
 20
124.3041262456
 30
0.0
 11
118.6891445853
 21
124.3041262456
 31
0.0
  0
LINE
  5
10E
330
1F
100
AcDbEntity
  8
0
  6
Continuous
 62
     7
370
    25
100
AcDbLine
 10
118.6891445853
 20
123.5541262456
 30
0.0
 11
118.6891445853
 21
124.3041262456
 31
0.0
  0
LINE
  5
10F
330
1F
100
AcDbEntity
  8
0
  6
Continuous
 62
     7
370
    25
100
AcDbLine
 10
118.6891445853
 20
123.5541262456
 30
0.0
 11
118.3891445853
 21
123.5541262456
 31
0.0
  0
LINE
  5
110
330
1F
100
AcDbEntity
  8
0
  6
Continuous
 62
     7
370
    25
100
AcDbLine
 10
118.2141445853
 20
119.8041262456
 30
0.0
 11
118.3891445853
 21
119.8041262456
 31
0.0
  0
LINE
  5
111
330
1F
100
AcDbEntity
  8
0
  6
Continuous
 62
     7
370
    25
100
AcDbLine
 10
118.3891445853
 20
119.8041262456
 30
0.0
 11
118.3891445853
 21
119.0541262456
 31
0.0
  0
LINE
  5
112
330
1F
100
AcDbEntity
  8
0
  6
Continuous
 62
     7
370
    25
100
AcDbLine
 10
118.2141445853
 20
119.0541262456
 30
0.0
 11
118.3891445853
 21
119.0541262456
 31
0.0
  0
LINE
  5
113
330
1F
100
AcDbEntity
  8
0
  6
Continuous
 62
     7
370
    25
100
AcDbLine
 10
111.4391445853
 20
119.8041262456
 30
0.0
 11
111.4391445853
 21
119.0541262456
 31
0.0
  0
LINE
  5
114
330
1F
100
AcDbEntity
  8
0
  6
Continuous
 62
     7
370
    25
100
AcDbLine
 10
111.7391445853
 20
119.0541262456
 30
0.0
 11
111.7391445853
 21
119.8041262456
 31
0.0
  0
LINE
  5
115
330
1F
100
AcDbEntity
  8
0
  6
Continuous
 62
     7
370
    25
100
AcDbLine
 10
111.7391445853
 20
119.0541262456
 30
0.0
 11
111.4391445853
 21
119.0541262456
 31
0.0
  0
LINE
  5
116
330
1F
100
AcDbEntity
  8
0
  6
Continuous
 62
     7
370
    25
100
AcDbLine
 10
111.4391445853
 20
119.8041262456
 30
0.0
 11
111.7391445853
 21
119.8041262456
 31
0.0
  0
LINE
  5
117
330
1F
100
AcDbEntity
  8
0
  6
Continuous
 62
     7
370
    25
100
AcDbLine
 10
118.6891445853
 20
119.0541262456
 30
0.0
 11
118.6891445853
 21
119.8041262456
 31
0.0
  0
LINE
  5
118
330
1F
100
AcDbEntity
  8
0
  6
Continuous
 62
     7
370
    25
100
AcDbLine
 10
118.3891445853
 20
119.8041262456
 30
0.0
 11
118.6891445853
 21
119.8041262456
 31
0.0
  0
LINE
  5
119
330
1F
100
AcDbEntity
  8
0
  6
Continuous
 62
     7
370
    25
100
AcDbLine
 10
118.6891445853
 20
119.0541262456
 30
0.0
 11
118.3891445853
 21
119.0541262456
 31
0.0
  0
LINE
  5
11A
330
1F
100
AcDbEntity
  8
0
  6
Continuous
 62
     7
370
    25
100
AcDbLine
 10
111.4391445853
 20
124.3041262456
 30
0.0
 11
111.4391445853
 21
123.5541262456
 31
0.0
  0
LINE
  5
11B
330
1F
100
AcDbEntity
  8
0
  6
Continuous
 62
     7
370
    25
100
AcDbLine
 10
111.7391445853
 20
123.5541262456
 30
0.0
 11
111.4391445853
 21
123.5541262456
 31
0.0
  0
LINE
  5
11C
330
1F
100
AcDbEntity
  8
0
  6
Continuous
 62
     7
370
    25
100
AcDbLine
 10
111.4391445853
 20
124.3041262456
 30
0.0
 11
111.7391445853
 21
124.3041262456
 31
0.0
  0
LINE
  5
11D
330
1F
100
AcDbEntity
  8
0
  6
Continuous
 62
     7
370
    25
100
AcDbLine
 10
111.7391445853
 20
119.0541262456
 30
0.0
 11
111.9141445853
 21
119.0541262456
 31
0.0
  0
LINE
  5
11E
330
1F
100
AcDbEntity
  8
0
  6
Continuous
 62
     7
370
    25
100
AcDbLine
 10
111.7391445853
 20
119.8041262456
 30
0.0
 11
111.9141445853
 21
119.8041262456
 31
0.0
  0
LINE
  5
11F
330
1F
100
AcDbEntity
  8
0
  6
Continuous
 62
     7
370
    25
100
AcDbLine
 10
118.2141445853
 20
124.3041262456
 30
0.0
 11
118.3891445853
 21
124.3041262456
 31
0.0
  0
LINE
  5
120
330
1F
100
AcDbEntity
  8
0
  6
Continuous
 62
     7
370
    25
100
AcDbLine
 10
118.2141445853
 20
123.5541262456
 30
0.0
 11
118.3891445853
 21
123.5541262456
 31
0.0
  0
LINE
  5
121
330
1F
100
AcDbEntity
  8
0
  6
Continuous
 62
     7
370
    25
100
AcDbLine
 10
119.2641445853
 20
124.3041262456
 30
0.0
 11
119.2641445853
 21
123.5541262456
 31
0.0
  0
LINE
  5
122
330
1F
100
AcDbEntity
  8
0
  6
Continuous
 62
     7
370
    25
100
AcDbLine
 10
118.6891445853
 20
124.3041262456
 30
0.0
 11
119.2641445853
 21
124.3041262456
 31
0.0
  0
LINE
  5
123
330
1F
100
AcDbEntity
  8
0
  6
Continuous
 62
     7
370
    25
100
AcDbLine
 10
118.6891445853
 20
123.5541262456
 30
0.0
 11
119.2641445853
 21
123.5541262456
 31
0.0
  0
LINE
  5
124
330
1F
100
AcDbEntity
  8
0
  6
Continuous
 62
     7
370
    25
100
AcDbLine
 10
110.8641445853
 20
119.0541262456
 30
0.0
 11
110.8641445853
 21
119.8041262456
 31
0.0
  0
LINE
  5
125
330
1F
100
AcDbEntity
  8
0
  6
Continuous
 62
     7
370
    25
100
AcDbLine
 10
110.8641445853
 20
119.0541262456
 30
0.0
 11
111.4391445853
 21
119.0541262456
 31
0.0
  0
LINE
  5
126
330
1F
100
AcDbEntity
  8
0
  6
Continuous
 62
     7
370
    25
100
AcDbLine
 10
110.8641445853
 20
119.8041262456
 30
0.0
 11
111.4391445853
 21
119.8041262456
 31
0.0
  0
LINE
  5
127
330
1F
100
AcDbEntity
  8
0
  6
Continuous
 62
     7
370
    25
100
AcDbLine
 10
110.8641445853
 20
124.3041262456
 30
0.0
 11
110.8641445853
 21
123.5541262456
 31
0.0
  0
LINE
  5
128
330
1F
100
AcDbEntity
  8
0
  6
Continuous
 62
     7
370
    25
100
AcDbLine
 10
110.8641445853
 20
123.5541262456
 30
0.0
 11
111.4391445853
 21
123.5541262456
 31
0.0
  0
LINE
  5
129
330
1F
100
AcDbEntity
  8
0
  6
Continuous
 62
     7
370
    25
100
AcDbLine
 10
110.8641445853
 20
124.3041262456
 30
0.0
 11
111.4391445853
 21
124.3041262456
 31
0.0
  0
LINE
  5
12A
330
1F
100
AcDbEntity
  8
0
  6
Continuous
 62
     7
370
    25
100
AcDbLine
 10
119.2641445853
 20
119.0541262456
 30
0.0
 11
119.2641445853
 21
119.8041262456
 31
0.0
  0
LINE
  5
12B
330
1F
100
AcDbEntity
  8
0
  6
Continuous
 62
     7
370
    25
100
AcDbLine
 10
118.6891445853
 20
119.8041262456
 30
0.0
 11
119.2641445853
 21
119.8041262456
 31
0.0
  0
LINE
  5
12C
330
1F
100
AcDbEntity
  8
0
  6
Continuous
 62
     7
370
    25
100
AcDbLine
 10
118.6891445853
 20
119.0541262456
 30
0.0
 11
119.2641445853
 21
119.0541262456
 31
0.0
  0
ARC
  5
12D
330
1F
100
AcDbEntity
  8
0
  6
Continuous
 62
     7
370
    25
100
AcDbCircle
 10
123.0641445853
 20
124.6791262456
 30
0.0
 40
1.750000000000014
100
AcDbArc
 50
90.0
 51
270.0
  0
ARC
  5
12E
330
1F
100
AcDbEntity
  8
0
  6
Continuous
 62
     7
370
    25
100
AcDbCircle
 10
123.0641445853
 20
124.6791262456
 30
0.0
 40
1.750000000000014
100
AcDbArc
 50
270.0
 51
90.0
  0
ARC
  5
12F
330
1F
100
AcDbEntity
  8
0
  6
Continuous
 62
     7
370
    25
100
AcDbCircle
 10
128.0641445853
 20
96.6791262456
 30
0.0
 40
1.75
100
AcDbArc
 50
90.0
 51
270.0
  0
ARC
  5
130
330
1F
100
AcDbEntity
  8
0
  6
Continuous
 62
     7
370
    25
100
AcDbCircle
 10
128.0641445853
 20
96.6791262456
 30
0.0
 40
1.75
100
AcDbArc
 50
270.0
 51
90.0
  0
ARC
  5
131
330
1F
100
AcDbEntity
  8
0
  6
Continuous
 62
     7
370
    25
100
AcDbCircle
 10
99.5641445853
 20
109.6791262456
 30
0.0
 40
1.750000000000014
100
AcDbArc
 50
90.0
 51
270.0
  0
ARC
  5
132
330
1F
100
AcDbEntity
  8
0
  6
Continuous
 62
     7
370
    25
100
AcDbCircle
 10
99.5641445853
 20
109.6791262456
 30
0.0
 40
1.750000000000014
100
AcDbArc
 50
270.0
 51
90.0
  0
ARC
  5
133
330
1F
100
AcDbEntity
  8
0
  6
Continuous
 62
     7
370
    25
100
AcDbCircle
 10
132.9391243082
 20
112.6791262456
 30
0.0
 40
0.5000000000016939
100
AcDbArc
 50
270.0
 51
0.9231716456
  0
LINE
  5
134
330
1F
100
AcDbEntity
  8
0
  6
Continuous
 62
     7
370
    25
100
AcDbLine
 10
132.9391243082
 20
112.1791262456
 30
0.0
 11
131.0641445853
 21
112.1791262456
 31
0.0
  0
ARC
  5
135
330
1F
100
AcDbEntity
  8
0
  6
Continuous
 62
     7
370
    25
100
AcDbCircle
 10
131.0641445853
 20
109.6791262456
 30
0.0
 40
2.500000000000014
100
AcDbArc
 50
90.0
 51
270.0
  0
ARC
  5
136
330
1F
100
AcDbEntity
  8
0
  6
Continuous
 62
     7
370
    25
100
AcDbCircle
 10
132.9391251858
 20
106.6791262456
 30
0.0
 40
0.5
100
AcDbArc
 50
359.0769354379
 51
90.0
  0
LWPOLYLINE
  5
137
330
1F
100
AcDbEntity
  8
0
  6
Continuous
 62
     7
370
    25
100
AcDbPolyline
 90
       24
 70
   128
 43
0.0
 10
115.0641413678
 20
91.2816825496
 10
117.3572704756
 20
91.2943206406
 10
119.640833038
 20
91.3383103677
 10
121.9084070042
 20
91.4264144877
 10
124.1471164789
 20
91.5790765713
 10
125.1364125904
 20
91.6769746545
 10
126.1105096797
 20
91.7989326978
 10
127.0624923625
 20
91.9503481881
 10
127.9820534951
 20
92.1385117175
 10
128.8538412856
 20
92.3710699113
 10
129.6532706298
 20
92.6555579896
 10
130.3495408021
 20
92.9958017934
 10
130.8644334243
 20
93.3462566963
 10
131.2895081916
 20
93.7513103905
 10
131.6534490032
 20
94.2385723831
 10
131.971746243
 20
94.8259822143
 10
132.2456575461
 20
95.5038900132
 10
132.5395217609
 20
96.4917561484
 10
132.7697571521
 20
97.5541195712
 10
132.9485556325
 20
98.6629047258
 10
133.1659162163
 20
100.6158913468
 10
133.3051341829
 20
102.6133663701
 10
133.3909849105
 20
104.6350899159
 10
133.4390603
 20
106.6710713361
  0
LWPOLYLINE
  5
138
330
1F
100
AcDbEntity
  8
0
  6
Continuous
 62
     7
370
    25
100
AcDbPolyline
 90
       24
 70
   128
 43
0.0
 10
133.4390594073
 20
112.6871820894
 10
133.3909905643
 20
114.7231352318
 10
133.305141917
 20
116.7448843399
 10
133.1659260872
 20
118.7423520659
 10
132.9485588255
 20
120.6953807448
 10
132.816185139
 20
121.5456740224
 10
132.6555612592
 20
122.3712773027
 10
132.4611564506
 20
123.1632888048
 10
132.2275783223
 20
123.9052893091
 10
131.950493501
 20
124.5774329179
 10
131.6351866435
 20
125.1482422439
 10
131.2755957232
 20
125.6225833563
 10
130.856153471
 20
126.0186240855
 10
130.3495750965
 20
126.3624302791
 10
129.6549402939
 20
126.7020013588
 10
128.8575528583
 20
126.9860358632
 10
127.9879228571
 20
127.218374722
 10
127.0706604965
 20
127.4064195768
 10
126.120994928
 20
127.5578355242
 10
124.1977861784
 20
127.7746862862
 10
122.2304191159
 20
127.9145830383
 10
119.8576382086
 20
128.0136946629
 10
117.4662689084
 20
128.0626297578
 10
115.0641461438
 20
128.0765699415
  0
LINE
  5
139
330
1F
100
AcDbEntity
  8
0
  6
Continuous
 62
     7
370
    25
100
AcDbLine
 10
132.9391251858
 20
107.1791262456
 30
0.0
 11
131.0641445853
 21
107.1791262456
 31
0.0
  0
LWPOLYLINE
  5
13A
330
1F
100
AcDbEntity
  8
0
  6
Continuous
 62
     7
370
    25
100
AcDbPolyline
 90
       26
 70
   128
 43
0.0
 10
96.6667008894
 20
109.6791272609
 10
96.67493897
 20
107.8090299008
 10
96.7027387053
 20
105.9446884145
 10
96.7561772353
 20
104.0889999187
 10
96.8439837018
 20
102.2468490281
 10
96.9792522819
 20
100.4270521331
 10
97.1820340642
 20
98.6464110612
 10
97.326097034
 20
97.7327421797
 10
97.503524169
 20
96.8483733487
 10
97.7210952201
 20
96.0059289151
 10
97.9855509582
 20
95.2265682599
 10
98.301051309
 20
94.5367690977
 10
98.6609133545
 20
93.9692278501
 10
99.0781933499
 20
93.5063612337
 10
99.5827986169
 20
93.1159988538
 10
100.1985492861
 20
92.7773389904
 10
100.9294919566
 20
92.4834448907
 10
101.7381849491
 20
92.2394375112
 10
102.6005059576
 20
92.0395017
 10
103.4981906118
 20
91.8769735743
 10
104.4214513187
 20
91.7448613615
 10
106.2801453439
 20
91.5537075155
 10
108.1751927978
 20
91.4287286735
 10
110.4573603444
 20
91.3391583692
 10
112.7558914538
 20
91.2944954759
 10
115.0641413678
 20
91.2816825496
  0
LWPOLYLINE
  5
13B
330
1F
100
AcDbEntity
  8
0
  6
Continuous
 62
     7
370
    25
100
AcDbPolyline
 90
       26
 70
   128
 43
0.0
 10
115.0641461438
 20
128.0765699415
 10
113.1940486432
 20
128.0683319109
 10
111.3297070173
 20
128.0405322214
 10
109.4740183836
 20
127.9870937309
 10
107.6318673587
 20
127.8992872946
 10
105.8120703362
 20
127.7640187304
 10
104.0314291518
 20
127.5612369415
 10
103.1177602246
 20
127.4171739552
 10
102.2333913601
 20
127.2397467906
 10
101.3909469189
 20
127.0221756959
 10
100.6115862907
 20
126.7577198989
 10
99.9217872014
 20
126.4422194783
 10
99.3542460542
 20
126.0823573537
 10
98.8913795176
 20
125.6650772428
 10
98.5010171769
 20
125.1604717971
 10
98.1623573433
 20
124.5447209244
 10
97.8684632775
 20
123.8137780677
 10
97.6244559296
 20
123.0050849197
 10
97.4245201428
 20
122.1427637825
 10
97.261992034
 20
121.2450790156
 10
97.1298798299
 20
120.3218182077
 10
96.9387259851
 20
118.4631240037
 10
96.8137471285
 20
116.5680763846
 10
96.7241767937
 20
114.2859086497
 10
96.679513861
 20
111.9873773566
 10
96.6667008894
 20
109.6791272609
  0
LINE
  5
13C
330
1F
100
AcDbEntity
  8
0
  6
HIDDEN
 62
     7
370
    18
100
AcDbLine
 10
116.9210326303
 20
110.0855262456
 30
0.0
 11
116.9210326303
 21
111.6603262456
 31
0.0
  0
LINE
  5
13D
330
1F
100
AcDbEntity
  8
0
  6
HIDDEN
 62
     7
370
    18
100
AcDbLine
 10
116.9210326303
 20
110.0855262456
 30
0.0
 11
116.8421445853
 21
110.0855262456
 31
0.0
  0
LINE
  5
13E
330
1F
100
AcDbEntity
  8
0
  6
HIDDEN
 62
     7
370
    18
100
AcDbLine
 10
116.8421445853
 20
111.6603262456
 30
0.0
 11
116.8421445853
 21
110.0855262456
 31
0.0
  0
LINE
  5
13F
330
1F
100
AcDbEntity
  8
0
  6
HIDDEN
 62
     7
370
    18
100
AcDbLine
 10
116.8421445853
 20
111.6603262456
 30
0.0
 11
116.9210326303
 21
111.6603262456
 31
0.0
  0
LINE
  5
140
330
1F
100
AcDbEntity
  8
0
  6
HIDDEN
 62
     7
370
    18
100
AcDbLine
 10
113.2072565404
 20
109.2727262456
 30
0.0
 11
113.2072565404
 21
107.6979262456
 31
0.0
  0
LINE
  5
141
330
1F
100
AcDbEntity
  8
0
  6
HIDDEN
 62
     7
370
    18
100
AcDbLine
 10
113.2861445853
 20
107.6979262456
 30
0.0
 11
113.2861445853
 21
109.2727262456
 31
0.0
  0
LINE
  5
142
330
1F
100
AcDbEntity
  8
0
  6
HIDDEN
 62
     7
370
    18
100
AcDbLine
 10
113.2861445853
 20
107.6979262456
 30
0.0
 11
113.2072565404
 21
107.6979262456
 31
0.0
  0
LINE
  5
143
330
1F
100
AcDbEntity
  8
0
  6
HIDDEN
 62
     7
370
    18
100
AcDbLine
 10
113.2072565404
 20
109.2727262456
 30
0.0
 11
113.2861445853
 21
109.2727262456
 31
0.0
  0
LINE
  5
144
330
1F
100
AcDbEntity
  8
0
  6
HIDDEN
 62
     7
370
    18
100
AcDbLine
 10
113.2072565404
 20
111.6603262456
 30
0.0
 11
113.2861445853
 21
111.6603262456
 31
0.0
  0
LINE
  5
145
330
1F
100
AcDbEntity
  8
0
  6
HIDDEN
 62
     7
370
    18
100
AcDbLine
 10
113.2861445853
 20
110.0855262456
 30
0.0
 11
113.2861445853
 21
111.6603262456
 31
0.0
  0
LINE
  5
146
330
1F
100
AcDbEntity
  8
0
  6
HIDDEN
 62
     7
370
    18
100
AcDbLine
 10
113.2861445853
 20
110.0855262456
 30
0.0
 11
113.2072565404
 21
110.0855262456
 31
0.0
  0
LINE
  5
147
330
1F
100
AcDbEntity
  8
0
  6
HIDDEN
 62
     7
370
    18
100
AcDbLine
 10
113.2072565404
 20
111.6603262456
 30
0.0
 11
113.2072565404
 21
110.0855262456
 31
0.0
  0
LINE
  5
148
330
1F
100
AcDbEntity
  8
0
  6
HIDDEN
 62
     7
370
    18
100
AcDbLine
 10
116.8421445853
 20
109.2727262456
 30
0.0
 11
116.8421445853
 21
107.6979262456
 31
0.0
  0
LINE
  5
149
330
1F
100
AcDbEntity
  8
0
  6
HIDDEN
 62
     7
370
    18
100
AcDbLine
 10
116.8421445853
 20
109.2727262456
 30
0.0
 11
116.9210326303
 21
109.2727262456
 31
0.0
  0
LINE
  5
14A
330
1F
100
AcDbEntity
  8
0
  6
HIDDEN
 62
     7
370
    18
100
AcDbLine
 10
116.9210326303
 20
107.6979262456
 30
0.0
 11
116.9210326303
 21
109.2727262456
 31
0.0
  0
LINE
  5
14B
330
1F
100
AcDbEntity
  8
0
  6
HIDDEN
 62
     7
370
    18
100
AcDbLine
 10
116.9210326303
 20
107.6979262456
 30
0.0
 11
116.8421445853
 21
107.6979262456
 31
0.0
  0
LINE
  5
14C
330
1F
100
AcDbEntity
  8
0
  6
HIDDEN
 62
     7
370
    18
100
AcDbLine
 10
113.2861445853
 20
107.6979262456
 30
0.0
 11
116.8421445853
 21
107.6979262456
 31
0.0
  0
LINE
  5
14D
330
1F
100
AcDbEntity
  8
0
  6
HIDDEN
 62
     7
370
    18
100
AcDbLine
 10
113.2861445853
 20
110.0855262456
 30
0.0
 11
113.2861445853
 21
109.2727262456
 31
0.0
  0
LINE
  5
14E
330
1F
100
AcDbEntity
  8
0
  6
HIDDEN
 62
     7
370
    18
100
AcDbLine
 10
113.2861445853
 20
111.6603262456
 30
0.0
 11
116.8421445853
 21
111.6603262456
 31
0.0
  0
LINE
  5
14F
330
1F
100
AcDbEntity
  8
0
  6
HIDDEN
 62
     7
370
    18
100
AcDbLine
 10
116.8421445853
 20
109.2727262456
 30
0.0
 11
116.8421445853
 21
110.0855262456
 31
0.0
  0
ARC
  5
150
330
1F
100
AcDbEntity
  8
0
  6
HIDDEN
 62
     7
370
    18
100
AcDbCircle
 10
110.9214622191
 20
108.4853262456
 30
0.0
 40
0.7876655127154472
100
AcDbArc
 50
91.4877212881
 51
268.5122787119
  0
LINE
  5
151
330
1F
100
AcDbEntity
  8
0
  6
HIDDEN
 62
     7
370
    18
100
AcDbLine
 10
113.2072565404
 20
109.2727262456
 30
0.0
 11
110.9010122821
 21
109.2727262456
 31
0.0
  0
LINE
  5
152
330
1F
100
AcDbEntity
  8
0
  6
HIDDEN
 62
     7
370
    18
100
AcDbLine
 10
113.2072565404
 20
107.6979262456
 30
0.0
 11
110.9010122821
 21
107.6979262456
 31
0.0
  0
ARC
  5
153
330
1F
100
AcDbEntity
  8
0
  6
HIDDEN
 62
     7
370
    18
100
AcDbCircle
 10
110.8924114273
 20
108.5005138319
 30
0.0
 40
0.5444834208956805
100
AcDbArc
 50
358.4016088499
 51
181.5983911501
  0
ARC
  5
154
330
1F
100
AcDbEntity
  8
0
  6
HIDDEN
 62
     7
370
    18
100
AcDbCircle
 10
110.8924114273
 20
108.4701386592
 30
0.0
 40
0.5444834208955948
100
AcDbArc
 50
178.4016088502
 51
1.5983911498
  0
ARC
  5
155
330
1F
100
AcDbEntity
  8
0
  6
HIDDEN
 62
     7
370
    18
100
AcDbCircle
 10
119.2068269516
 20
110.8729262456
 30
0.0
 40
0.7876655127154609
100
AcDbArc
 50
271.4877212881
 51
88.5122787119
  0
LINE
  5
156
330
1F
100
AcDbEntity
  8
0
  6
HIDDEN
 62
     7
370
    18
100
AcDbLine
 10
116.9210326303
 20
110.0855262456
 30
0.0
 11
119.2272768885
 21
110.0855262456
 31
0.0
  0
LINE
  5
157
330
1F
100
AcDbEntity
  8
0
  6
HIDDEN
 62
     7
370
    18
100
AcDbLine
 10
116.9210326303
 20
111.6603262456
 30
0.0
 11
119.2272768885
 21
111.6603262456
 31
0.0
  0
ARC
  5
158
330
1F
100
AcDbEntity
  8
0
  6
HIDDEN
 62
     7
370
    18
100
AcDbCircle
 10
119.2358777433
 20
110.8577386592
 30
0.0
 40
0.5444834208956666
100
AcDbArc
 50
178.4016088499
 51
1.5983911501
  0
ARC
  5
159
330
1F
100
AcDbEntity
  8
0
  6
HIDDEN
 62
     7
370
    18
100
AcDbCircle
 10
119.2358777433
 20
110.8881138319
 30
0.0
 40
0.5444834208955802
100
AcDbArc
 50
358.4016088502
 51
181.5983911498
  0
LINE
  5
15A
330
1F
100
AcDbEntity
  8
0
  6
HIDDEN
 62
     7
370
    18
100
AcDbLine
 10
119.2272768885
 20
107.6979262456
 30
0.0
 11
116.9210326303
 21
107.6979262456
 31
0.0
  0
LINE
  5
15B
330
1F
100
AcDbEntity
  8
0
  6
HIDDEN
 62
     7
370
    18
100
AcDbLine
 10
116.9210326303
 20
109.2727262456
 30
0.0
 11
119.2272768885
 21
109.2727262456
 31
0.0
  0
ARC
  5
15C
330
1F
100
AcDbEntity
  8
0
  6
HIDDEN
 62
     7
370
    18
100
AcDbCircle
 10
119.2068269516
 20
108.4853262456
 30
0.0
 40
0.7876655127154467
100
AcDbArc
 50
271.4877212881
 51
88.5122787119
  0
ARC
  5
15D
330
1F
100
AcDbEntity
  8
0
  6
HIDDEN
 62
     7
370
    18
100
AcDbCircle
 10
119.2358777433
 20
108.5005138319
 30
0.0
 40
0.544483420895579
100
AcDbArc
 50
358.4016088502
 51
181.5983911498
  0
ARC
  5
15E
330
1F
100
AcDbEntity
  8
0
  6
HIDDEN
 62
     7
370
    18
100
AcDbCircle
 10
119.2358777433
 20
108.4701386592
 30
0.0
 40
0.544483420895667
100
AcDbArc
 50
178.4016088499
 51
1.5983911501
  0
LINE
  5
15F
330
1F
100
AcDbEntity
  8
0
  6
HIDDEN
 62
     7
370
    18
100
AcDbLine
 10
110.9010122821
 20
111.6603262456
 30
0.0
 11
113.2072565404
 21
111.6603262456
 31
0.0
  0
ARC
  5
160
330
1F
100
AcDbEntity
  8
0
  6
HIDDEN
 62
     7
370
    18
100
AcDbCircle
 10
110.9214622191
 20
110.8729262456
 30
0.0
 40
0.7876655127154606
100
AcDbArc
 50
91.4877212881
 51
268.5122787119
  0
ARC
  5
161
330
1F
100
AcDbEntity
  8
0
  6
HIDDEN
 62
     7
370
    18
100
AcDbCircle
 10
110.8924114273
 20
110.8577386592
 30
0.0
 40
0.5444834208955941
100
AcDbArc
 50
178.4016088502
 51
1.5983911498
  0
ARC
  5
162
330
1F
100
AcDbEntity
  8
0
  6
HIDDEN
 62
     7
370
    18
100
AcDbCircle
 10
110.8924114273
 20
110.8881138319
 30
0.0
 40
0.5444834208956812
100
AcDbArc
 50
358.4016088499
 51
181.5983911501
  0
LINE
  5
163
330
1F
100
AcDbEntity
  8
0
  6
HIDDEN
 62
     7
370
    18
100
AcDbLine
 10
113.2072565404
 20
110.0855262456
 30
0.0
 11
110.9010122821
 21
110.0855262456
 31
0.0
  0
LINE
  5
164
330
1F
100
AcDbEntity
  8
0
  6
HIDDEN
 62
     7
370
    18
100
AcDbLine
 10
116.8815886078
 20
109.2727262456
 30
0.0
 11
116.8815886078
 21
107.6979262456
 31
0.0
  0
LINE
  5
165
330
1F
100
AcDbEntity
  8
0
  6
HIDDEN
 62
     7
370
    18
100
AcDbLine
 10
113.2467005629
 20
110.0855262456
 30
0.0
 11
113.2467005629
 21
111.6603262456
 31
0.0
  0
LINE
  5
166
330
1F
100
AcDbEntity
  8
0
  6
HIDDEN
 62
     7
370
    18
100
AcDbLine
 10
113.2467005629
 20
107.6979262456
 30
0.0
 11
113.2467005629
 21
109.2727262456
 31
0.0
  0
LINE
  5
167
330
1F
100
AcDbEntity
  8
0
  6
HIDDEN
 62
     7
370
    18
100
AcDbLine
 10
116.8815886078
 20
111.6603262456
 30
0.0
 11
116.8815886078
 21
110.0855262456
 31
0.0
  0
LINE
  5
168
330
1F
100
AcDbEntity
  8
0
  6
HIDDEN
 62
     7
370
    18
100
AcDbLine
 10
118.8556685081
 20
108.4853262456
 30
0.0
 11
118.6916061816
 21
108.4853262456
 31
0.0
  0
ARC
  5
169
330
1F
100
AcDbEntity
  8
0
  6
HIDDEN
 62
     7
370
    18
100
AcDbCircle
 10
119.2201690322
 20
108.4791181164
 30
0.0
 40
0.3645533883492854
100
AcDbArc
 50
179.0242395005
 51
268.9898148908
  0
ARC
  5
16A
330
1F
100
AcDbEntity
  8
0
  6
HIDDEN
 62
     7
370
    18
100
AcDbCircle
 10
119.2073147756
 20
108.4791181164
 30
0.0
 40
0.3645533883494853
100
AcDbArc
 50
271.0101851092
 51
0.9757604995
  0
LINE
  5
16B
330
1F
100
AcDbEntity
  8
0
  6
HIDDEN
 62
     7
370
    18
100
AcDbLine
 10
119.5718152998
 20
108.4853262456
 30
0.0
 11
119.780149305
 21
108.4853262456
 31
0.0
  0
LINE
  5
16C
330
1F
100
AcDbEntity
  8
0
  6
HIDDEN
 62
     7
370
    18
100
AcDbLine
 10
110.5564738709
 20
110.8729262456
 30
0.0
 11
110.3481398657
 21
110.8729262456
 31
0.0
  0
ARC
  5
16D
330
1F
100
AcDbEntity
  8
0
  6
HIDDEN
 62
     7
370
    18
100
AcDbCircle
 10
110.920974395
 20
110.8667181164
 30
0.0
 40
0.364553388349173
100
AcDbArc
 50
179.0242395005
 51
268.9898148908
  0
ARC
  5
16E
330
1F
100
AcDbEntity
  8
0
  6
HIDDEN
 62
     7
370
    18
100
AcDbCircle
 10
110.9081201384
 20
110.8667181164
 30
0.0
 40
0.3645533883494808
100
AcDbArc
 50
271.0101851092
 51
0.9757604995
  0
LINE
  5
16F
330
1F
100
AcDbEntity
  8
0
  6
HIDDEN
 62
     7
370
    18
100
AcDbLine
 10
111.2726206626
 20
110.8729262456
 30
0.0
 11
111.436682989
 21
110.8729262456
 31
0.0
  0
LINE
  5
170
330
1F
100
AcDbEntity
  8
0
  6
HIDDEN
 62
     7
370
    18
100
AcDbLine
 10
119.5718152998
 20
110.8729262456
 30
0.0
 11
119.780149305
 21
110.8729262456
 31
0.0
  0
ARC
  5
171
330
1F
100
AcDbEntity
  8
0
  6
HIDDEN
 62
     7
370
    18
100
AcDbCircle
 10
119.2073147756
 20
110.8791343748
 30
0.0
 40
0.3645533883491875
100
AcDbArc
 50
359.0242395005
 51
88.9898148908
  0
ARC
  5
172
330
1F
100
AcDbEntity
  8
0
  6
HIDDEN
 62
     7
370
    18
100
AcDbCircle
 10
119.2201690322
 20
110.8791343748
 30
0.0
 40
0.3645533883494567
100
AcDbArc
 50
91.0101851092
 51
180.9757604995
  0
LINE
  5
173
330
1F
100
AcDbEntity
  8
0
  6
HIDDEN
 62
     7
370
    18
100
AcDbLine
 10
118.8556685081
 20
110.8729262456
 30
0.0
 11
118.6916061816
 21
110.8729262456
 31
0.0
  0
ARC
  5
174
330
1F
100
AcDbEntity
  8
0
  6
HIDDEN
 62
     7
370
    18
100
AcDbCircle
 10
119.2201690322
 20
110.8667181164
 30
0.0
 40
0.3645533883492832
100
AcDbArc
 50
179.0242395005
 51
268.9898148908
  0
ARC
  5
175
330
1F
100
AcDbEntity
  8
0
  6
HIDDEN
 62
     7
370
    18
100
AcDbCircle
 10
119.2073147756
 20
110.8667181164
 30
0.0
 40
0.364553388349495
100
AcDbArc
 50
271.0101851092
 51
0.9757604995
  0
ARC
  5
176
330
1F
100
AcDbEntity
  8
0
  6
HIDDEN
 62
     7
370
    18
100
AcDbCircle
 10
110.9081201384
 20
110.8791343748
 30
0.0
 40
0.3645533883492829
100
AcDbArc
 50
359.0242395005
 51
88.9898148908
  0
ARC
  5
177
330
1F
100
AcDbEntity
  8
0
  6
HIDDEN
 62
     7
370
    18
100
AcDbCircle
 10
110.920974395
 20
110.8791343748
 30
0.0
 40
0.3645533883494955
100
AcDbArc
 50
91.0101851092
 51
180.9757604995
  0
LINE
  5
178
330
1F
100
AcDbEntity
  8
0
  6
HIDDEN
 62
     7
370
    18
100
AcDbLine
 10
111.2726206626
 20
108.4853262456
 30
0.0
 11
111.436682989
 21
108.4853262456
 31
0.0
  0
ARC
  5
179
330
1F
100
AcDbEntity
  8
0
  6
HIDDEN
 62
     7
370
    18
100
AcDbCircle
 10
110.9081201384
 20
108.4915343748
 30
0.0
 40
0.364553388349285
100
AcDbArc
 50
359.0242395005
 51
88.9898148908
  0
ARC
  5
17A
330
1F
100
AcDbEntity
  8
0
  6
HIDDEN
 62
     7
370
    18
100
AcDbCircle
 10
110.920974395
 20
108.4915343748
 30
0.0
 40
0.364553388349509
100
AcDbArc
 50
91.0101851092
 51
180.9757604995
  0
LINE
  5
17B
330
1F
100
AcDbEntity
  8
0
  6
HIDDEN
 62
     7
370
    18
100
AcDbLine
 10
110.5564738709
 20
108.4853262456
 30
0.0
 11
110.3481398657
 21
108.4853262456
 31
0.0
  0
ARC
  5
17C
330
1F
100
AcDbEntity
  8
0
  6
HIDDEN
 62
     7
370
    18
100
AcDbCircle
 10
110.920974395
 20
108.4791181164
 30
0.0
 40
0.3645533883492017
100
AcDbArc
 50
179.0242395005
 51
268.9898148908
  0
ARC
  5
17D
330
1F
100
AcDbEntity
  8
0
  6
HIDDEN
 62
     7
370
    18
100
AcDbCircle
 10
110.9081201384
 20
108.4791181164
 30
0.0
 40
0.3645533883494856
100
AcDbArc
 50
271.0101851092
 51
0.9757604995
  0
ARC
  5
17E
330
1F
100
AcDbEntity
  8
0
  6
HIDDEN
 62
     7
370
    18
100
AcDbCircle
 10
119.2073147756
 20
108.4915343748
 30
0.0
 40
0.3645533883492012
100
AcDbArc
 50
359.0242395005
 51
88.9898148908
  0
ARC
  5
17F
330
1F
100
AcDbEntity
  8
0
  6
HIDDEN
 62
     7
370
    18
100
AcDbCircle
 10
119.2201690322
 20
108.4915343748
 30
0.0
 40
0.3645533883494853
100
AcDbArc
 50
91.0101851092
 51
180.9757604995
  0
ARC
  5
180
330
1F
100
AcDbEntity
  8
0
  6
HIDDEN
 62
     7
370
    18
100
AcDbCircle
 10
120.5983725459
 20
110.8490183972
 30
0.0
 40
1.427399796969657
100
AcDbArc
 50
179.0402949025
 51
194.0611406592
  0
ARC
  5
181
330
1F
100
AcDbEntity
  8
0
  6
HIDDEN
 62
     7
370
    18
100
AcDbCircle
 10
120.5983725459
 20
110.8968340939
 30
0.0
 40
1.427399796969657
100
AcDbArc
 50
165.9388593408
 51
180.9597050975
  0
ARC
  5
182
330
1F
100
AcDbEntity
  8
0
  6
HIDDEN
 62
     7
370
    18
100
AcDbCircle
 10
120.5983725459
 20
108.4614183972
 30
0.0
 40
1.427399796969757
100
AcDbArc
 50
179.0402949025
 51
194.0611406592
  0
ARC
  5
183
330
1F
100
AcDbEntity
  8
0
  6
HIDDEN
 62
     7
370
    18
100
AcDbCircle
 10
120.5983725459
 20
108.5092340939
 30
0.0
 40
1.42739979696987
100
AcDbArc
 50
165.9388593408
 51
180.9597050975
  0
ARC
  5
184
330
1F
100
AcDbEntity
  8
0
  6
HIDDEN
 62
     7
370
    18
100
AcDbCircle
 10
109.5299166247
 20
110.8968340939
 30
0.0
 40
1.427399796969643
100
AcDbArc
 50
359.0402949025
 51
14.0611406592
  0
ARC
  5
185
330
1F
100
AcDbEntity
  8
0
  6
HIDDEN
 62
     7
370
    18
100
AcDbCircle
 10
109.5299166247
 20
110.8490183972
 30
0.0
 40
1.427399796969643
100
AcDbArc
 50
345.9388593408
 51
0.9597050975
  0
ARC
  5
186
330
1F
100
AcDbEntity
  8
0
  6
HIDDEN
 62
     7
370
    18
100
AcDbCircle
 10
109.5299166247
 20
108.5092340939
 30
0.0
 40
1.427399796969856
100
AcDbArc
 50
359.0402949025
 51
14.0611406592
  0
ARC
  5
187
330
1F
100
AcDbEntity
  8
0
  6
HIDDEN
 62
     7
370
    18
100
AcDbCircle
 10
109.5299166247
 20
108.4614183972
 30
0.0
 40
1.427399796969743
100
AcDbArc
 50
345.9388593408
 51
0.9597050975
  0
ARC
  5
188
330
1F
100
AcDbEntity
  8
0
  6
HIDDEN
 62
     7
370
    18
100
AcDbCircle
 10
119.1673829291
 20
110.8729262456
 30
0.0
 40
0.7876655127154614
100
AcDbArc
 50
271.4877212881
 51
88.5122787119
  0
ARC
  5
189
330
1F
100
AcDbEntity
  8
0
  6
HIDDEN
 62
     7
370
    18
100
AcDbCircle
 10
119.1673829291
 20
108.4853262456
 30
0.0
 40
0.7876655127154467
100
AcDbArc
 50
271.4877212881
 51
88.5122787119
  0
ARC
  5
18A
330
1F
100
AcDbEntity
  8
0
  6
HIDDEN
 62
     7
370
    18
100
AcDbCircle
 10
110.9609062416
 20
110.8729262456
 30
0.0
 40
0.7876655127154617
100
AcDbArc
 50
91.4877212881
 51
268.5122787119
  0
ARC
  5
18B
330
1F
100
AcDbEntity
  8
0
  6
HIDDEN
 62
     7
370
    18
100
AcDbCircle
 10
110.9609062416
 20
108.4853262456
 30
0.0
 40
0.7876655127154467
100
AcDbArc
 50
91.4877212881
 51
268.5122787119
  0
ARC
  5
18C
330
1F
100
AcDbEntity
  8
0
  6
HIDDEN
 62
     7
370
    18
100
AcDbCircle
 10
119.1964337208
 20
110.8881138319
 30
0.0
 40
0.5444834208956658
100
AcDbArc
 50
358.4016088499
 51
181.5983911501
  0
ARC
  5
18D
330
1F
100
AcDbEntity
  8
0
  6
HIDDEN
 62
     7
370
    18
100
AcDbCircle
 10
110.9318554498
 20
108.5005138319
 30
0.0
 40
0.544483420895609
100
AcDbArc
 50
358.4016088502
 51
181.5983911498
  0
ARC
  5
18E
330
1F
100
AcDbEntity
  8
0
  6
HIDDEN
 62
     7
370
    18
100
AcDbCircle
 10
119.1964337208
 20
108.4701386592
 30
0.0
 40
0.5444834208955814
100
AcDbArc
 50
178.4016088502
 51
1.5983911498
  0
LINE
  5
18F
330
1F
100
AcDbEntity
  8
0
  6
HIDDEN
 62
     7
370
    18
100
AcDbLine
 10
118.720058722
 20
110.8729262456
 30
0.0
 11
118.6521621592
 21
110.8729262456
 31
0.0
  0
LINE
  5
190
330
1F
100
AcDbEntity
  8
0
  6
HIDDEN
 62
     7
370
    18
100
AcDbLine
 10
119.6544870557
 20
110.8729262456
 30
0.0
 11
119.7407052825
 21
110.8729262456
 31
0.0
  0
ARC
  5
191
330
1F
100
AcDbEntity
  8
0
  6
HIDDEN
 62
     7
370
    18
100
AcDbCircle
 10
119.1964337208
 20
110.8577386592
 30
0.0
 40
0.544483420895581
100
AcDbArc
 50
178.4016088502
 51
1.5983911498
  0
ARC
  5
192
330
1F
100
AcDbEntity
  8
0
  6
HIDDEN
 62
     7
370
    18
100
AcDbCircle
 10
110.9318554498
 20
110.8577386592
 30
0.0
 40
0.5444834208956933
100
AcDbArc
 50
178.4016088499
 51
1.5983911501
  0
LINE
  5
193
330
1F
100
AcDbEntity
  8
0
  6
HIDDEN
 62
     7
370
    18
100
AcDbLine
 10
110.4738021149
 20
108.4853262456
 30
0.0
 11
110.3875838881
 21
108.4853262456
 31
0.0
  0
LINE
  5
194
330
1F
100
AcDbEntity
  8
0
  6
HIDDEN
 62
     7
370
    18
100
AcDbLine
 10
111.4082304487
 20
108.4853262456
 30
0.0
 11
111.4761270115
 21
108.4853262456
 31
0.0
  0
ARC
  5
195
330
1F
100
AcDbEntity
  8
0
  6
HIDDEN
 62
     7
370
    18
100
AcDbCircle
 10
110.9318554498
 20
108.4701386592
 30
0.0
 40
0.5444834208956938
100
AcDbArc
 50
178.4016088499
 51
1.5983911501
  0
LINE
  5
196
330
1F
100
AcDbEntity
  8
0
  6
HIDDEN
 62
     7
370
    18
100
AcDbLine
 10
119.6544870557
 20
108.4853262456
 30
0.0
 11
119.7407052825
 21
108.4853262456
 31
0.0
  0
LINE
  5
197
330
1F
100
AcDbEntity
  8
0
  6
HIDDEN
 62
     7
370
    18
100
AcDbLine
 10
118.720058722
 20
108.4853262456
 30
0.0
 11
118.6521621592
 21
108.4853262456
 31
0.0
  0
ARC
  5
198
330
1F
100
AcDbEntity
  8
0
  6
HIDDEN
 62
     7
370
    18
100
AcDbCircle
 10
119.1964337208
 20
108.5005138319
 30
0.0
 40
0.5444834208956647
100
AcDbArc
 50
358.4016088499
 51
181.5983911501
  0
LINE
  5
199
330
1F
100
AcDbEntity
  8
0
  6
HIDDEN
 62
     7
370
    18
100
AcDbLine
 10
111.4082304487
 20
110.8729262456
 30
0.0
 11
111.4761270115
 21
110.8729262456
 31
0.0
  0
LINE
  5
19A
330
1F
100
AcDbEntity
  8
0
  6
HIDDEN
 62
     7
370
    18
100
AcDbLine
 10
110.4738021149
 20
110.8729262456
 30
0.0
 11
110.3875838881
 21
110.8729262456
 31
0.0
  0
ARC
  5
19B
330
1F
100
AcDbEntity
  8
0
  6
HIDDEN
 62
     7
370
    18
100
AcDbCircle
 10
110.9318554498
 20
110.8881138319
 30
0.0
 40
0.5444834208956102
100
AcDbArc
 50
358.4016088502
 51
181.5983911498
  0
ARC
  5
19C
330
1F
100
AcDbEntity
  8
0
  6
HIDDEN
 62
     7
370
    18
100
AcDbCircle
 10
119.1956590058
 20
110.8648258786
 30
0.0
 40
0.4756692611192589
100
AcDbArc
 50
179.0242395006
 51
268.9898148907
  0
ARC
  5
19D
330
1F
100
AcDbEntity
  8
0
  6
HIDDEN
 62
     7
370
    18
100
AcDbCircle
 10
119.1956590058
 20
110.8810266125
 30
0.0
 40
0.4756692611175173
100
AcDbArc
 50
91.0101851091
 51
180.9757604996
  0
ARC
  5
19E
330
1F
100
AcDbEntity
  8
0
  6
HIDDEN
 62
     7
370
    18
100
AcDbCircle
 10
119.1956590058
 20
108.4934266125
 30
0.0
 40
0.4756692611174698
100
AcDbArc
 50
91.0101851091
 51
180.9757604996
  0
ARC
  5
19F
330
1F
100
AcDbEntity
  8
0
  6
HIDDEN
 62
     7
370
    18
100
AcDbCircle
 10
119.1956590058
 20
108.4772258786
 30
0.0
 40
0.4756692611192594
100
AcDbArc
 50
179.0242395006
 51
268.9898148907
  0
ARC
  5
1A0
330
1F
100
AcDbEntity
  8
0
  6
HIDDEN
 62
     7
370
    18
100
AcDbCircle
 10
110.9326301648
 20
110.8810266125
 30
0.0
 40
0.4756692611192532
100
AcDbArc
 50
359.0242395006
 51
88.9898148907
  0
ARC
  5
1A1
330
1F
100
AcDbEntity
  8
0
  6
HIDDEN
 62
     7
370
    18
100
AcDbCircle
 10
110.9326301648
 20
110.8648258786
 30
0.0
 40
0.4756692611174979
100
AcDbArc
 50
271.0101851091
 51
0.9757604996
  0
ARC
  5
1A2
330
1F
100
AcDbEntity
  8
0
  6
HIDDEN
 62
     7
370
    18
100
AcDbCircle
 10
110.9326301648
 20
108.4772258786
 30
0.0
 40
0.4756692611174984
100
AcDbArc
 50
271.0101851091
 51
0.9757604996
  0
ARC
  5
1A3
330
1F
100
AcDbEntity
  8
0
  6
HIDDEN
 62
     7
370
    18
100
AcDbCircle
 10
110.9326301648
 20
108.4934266125
 30
0.0
 40
0.4756692611192248
100
AcDbArc
 50
359.0242395006
 51
88.9898148907
  0
ARC
  5
1A4
330
1F
100
AcDbEntity
  8
0
  6
HIDDEN
 62
     7
370
    18
100
AcDbCircle
 10
120.9939389507
 20
108.516521206
 30
0.0
 40
1.862471255292147
100
AcDbArc
 50
165.9388593413
 51
180.9597050963
  0
ARC
  5
1A5
330
1F
100
AcDbEntity
  8
0
  6
HIDDEN
 62
     7
370
    18
100
AcDbCircle
 10
120.9939389507
 20
108.4541312851
 30
0.0
 40
1.862471255291577
100
AcDbArc
 50
179.0402949037
 51
194.0611406587
  0
ARC
  5
1A6
330
1F
100
AcDbEntity
  8
0
  6
HIDDEN
 62
     7
370
    18
100
AcDbCircle
 10
119.1788867719
 20
108.4934266125
 30
0.0
 40
0.4756692611192165
100
AcDbArc
 50
359.0242395006
 51
88.9898148907
  0
ARC
  5
1A7
330
1F
100
AcDbEntity
  8
0
  6
HIDDEN
 62
     7
370
    18
100
AcDbCircle
 10
119.1788867719
 20
108.4772258786
 30
0.0
 40
0.4756692611174306
100
AcDbArc
 50
271.0101851091
 51
0.9757604996
  0
ARC
  5
1A8
330
1F
100
AcDbEntity
  8
0
  6
HIDDEN
 62
     7
370
    18
100
AcDbCircle
 10
120.9939389507
 20
110.904121206
 30
0.0
 40
1.862471255291351
100
AcDbArc
 50
165.9388593413
 51
180.9597050963
  0
ARC
  5
1A9
330
1F
100
AcDbEntity
  8
0
  6
HIDDEN
 62
     7
370
    18
100
AcDbCircle
 10
120.9939389507
 20
110.8417312851
 30
0.0
 40
1.862471255292385
100
AcDbArc
 50
179.0402949037
 51
194.0611406587
  0
ARC
  5
1AA
330
1F
100
AcDbEntity
  8
0
  6
HIDDEN
 62
     7
370
    18
100
AcDbCircle
 10
119.1788867719
 20
110.8648258786
 30
0.0
 40
0.4756692611174014
100
AcDbArc
 50
271.0101851091
 51
0.9757604996
  0
ARC
  5
1AB
330
1F
100
AcDbEntity
  8
0
  6
HIDDEN
 62
     7
370
    18
100
AcDbCircle
 10
119.1788867719
 20
110.8810266125
 30
0.0
 40
0.4756692611192532
100
AcDbArc
 50
359.0242395006
 51
88.9898148907
  0
ARC
  5
1AC
330
1F
100
AcDbEntity
  8
0
  6
HIDDEN
 62
     7
370
    18
100
AcDbCircle
 10
109.1343502199
 20
108.4541312851
 30
0.0
 40
1.862471255291577
100
AcDbArc
 50
345.9388593413
 51
0.9597050963
  0
ARC
  5
1AD
330
1F
100
AcDbEntity
  8
0
  6
HIDDEN
 62
     7
370
    18
100
AcDbCircle
 10
109.1343502199
 20
108.516521206
 30
0.0
 40
1.862471255292144
100
AcDbArc
 50
359.0402949037
 51
14.0611406587
  0
ARC
  5
1AE
330
1F
100
AcDbEntity
  8
0
  6
HIDDEN
 62
     7
370
    18
100
AcDbCircle
 10
110.9494023988
 20
108.4772258786
 30
0.0
 40
0.4756692611192393
100
AcDbArc
 50
179.0242395006
 51
268.9898148907
  0
ARC
  5
1AF
330
1F
100
AcDbEntity
  8
0
  6
HIDDEN
 62
     7
370
    18
100
AcDbCircle
 10
110.9494023988
 20
108.4934266125
 30
0.0
 40
0.4756692611173588
100
AcDbArc
 50
91.0101851091
 51
180.9757604996
  0
ARC
  5
1B0
330
1F
100
AcDbEntity
  8
0
  6
HIDDEN
 62
     7
370
    18
100
AcDbCircle
 10
109.1343502199
 20
110.8417312851
 30
0.0
 40
1.862471255292399
100
AcDbArc
 50
345.9388593413
 51
0.9597050963
  0
ARC
  5
1B1
330
1F
100
AcDbEntity
  8
0
  6
HIDDEN
 62
     7
370
    18
100
AcDbCircle
 10
109.1343502199
 20
110.904121206
 30
0.0
 40
1.862471255291324
100
AcDbArc
 50
359.0402949037
 51
14.0611406587
  0
ARC
  5
1B2
330
1F
100
AcDbEntity
  8
0
  6
HIDDEN
 62
     7
370
    18
100
AcDbCircle
 10
110.9494023988
 20
110.8810266125
 30
0.0
 40
0.4756692611174017
100
AcDbArc
 50
91.0101851091
 51
180.9757604996
  0
ARC
  5
1B3
330
1F
100
AcDbEntity
  8
0
  6
HIDDEN
 62
     7
370
    18
100
AcDbCircle
 10
110.9494023988
 20
110.8648258786
 30
0.0
 40
0.4756692611192251
100
AcDbArc
 50
179.0242395006
 51
268.9898148907
  0
LINE
  5
1B4
330
1F
100
AcDbEntity
  8
0
  6
HIDDEN
 62
     7
370
    18
100
AcDbLine
 10
116.8141445853
 20
123.2791262456
 30
0.0
 11
116.8141445853
 21
122.9791262456
 31
0.0
  0
LINE
  5
1B5
330
1F
100
AcDbEntity
  8
0
  6
HIDDEN
 62
     7
370
    18
100
AcDbLine
 10
113.3141445853
 20
122.9791262456
 30
0.0
 11
116.8141445853
 21
122.9791262456
 31
0.0
  0
LINE
  5
1B6
330
1F
100
AcDbEntity
  8
0
  6
HIDDEN
 62
     7
370
    18
100
AcDbLine
 10
113.3141445853
 20
122.9791262456
 30
0.0
 11
113.3141445853
 21
123.2791262456
 31
0.0
  0
LINE
  5
1B7
330
1F
100
AcDbEntity
  8
0
  6
HIDDEN
 62
     7
370
    18
100
AcDbLine
 10
116.8141445853
 20
123.2791262456
 30
0.0
 11
113.3141445853
 21
123.2791262456
 31
0.0
  0
LINE
  5
1B8
330
1F
100
AcDbEntity
  8
0
  6
HIDDEN
 62
     7
370
    18
100
AcDbLine
 10
116.8141445853
 20
126.4791262456
 30
0.0
 11
113.3141445853
 21
126.4791262456
 31
0.0
  0
LINE
  5
1B9
330
1F
100
AcDbEntity
  8
0
  6
HIDDEN
 62
     7
370
    18
100
AcDbLine
 10
113.3141445853
 20
126.4791262456
 30
0.0
 11
113.3141445853
 21
123.2791262456
 31
0.0
  0
LINE
  5
1BA
330
1F
100
AcDbEntity
  8
0
  6
HIDDEN
 62
     7
370
    18
100
AcDbLine
 10
116.8141445853
 20
123.2791262456
 30
0.0
 11
116.8141445853
 21
126.4791262456
 31
0.0
  0
LINE
  5
1BB
330
1F
100
AcDbEntity
  8
0
  6
HIDDEN
 62
     7
370
    18
100
AcDbLine
 10
116.8141445853
 20
123.1291262456
 30
0.0
 11
113.3141445853
 21
123.1291262456
 31
0.0
  0
LINE
  5
1BC
330
1F
100
AcDbEntity
  8
0
  6
HIDDEN
 62
     7
370
    18
100
AcDbLine
 10
115.5641445853
 20
121.2327481743
 30
0.0
 11
115.5641445853
 21
121.3766046431
 31
0.0
  0
LWPOLYLINE
  5
1BD
330
1F
100
AcDbEntity
  8
0
  6
HIDDEN
 62
     7
370
    18
100
AcDbPolyline
 90
        3
 70
   128
 43
0.0
 10
115.5641445853
 20
121.3766046431
 10
115.5864607975
 20
121.3607926662
 10
115.628899203
 20
121.3561262056
  0
LWPOLYLINE
  5
1BE
330
1F
100
AcDbEntity
  8
0
  6
HIDDEN
 62
     7
370
    18
100
AcDbPolyline
 90
        3
 70
   128
 43
0.0
 10
115.628899203
 20
121.3561262056
 10
115.7544898703
 20
121.3670205377
 10
115.9441445853
 20
121.3906306637
  0
LINE
  5
1BF
330
1F
100
AcDbEntity
  8
0
  6
HIDDEN
 62
     7
370
    18
100
AcDbLine
 10
115.9441445853
 20
121.2509820012
 30
0.0
 11
115.9441445853
 21
121.3906306637
 31
0.0
  0
LWPOLYLINE
  5
1C0
330
1F
100
AcDbEntity
  8
0
  6
HIDDEN
 62
     7
370
    18
100
AcDbPolyline
 90
        3
 70
   128
 43
0.0
 10
115.9441445853
 20
121.2509820012
 10
115.7550447809
 20
121.2203352807
 10
115.6294040244
 20
121.2061262301
  0
LWPOLYLINE
  5
1C1
330
1F
100
AcDbEntity
  8
0
  6
HIDDEN
 62
     7
370
    18
100
AcDbPolyline
 90
        3
 70
   128
 43
0.0
 10
115.6294040244
 20
121.2061262301
 10
115.5865563133
 20
121.21222145
 10
115.5641445853
 20
121.2327481743
  0
LINE
  5
1C2
330
1F
100
AcDbEntity
  8
0
  6
HIDDEN
 62
     7
370
    18
100
AcDbLine
 10
116.4341445853
 20
121.2509820012
 30
0.0
 11
115.9441445853
 21
121.2509820012
 31
0.0
  0
ARC
  5
1C3
330
1F
100
AcDbEntity
  8
0
  6
HIDDEN
 62
     7
370
    18
100
AcDbCircle
 10
116.0331101252
 20
117.4180835641
 30
0.0
 40
3.853821358996012
100
AcDbArc
 50
79.3988202766
 51
84.0269013052
  0
LINE
  5
1C4
330
1F
100
AcDbEntity
  8
0
  6
HIDDEN
 62
     7
370
    18
100
AcDbLine
 10
116.8141445853
 20
121.2327481743
 30
0.0
 11
116.7421037653
 21
121.2061262098
 31
0.0
  0
LINE
  5
1C5
330
1F
100
AcDbEntity
  8
0
  6
HIDDEN
 62
     7
370
    18
100
AcDbLine
 10
115.9441445853
 20
121.3906306637
 30
0.0
 11
116.4341445853
 21
121.3906306637
 31
0.0
  0
LINE
  5
1C6
330
1F
100
AcDbEntity
  8
0
  6
HIDDEN
 62
     7
370
    18
100
AcDbLine
 10
116.4341445853
 20
121.3906306637
 30
0.0
 11
116.4341445853
 21
121.2509820012
 31
0.0
  0
LINE
  5
1C7
330
1F
100
AcDbEntity
  8
0
  6
HIDDEN
 62
     7
370
    18
100
AcDbLine
 10
114.1841445853
 20
121.2509820012
 30
0.0
 11
113.6941445853
 21
121.2509820012
 31
0.0
  0
ARC
  5
1C8
330
1F
100
AcDbEntity
  8
0
  6
HIDDEN
 62
     7
370
    18
100
AcDbCircle
 10
113.7831101252
 20
117.4180835644
 30
0.0
 40
3.853821358720476
100
AcDbArc
 50
79.3988202765
 51
84.0269013054
  0
LINE
  5
1C9
330
1F
100
AcDbEntity
  8
0
  6
HIDDEN
 62
     7
370
    18
100
AcDbLine
 10
114.5641445853
 20
121.2327481743
 30
0.0
 11
114.4921037653
 21
121.2061262098
 31
0.0
  0
LWPOLYLINE
  5
1CA
330
1F
100
AcDbEntity
  8
0
  6
HIDDEN
 62
     7
370
    18
100
AcDbPolyline
 90
        3
 70
   128
 43
0.0
 10
113.3794040244
 20
121.2061262301
 10
113.3365563133
 20
121.21222145
 10
113.3141445853
 20
121.2327481743
  0
LWPOLYLINE
  5
1CB
330
1F
100
AcDbEntity
  8
0
  6
HIDDEN
 62
     7
370
    18
100
AcDbPolyline
 90
        3
 70
   128
 43
0.0
 10
113.6941445853
 20
121.2509820012
 10
113.5050447809
 20
121.2203352807
 10
113.3794040244
 20
121.2061262301
  0
LINE
  5
1CC
330
1F
100
AcDbEntity
  8
0
  6
HIDDEN
 62
     7
370
    18
100
AcDbLine
 10
113.6941445853
 20
121.2509820012
 30
0.0
 11
113.6941445853
 21
121.3906306637
 31
0.0
  0
LINE
  5
1CD
330
1F
100
AcDbEntity
  8
0
  6
HIDDEN
 62
     7
370
    18
100
AcDbLine
 10
113.6941445853
 20
121.3906306637
 30
0.0
 11
114.1841445853
 21
121.3906306637
 31
0.0
  0
LINE
  5
1CE
330
1F
100
AcDbEntity
  8
0
  6
HIDDEN
 62
     7
370
    18
100
AcDbLine
 10
114.1841445853
 20
121.3906306637
 30
0.0
 11
114.1841445853
 21
121.2509820012
 31
0.0
  0
LWPOLYLINE
  5
1CF
330
1F
100
AcDbEntity
  8
0
  6
HIDDEN
 62
     7
370
    18
100
AcDbPolyline
 90
        3
 70
   128
 43
0.0
 10
113.3141445853
 20
121.3766046431
 10
113.3364607975
 20
121.3607926662
 10
113.378899203
 20
121.3561262056
  0
LWPOLYLINE
  5
1D0
330
1F
100
AcDbEntity
  8
0
  6
HIDDEN
 62
     7
370
    18
100
AcDbPolyline
 90
        3
 70
   128
 43
0.0
 10
113.378899203
 20
121.3561262056
 10
113.5044898703
 20
121.3670205377
 10
113.6941445853
 20
121.3906306637
  0
LINE
  5
1D1
330
1F
100
AcDbEntity
  8
0
  6
HIDDEN
 62
     7
370
    18
100
AcDbLine
 10
113.3141445853
 20
121.2327481743
 30
0.0
 11
113.3141445853
 21
121.3766046431
 31
0.0
  0
ARC
  5
1D2
330
1F
100
AcDbEntity
  8
0
  6
HIDDEN
 62
     7
370
    18
100
AcDbCircle
 10
113.7334027483
 20
115.980504377
 30
0.0
 40
5.428870475692511
100
AcDbArc
 50
81.9685714934
 51
85.2374313016
  0
LINE
  5
1D3
330
1F
100
AcDbEntity
  8
0
  6
HIDDEN
 62
     7
370
    18
100
AcDbLine
 10
114.4919042959
 20
121.3561262056
 30
0.0
 11
114.5641445853
 21
121.3766046431
 31
0.0
  0
LINE
  5
1D4
330
1F
100
AcDbEntity
  8
0
  6
HIDDEN
 62
     7
370
    18
100
AcDbLine
 10
114.5641445853
 20
121.3766046431
 30
0.0
 11
114.5641445853
 21
121.2327481743
 31
0.0
  0
ARC
  5
1D5
330
1F
100
AcDbEntity
  8
0
  6
HIDDEN
 62
     7
370
    18
100
AcDbCircle
 10
115.9834027483
 20
115.9805043767
 30
0.0
 40
5.428870476017942
100
AcDbArc
 50
81.9685714935
 51
85.2374313015
  0
LINE
  5
1D6
330
1F
100
AcDbEntity
  8
0
  6
HIDDEN
 62
     7
370
    18
100
AcDbLine
 10
116.7419042959
 20
121.3561262056
 30
0.0
 11
116.8141445853
 21
121.3766046431
 31
0.0
  0
LINE
  5
1D7
330
1F
100
AcDbEntity
  8
0
  6
HIDDEN
 62
     7
370
    18
100
AcDbLine
 10
116.8141445853
 20
121.3766046431
 30
0.0
 11
116.8141445853
 21
121.2327481743
 31
0.0
  0
LINE
  5
1D8
330
1F
100
AcDbEntity
  8
0
  6
HIDDEN
 62
     7
370
    18
100
AcDbLine
 10
115.5641445853
 20
121.3766046431
 30
0.0
 11
115.5641445853
 21
121.3906306637
 31
0.0
  0
LINE
  5
1D9
330
1F
100
AcDbEntity
  8
0
  6
HIDDEN
 62
     7
370
    18
100
AcDbLine
 10
116.8141445853
 20
121.3906306637
 30
0.0
 11
116.8141445853
 21
121.3766046431
 31
0.0
  0
LINE
  5
1DA
330
1F
100
AcDbEntity
  8
0
  6
HIDDEN
 62
     7
370
    18
100
AcDbLine
 10
114.5641445853
 20
121.3906306637
 30
0.0
 11
114.5641445853
 21
121.3766046431
 31
0.0
  0
LINE
  5
1DB
330
1F
100
AcDbEntity
  8
0
  6
HIDDEN
 62
     7
370
    18
100
AcDbLine
 10
113.3141445853
 20
121.3766046431
 30
0.0
 11
113.3141445853
 21
121.3906306637
 31
0.0
  0
LWPOLYLINE
  5
1DC
330
1F
100
AcDbEntity
  8
0
  6
HIDDEN
 62
     7
370
    18
100
AcDbPolyline
 90
       12
 70
   128
 43
0.0
 10
114.5641445853
 20
121.7265679716
 10
114.5843980985
 20
121.7779900681
 10
114.6435178189
 20
121.8252462522
 10
114.7367142184
 20
121.8645081088
 10
114.8564370788
 20
121.8925948759
 10
114.9929871662
 20
121.9072311306
 10
115.1353020045
 20
121.9072311306
 10
115.2718520918
 20
121.8925948759
 10
115.3915749523
 20
121.8645081088
 10
115.4847713517
 20
121.8252462522
 10
115.5438910721
 20
121.7779900681
 10
115.5641445853
 20
121.7265679716
  0
LINE
  5
1DD
330
1F
100
AcDbEntity
  8
0
  6
HIDDEN
 62
     7
370
    18
100
AcDbLine
 10
113.3141445853
 20
122.0136307037
 30
0.0
 11
116.8141445853
 21
122.0136307037
 31
0.0
  0
LINE
  5
1DE
330
1F
100
AcDbEntity
  8
0
  6
HIDDEN
 62
     7
370
    18
100
AcDbLine
 10
115.5641445853
 20
121.3906306637
 30
0.0
 11
115.5641445853
 21
121.7265679716
 31
0.0
  0
LINE
  5
1DF
330
1F
100
AcDbEntity
  8
0
  6
HIDDEN
 62
     7
370
    18
100
AcDbLine
 10
114.5641445853
 20
121.7265679716
 30
0.0
 11
114.5641445853
 21
121.3906306637
 31
0.0
  0
LINE
  5
1E0
330
1F
100
AcDbEntity
  8
0
  6
HIDDEN
 62
     7
370
    18
100
AcDbLine
 10
113.3141445853
 20
121.3906306637
 30
0.0
 11
113.3141445853
 21
122.0136307037
 31
0.0
  0
LINE
  5
1E1
330
1F
100
AcDbEntity
  8
0
  6
HIDDEN
 62
     7
370
    18
100
AcDbLine
 10
116.8141445853
 20
122.0136307037
 30
0.0
 11
116.8141445853
 21
121.3906306637
 31
0.0
  0
LWPOLYLINE
  5
1E2
330
1F
100
AcDbEntity
  8
0
  6
HIDDEN
 62
     7
370
    18
100
AcDbPolyline
 90
       12
 70
   128
 43
0.0
 10
115.5641445853
 20
121.586919309
 10
115.5438910721
 20
121.6383414056
 10
115.4847713517
 20
121.6855975896
 10
115.3915749523
 20
121.7248594463
 10
115.2718520918
 20
121.7529462133
 10
115.1353020045
 20
121.767582468
 10
114.9929871662
 20
121.767582468
 10
114.8564370788
 20
121.7529462133
 10
114.7367142184
 20
121.7248594463
 10
114.6435178189
 20
121.6855975896
 10
114.5843980985
 20
121.6383414056
 10
114.5641445853
 20
121.586919309
  0
LINE
  5
1E3
330
1F
100
AcDbEntity
  8
0
  6
HIDDEN
 62
     7
370
    18
100
AcDbLine
 10
116.8141445853
 20
121.8739820412
 30
0.0
 11
113.3141445853
 21
121.8739820412
 31
0.0
  0
LINE
  5
1E4
330
1F
100
AcDbEntity
  8
0
  6
HIDDEN
 62
     7
370
    18
100
AcDbLine
 10
113.3141445853
 20
122.0136307037
 30
0.0
 11
113.3141445853
 21
122.9791262456
 31
0.0
  0
LINE
  5
1E5
330
1F
100
AcDbEntity
  8
0
  6
HIDDEN
 62
     7
370
    18
100
AcDbLine
 10
116.8141445853
 20
122.9791262456
 30
0.0
 11
116.8141445853
 21
122.0136307037
 31
0.0
  0
LINE
  5
1E6
330
1F
100
AcDbEntity
  8
0
  6
HIDDEN
 62
     7
370
    18
100
AcDbLine
 10
100.2141445853
 20
125.0291262456
 30
0.0
 11
100.2141445853
 21
125.3291262456
 31
0.0
  0
LINE
  5
1E7
330
1F
100
AcDbEntity
  8
0
  6
HIDDEN
 62
     7
370
    18
100
AcDbLine
 10
100.9141445853
 20
125.3291262456
 30
0.0
 11
100.2141445853
 21
125.3291262456
 31
0.0
  0
LINE
  5
1E8
330
1F
100
AcDbEntity
  8
0
  6
HIDDEN
 62
     7
370
    18
100
AcDbLine
 10
100.9141445853
 20
125.0291262456
 30
0.0
 11
100.2141445853
 21
125.0291262456
 31
0.0
  0
LINE
  5
1E9
330
1F
100
AcDbEntity
  8
0
  6
HIDDEN
 62
     7
370
    18
100
AcDbLine
 10
100.9141445853
 20
125.3291262456
 30
0.0
 11
100.9141445853
 21
125.0291262456
 31
0.0
  0
LINE
  5
1EA
330
1F
100
AcDbEntity
  8
0
  6
HIDDEN
 62
     7
370
    18
100
AcDbLine
 10
100.2141445853
 20
125.9291262456
 30
0.0
 11
100.2141445853
 21
125.3291262456
 31
0.0
  0
LINE
  5
1EB
330
1F
100
AcDbEntity
  8
0
  6
HIDDEN
 62
     7
370
    18
100
AcDbLine
 10
100.9141445853
 20
125.9291262456
 30
0.0
 11
100.2141445853
 21
125.9291262456
 31
0.0
  0
LINE
  5
1EC
330
1F
100
AcDbEntity
  8
0
  6
HIDDEN
 62
     7
370
    18
100
AcDbLine
 10
100.9141445853
 20
125.9291262456
 30
0.0
 11
100.9141445853
 21
125.3291262456
 31
0.0
  0
LINE
  5
1ED
330
1F
100
AcDbEntity
  8
0
  6
HIDDEN
 62
     7
370
    18
100
AcDbLine
 10
100.9141445853
 20
120.0291262456
 30
0.0
 11
100.2141445853
 21
120.0291262456
 31
0.0
  0
LINE
  5
1EE
330
1F
100
AcDbEntity
  8
0
  6
HIDDEN
 62
     7
370
    18
100
AcDbLine
 10
100.9141445853
 20
119.4291262456
 30
0.0
 11
100.2141445853
 21
119.4291262456
 31
0.0
  0
LINE
  5
1EF
330
1F
100
AcDbEntity
  8
0
  6
HIDDEN
 62
     7
370
    18
100
AcDbLine
 10
100.9141445853
 20
120.0291262456
 30
0.0
 11
100.9141445853
 21
119.4291262456
 31
0.0
  0
LINE
  5
1F0
330
1F
100
AcDbEntity
  8
0
  6
HIDDEN
 62
     7
370
    18
100
AcDbLine
 10
100.2141445853
 20
120.0291262456
 30
0.0
 11
100.2141445853
 21
119.4291262456
 31
0.0
  0
LINE
  5
1F1
330
1F
100
AcDbEntity
  8
0
  6
HIDDEN
 62
     7
370
    18
100
AcDbLine
 10
100.9141445853
 20
120.3291262456
 30
0.0
 11
100.2141445853
 21
120.3291262456
 31
0.0
  0
LINE
  5
1F2
330
1F
100
AcDbEntity
  8
0
  6
HIDDEN
 62
     7
370
    18
100
AcDbLine
 10
100.9141445853
 20
120.3291262456
 30
0.0
 11
100.9141445853
 21
120.0291262456
 31
0.0
  0
LINE
  5
1F3
330
1F
100
AcDbEntity
  8
0
  6
HIDDEN
 62
     7
370
    18
100
AcDbLine
 10
100.2141445853
 20
120.0291262456
 30
0.0
 11
100.2141445853
 21
120.3291262456
 31
0.0
  0
LINE
  5
1F4
330
1F
100
AcDbEntity
  8
0
  6
HIDDEN
 62
     7
370
    18
100
AcDbLine
 10
103.9141445853
 20
120.0291262456
 30
0.0
 11
103.2141445853
 21
120.0291262456
 31
0.0
  0
LINE
  5
1F5
330
1F
100
AcDbEntity
  8
0
  6
HIDDEN
 62
     7
370
    18
100
AcDbLine
 10
103.9141445853
 20
120.0291262456
 30
0.0
 11
103.9141445853
 21
119.4291262456
 31
0.0
  0
LINE
  5
1F6
330
1F
100
AcDbEntity
  8
0
  6
HIDDEN
 62
     7
370
    18
100
AcDbLine
 10
103.2141445853
 20
120.0291262456
 30
0.0
 11
103.2141445853
 21
119.4291262456
 31
0.0
  0
LINE
  5
1F7
330
1F
100
AcDbEntity
  8
0
  6
HIDDEN
 62
     7
370
    18
100
AcDbLine
 10
103.2141445853
 20
119.4291262456
 30
0.0
 11
103.9141445853
 21
119.4291262456
 31
0.0
  0
LINE
  5
1F8
330
1F
100
AcDbEntity
  8
0
  6
HIDDEN
 62
     7
370
    18
100
AcDbLine
 10
99.8141445853
 20
120.4291262456
 30
0.0
 11
99.8141445853
 21
124.9291262456
 31
0.0
  0
LINE
  5
1F9
330
1F
100
AcDbEntity
  8
0
  6
HIDDEN
 62
     7
370
    18
100
AcDbLine
 10
99.8141445853
 20
124.9291262456
 30
0.0
 11
104.3141445853
 21
124.9291262456
 31
0.0
  0
LINE
  5
1FA
330
1F
100
AcDbEntity
  8
0
  6
HIDDEN
 62
     7
370
    18
100
AcDbLine
 10
104.3141445853
 20
120.4291262456
 30
0.0
 11
99.8141445853
 21
120.4291262456
 31
0.0
  0
LINE
  5
1FB
330
1F
100
AcDbEntity
  8
0
  6
HIDDEN
 62
     7
370
    18
100
AcDbLine
 10
104.3141445853
 20
124.9291262456
 30
0.0
 11
104.3141445853
 21
120.4291262456
 31
0.0
  0
LINE
  5
1FC
330
1F
100
AcDbEntity
  8
0
  6
HIDDEN
 62
     7
370
    18
100
AcDbLine
 10
103.9141445853
 20
125.3291262456
 30
0.0
 11
103.2141445853
 21
125.3291262456
 31
0.0
  0
LINE
  5
1FD
330
1F
100
AcDbEntity
  8
0
  6
HIDDEN
 62
     7
370
    18
100
AcDbLine
 10
103.2141445853
 20
125.9291262456
 30
0.0
 11
103.9141445853
 21
125.9291262456
 31
0.0
  0
LINE
  5
1FE
330
1F
100
AcDbEntity
  8
0
  6
HIDDEN
 62
     7
370
    18
100
AcDbLine
 10
103.2141445853
 20
125.9291262456
 30
0.0
 11
103.2141445853
 21
125.3291262456
 31
0.0
  0
LINE
  5
1FF
330
1F
100
AcDbEntity
  8
0
  6
HIDDEN
 62
     7
370
    18
100
AcDbLine
 10
103.9141445853
 20
125.9291262456
 30
0.0
 11
103.9141445853
 21
125.3291262456
 31
0.0
  0
LINE
  5
200
330
1F
100
AcDbEntity
  8
0
  6
HIDDEN
 62
     7
370
    18
100
AcDbLine
 10
103.9141445853
 20
120.3291262456
 30
0.0
 11
103.2141445853
 21
120.3291262456
 31
0.0
  0
LINE
  5
201
330
1F
100
AcDbEntity
  8
0
  6
HIDDEN
 62
     7
370
    18
100
AcDbLine
 10
103.9141445853
 20
120.3291262456
 30
0.0
 11
103.9141445853
 21
120.0291262456
 31
0.0
  0
LINE
  5
202
330
1F
100
AcDbEntity
  8
0
  6
HIDDEN
 62
     7
370
    18
100
AcDbLine
 10
103.2141445853
 20
120.0291262456
 30
0.0
 11
103.2141445853
 21
120.3291262456
 31
0.0
  0
LINE
  5
203
330
1F
100
AcDbEntity
  8
0
  6
HIDDEN
 62
     7
370
    18
100
AcDbLine
 10
103.9141445853
 20
125.0291262456
 30
0.0
 11
103.2141445853
 21
125.0291262456
 31
0.0
  0
LINE
  5
204
330
1F
100
AcDbEntity
  8
0
  6
HIDDEN
 62
     7
370
    18
100
AcDbLine
 10
103.2141445853
 20
125.0291262456
 30
0.0
 11
103.2141445853
 21
125.3291262456
 31
0.0
  0
LINE
  5
205
330
1F
100
AcDbEntity
  8
0
  6
HIDDEN
 62
     7
370
    18
100
AcDbLine
 10
103.9141445853
 20
125.3291262456
 30
0.0
 11
103.9141445853
 21
125.0291262456
 31
0.0
  0
LINE
  5
206
330
1F
100
AcDbEntity
  8
0
  6
HIDDEN
 62
     7
370
    18
100
AcDbLine
 10
103.2141445853
 20
125.0291262456
 30
0.0
 11
103.2141445853
 21
124.9291262456
 31
0.0
  0
LINE
  5
207
330
1F
100
AcDbEntity
  8
0
  6
HIDDEN
 62
     7
370
    18
100
AcDbLine
 10
103.9141445853
 20
125.0291262456
 30
0.0
 11
103.9141445853
 21
124.9291262456
 31
0.0
  0
LINE
  5
208
330
1F
100
AcDbEntity
  8
0
  6
HIDDEN
 62
     7
370
    18
100
AcDbLine
 10
100.2141445853
 20
125.0291262456
 30
0.0
 11
100.2141445853
 21
124.9291262456
 31
0.0
  0
LINE
  5
209
330
1F
100
AcDbEntity
  8
0
  6
HIDDEN
 62
     7
370
    18
100
AcDbLine
 10
100.9141445853
 20
125.0291262456
 30
0.0
 11
100.9141445853
 21
124.9291262456
 31
0.0
  0
LINE
  5
20A
330
1F
100
AcDbEntity
  8
0
  6
HIDDEN
 62
     7
370
    18
100
AcDbLine
 10
100.9141445853
 20
120.4291262456
 30
0.0
 11
100.9141445853
 21
120.3291262456
 31
0.0
  0
LINE
  5
20B
330
1F
100
AcDbEntity
  8
0
  6
HIDDEN
 62
     7
370
    18
100
AcDbLine
 10
100.2141445853
 20
120.4291262456
 30
0.0
 11
100.2141445853
 21
120.3291262456
 31
0.0
  0
LINE
  5
20C
330
1F
100
AcDbEntity
  8
0
  6
HIDDEN
 62
     7
370
    18
100
AcDbLine
 10
103.9141445853
 20
120.4291262456
 30
0.0
 11
103.9141445853
 21
120.3291262456
 31
0.0
  0
LINE
  5
20D
330
1F
100
AcDbEntity
  8
0
  6
HIDDEN
 62
     7
370
    18
100
AcDbLine
 10
103.2141445853
 20
120.4291262456
 30
0.0
 11
103.2141445853
 21
120.3291262456
 31
0.0
  0
ARC
  5
20E
330
1F
100
AcDbEntity
  8
0
  6
HIDDEN
 62
     7
370
    18
100
AcDbCircle
 10
100.4641445853
 20
124.2791262456
 30
0.0
 40
0.5
100
AcDbArc
 50
270.0
 51
90.0
  0
ARC
  5
20F
330
1F
100
AcDbEntity
  8
0
  6
HIDDEN
 62
     7
370
    18
100
AcDbCircle
 10
103.6641445853
 20
124.2791262456
 30
0.0
 40
0.5
100
AcDbArc
 50
90.0
 51
270.0
  0
ARC
  5
210
330
1F
100
AcDbEntity
  8
0
  6
HIDDEN
 62
     7
370
    18
100
AcDbCircle
 10
102.0641445853
 20
122.6791262456
 30
0.0
 40
1.150000000000006
100
AcDbArc
 50
90.0
 51
270.0
  0
ARC
  5
211
330
1F
100
AcDbEntity
  8
0
  6
HIDDEN
 62
     7
370
    18
100
AcDbCircle
 10
100.4641445853
 20
124.2791262456
 30
0.0
 40
0.5
100
AcDbArc
 50
90.0
 51
270.0
  0
ARC
  5
212
330
1F
100
AcDbEntity
  8
0
  6
HIDDEN
 62
     7
370
    18
100
AcDbCircle
 10
103.6641445853
 20
121.0791262456
 30
0.0
 40
0.5
100
AcDbArc
 50
270.0
 51
90.0
  0
ARC
  5
213
330
1F
100
AcDbEntity
  8
0
  6
HIDDEN
 62
     7
370
    18
100
AcDbCircle
 10
103.6641445853
 20
121.0791262456
 30
0.0
 40
0.5
100
AcDbArc
 50
90.0
 51
270.0
  0
ARC
  5
214
330
1F
100
AcDbEntity
  8
0
  6
HIDDEN
 62
     7
370
    18
100
AcDbCircle
 10
102.0641445853
 20
122.6791262456
 30
0.0
 40
1.150000000000006
100
AcDbArc
 50
270.0
 51
90.0
  0
ARC
  5
215
330
1F
100
AcDbEntity
  8
0
  6
HIDDEN
 62
     7
370
    18
100
AcDbCircle
 10
103.6641445853
 20
124.2791262456
 30
0.0
 40
0.5
100
AcDbArc
 50
270.0
 51
90.0
  0
ARC
  5
216
330
1F
100
AcDbEntity
  8
0
  6
HIDDEN
 62
     7
370
    18
100
AcDbCircle
 10
100.4641445853
 20
121.0791262456
 30
0.0
 40
0.5
100
AcDbArc
 50
270.0
 51
90.0
  0
ARC
  5
217
330
1F
100
AcDbEntity
  8
0
  6
HIDDEN
 62
     7
370
    18
100
AcDbCircle
 10
100.4641445853
 20
121.0791262456
 30
0.0
 40
0.5
100
AcDbArc
 50
90.0
 51
270.0
  0
ARC
  5
218
330
1F
100
AcDbEntity
  8
0
  6
HIDDEN
 62
     7
370
    18
100
AcDbCircle
 10
103.6641445853
 20
124.2791262456
 30
0.0
 40
0.3000000000000114
100
AcDbArc
 50
90.0
 51
270.0
  0
LINE
  5
219
330
1F
100
AcDbEntity
  8
0
  6
HIDDEN
 62
     7
370
    18
100
AcDbLine
 10
103.6641445853
 20
124.5791262456
 30
0.0
 11
103.6641445853
 21
124.7791262456
 31
0.0
  0
LINE
  5
21A
330
1F
100
AcDbEntity
  8
0
  6
HIDDEN
 62
     7
370
    18
100
AcDbLine
 10
103.6641445853
 20
123.9791262456
 30
0.0
 11
103.6641445853
 21
123.7791262456
 31
0.0
  0
ARC
  5
21B
330
1F
100
AcDbEntity
  8
0
  6
HIDDEN
 62
     7
370
    18
100
AcDbCircle
 10
103.6641445853
 20
124.2791262456
 30
0.0
 40
0.3000000000000114
100
AcDbArc
 50
270.0
 51
90.0
  0
ARC
  5
21C
330
1F
100
AcDbEntity
  8
0
  6
HIDDEN
 62
     7
370
    18
100
AcDbCircle
 10
103.6641445853
 20
121.0791262456
 30
0.0
 40
0.2999999999999972
100
AcDbArc
 50
270.0
 51
90.0
  0
LINE
  5
21D
330
1F
100
AcDbEntity
  8
0
  6
HIDDEN
 62
     7
370
    18
100
AcDbLine
 10
103.6641445853
 20
120.7791262456
 30
0.0
 11
103.6641445853
 21
120.5791262456
 31
0.0
  0
LINE
  5
21E
330
1F
100
AcDbEntity
  8
0
  6
HIDDEN
 62
     7
370
    18
100
AcDbLine
 10
103.6641445853
 20
121.3791262456
 30
0.0
 11
103.6641445853
 21
121.5791262456
 31
0.0
  0
ARC
  5
21F
330
1F
100
AcDbEntity
  8
0
  6
HIDDEN
 62
     7
370
    18
100
AcDbCircle
 10
103.6641445853
 20
121.0791262456
 30
0.0
 40
0.2999999999999972
100
AcDbArc
 50
90.0
 51
270.0
  0
ARC
  5
220
330
1F
100
AcDbEntity
  8
0
  6
HIDDEN
 62
     7
370
    18
100
AcDbCircle
 10
100.4641445853
 20
121.0791262456
 30
0.0
 40
0.2999999999999972
100
AcDbArc
 50
90.0
 51
270.0
  0
LINE
  5
221
330
1F
100
AcDbEntity
  8
0
  6
HIDDEN
 62
     7
370
    18
100
AcDbLine
 10
100.4641445853
 20
121.3791262456
 30
0.0
 11
100.4641445853
 21
121.5791262456
 31
0.0
  0
LINE
  5
222
330
1F
100
AcDbEntity
  8
0
  6
HIDDEN
 62
     7
370
    18
100
AcDbLine
 10
100.4641445853
 20
120.7791262456
 30
0.0
 11
100.4641445853
 21
120.5791262456
 31
0.0
  0
ARC
  5
223
330
1F
100
AcDbEntity
  8
0
  6
HIDDEN
 62
     7
370
    18
100
AcDbCircle
 10
100.4641445853
 20
124.2791262456
 30
0.0
 40
0.3000000000000114
100
AcDbArc
 50
90.0
 51
270.0
  0
LINE
  5
224
330
1F
100
AcDbEntity
  8
0
  6
HIDDEN
 62
     7
370
    18
100
AcDbLine
 10
100.4641445853
 20
124.5791262456
 30
0.0
 11
100.4641445853
 21
124.7791262456
 31
0.0
  0
LINE
  5
225
330
1F
100
AcDbEntity
  8
0
  6
HIDDEN
 62
     7
370
    18
100
AcDbLine
 10
100.4641445853
 20
123.9791262456
 30
0.0
 11
100.4641445853
 21
123.7791262456
 31
0.0
  0
ARC
  5
226
330
1F
100
AcDbEntity
  8
0
  6
HIDDEN
 62
     7
370
    18
100
AcDbCircle
 10
100.4641445853
 20
124.2791262456
 30
0.0
 40
0.3000000000000114
100
AcDbArc
 50
270.0
 51
90.0
  0
ARC
  5
227
330
1F
100
AcDbEntity
  8
0
  6
HIDDEN
 62
     7
370
    18
100
AcDbCircle
 10
100.4641445853
 20
121.0791262456
 30
0.0
 40
0.2999999999999972
100
AcDbArc
 50
270.0
 51
90.0
  0
ARC
  5
228
330
1F
100
AcDbEntity
  8
0
  6
HIDDEN
 62
     7
370
    18
100
AcDbCircle
 10
102.0641445853
 20
122.6791262456
 30
0.0
 40
0.9500000000000028
100
AcDbArc
 50
270.0
 51
90.0
  0
LINE
  5
229
330
1F
100
AcDbEntity
  8
0
  6
HIDDEN
 62
     7
370
    18
100
AcDbLine
 10
102.0641445853
 20
121.7291262456
 30
0.0
 11
102.0641445853
 21
121.5291262456
 31
0.0
  0
LINE
  5
22A
330
1F
100
AcDbEntity
  8
0
  6
HIDDEN
 62
     7
370
    18
100
AcDbLine
 10
102.0641445853
 20
123.6291262456
 30
0.0
 11
102.0641445853
 21
123.8291262456
 31
0.0
  0
ARC
  5
22B
330
1F
100
AcDbEntity
  8
0
  6
HIDDEN
 62
     7
370
    18
100
AcDbCircle
 10
102.0641445853
 20
122.6791262456
 30
0.0
 40
0.9500000000000028
100
AcDbArc
 50
90.0
 51
270.0
  0
LINE
  5
22C
330
1F
100
AcDbEntity
  8
0
  6
HIDDEN
 62
     7
370
    18
100
AcDbLine
 10
118.2141445853
 20
100.7791262456
 30
0.0
 11
111.9141445853
 21
100.7791262456
 31
0.0
  0
LINE
  5
22D
330
1F
100
AcDbEntity
  8
0
  6
HIDDEN
 62
     7
370
    18
100
AcDbLine
 10
111.9391445853
 20
100.7291262456
 30
0.0
 11
118.1891445853
 21
100.7291262456
 31
0.0
  0
LINE
  5
22E
330
1F
100
AcDbEntity
  8
0
  6
HIDDEN
 62
     7
370
    18
100
AcDbLine
 10
111.9141445853
 20
94.5791262456
 30
0.0
 11
118.2141445853
 21
94.5791262456
 31
0.0
  0
LINE
  5
22F
330
1F
100
AcDbEntity
  8
0
  6
HIDDEN
 62
     7
370
    18
100
AcDbLine
 10
118.1891445853
 20
94.6291262456
 30
0.0
 11
111.9391445853
 21
94.6291262456
 31
0.0
  0
LINE
  5
230
330
1F
100
AcDbEntity
  8
0
  6
HIDDEN
 62
     7
370
    18
100
AcDbLine
 10
118.1891445853
 20
100.7291262456
 30
0.0
 11
118.1891445853
 21
94.6291262456
 31
0.0
  0
LINE
  5
231
330
1F
100
AcDbEntity
  8
0
  6
HIDDEN
 62
     7
370
    18
100
AcDbLine
 10
111.9391445853
 20
94.6291262456
 30
0.0
 11
111.9391445853
 21
100.7291262456
 31
0.0
  0
LINE
  5
232
330
1F
100
AcDbEntity
  8
0
  6
HIDDEN
 62
     7
370
    18
100
AcDbLine
 10
113.8141445853
 20
94.4791262456
 30
0.0
 11
113.8141445853
 21
94.6291262456
 31
0.0
  0
LINE
  5
233
330
1F
100
AcDbEntity
  8
0
  6
HIDDEN
 62
     7
370
    18
100
AcDbLine
 10
116.3141445853
 20
94.6291262456
 30
0.0
 11
116.3141445853
 21
94.4791262456
 31
0.0
  0
LINE
  5
234
330
1F
100
AcDbEntity
  8
0
  6
HIDDEN
 62
     7
370
    18
100
AcDbLine
 10
116.3141445853
 20
100.8791262456
 30
0.0
 11
116.3141445853
 21
100.7291262456
 31
0.0
  0
LINE
  5
235
330
1F
100
AcDbEntity
  8
0
  6
HIDDEN
 62
     7
370
    18
100
AcDbLine
 10
113.8141445853
 20
100.7291262456
 30
0.0
 11
113.8141445853
 21
100.8791262456
 31
0.0
  0
LINE
  5
236
330
1F
100
AcDbEntity
  8
0
  6
HIDDEN
 62
     7
370
    18
100
AcDbLine
 10
113.7641445853
 20
100.8791262456
 30
0.0
 11
113.7641445853
 21
100.7791262456
 31
0.0
  0
LINE
  5
237
330
1F
100
AcDbEntity
  8
0
  6
HIDDEN
 62
     7
370
    18
100
AcDbLine
 10
116.3641445853
 20
100.8791262456
 30
0.0
 11
116.3641445853
 21
100.7791262456
 31
0.0
  0
LINE
  5
238
330
1F
100
AcDbEntity
  8
0
  6
HIDDEN
 62
     7
370
    18
100
AcDbLine
 10
113.7641445853
 20
94.4791262456
 30
0.0
 11
113.7641445853
 21
94.5791262456
 31
0.0
  0
LINE
  5
239
330
1F
100
AcDbEntity
  8
0
  6
HIDDEN
 62
     7
370
    18
100
AcDbLine
 10
116.3641445853
 20
94.4791262456
 30
0.0
 11
116.3641445853
 21
94.5791262456
 31
0.0
  0
LINE
  5
23A
330
1F
100
AcDbEntity
  8
0
  6
HIDDEN
 62
     7
370
    18
100
AcDbLine
 10
113.8141445853
 20
100.8967589436
 30
0.0
 11
116.3141445853
 21
100.8967589436
 31
0.0
  0
LINE
  5
23B
330
1F
100
AcDbEntity
  8
0
  6
HIDDEN
 62
     7
370
    18
100
AcDbLine
 10
113.8141445853
 20
94.4614935475
 30
0.0
 11
116.3141445853
 21
94.4614935475
 31
0.0
  0
LINE
  5
23C
330
1F
100
AcDbEntity
  8
0
  6
HIDDEN
 62
     7
370
    18
100
AcDbLine
 10
117.8111544895
 20
100.7791262456
 30
0.0
 11
117.2141445853
 21
100.8843951994
 31
0.0
  0
LINE
  5
23D
330
1F
100
AcDbEntity
  8
0
  6
HIDDEN
 62
     7
370
    18
100
AcDbLine
 10
112.9141445853
 20
100.8843951994
 30
0.0
 11
112.3171346812
 21
100.7791262456
 31
0.0
  0
LINE
  5
23E
330
1F
100
AcDbEntity
  8
0
  6
HIDDEN
 62
     7
370
    18
100
AcDbLine
 10
117.2141445853
 20
94.4738572917
 30
0.0
 11
117.8111544895
 21
94.5791262456
 31
0.0
  0
LINE
  5
23F
330
1F
100
AcDbEntity
  8
0
  6
HIDDEN
 62
     7
370
    18
100
AcDbLine
 10
112.3171346812
 20
94.5791262456
 30
0.0
 11
112.9141445853
 21
94.4738572917
 31
0.0
  0
LINE
  5
240
330
1F
100
AcDbEntity
  8
0
  6
HIDDEN
 62
     7
370
    18
100
AcDbLine
 10
116.3141445853
 20
100.796231709
 30
0.0
 11
116.3641445853
 21
100.796231709
 31
0.0
  0
LINE
  5
241
330
1F
100
AcDbEntity
  8
0
  6
HIDDEN
 62
     7
370
    18
100
AcDbLine
 10
116.3141445853
 20
94.5620207821
 30
0.0
 11
116.3641445853
 21
94.5620207821
 31
0.0
  0
LINE
  5
242
330
1F
100
AcDbEntity
  8
0
  6
HIDDEN
 62
     7
370
    18
100
AcDbLine
 10
113.7641445853
 20
100.796231709
 30
0.0
 11
113.8141445853
 21
100.796231709
 31
0.0
  0
LINE
  5
243
330
1F
100
AcDbEntity
  8
0
  6
HIDDEN
 62
     7
370
    18
100
AcDbLine
 10
113.8141445853
 20
94.5620207821
 30
0.0
 11
116.3141445853
 21
94.5620207821
 31
0.0
  0
LINE
  5
244
330
1F
100
AcDbEntity
  8
0
  6
HIDDEN
 62
     7
370
    18
100
AcDbLine
 10
113.7641445853
 20
94.5620207821
 30
0.0
 11
113.8141445853
 21
94.5620207821
 31
0.0
  0
LINE
  5
245
330
1F
100
AcDbEntity
  8
0
  6
HIDDEN
 62
     7
370
    18
100
AcDbLine
 10
113.8141445853
 20
100.796231709
 30
0.0
 11
116.3141445853
 21
100.796231709
 31
0.0
  0
LINE
  5
246
330
1F
100
AcDbEntity
  8
0
  6
HIDDEN
 62
     7
370
    18
100
AcDbLine
 10
111.9391445853
 20
100.3041262456
 30
0.0
 11
111.9141445853
 21
100.3041262456
 31
0.0
  0
LINE
  5
247
330
1F
100
AcDbEntity
  8
0
  6
HIDDEN
 62
     7
370
    18
100
AcDbLine
 10
111.9391445853
 20
99.5541262456
 30
0.0
 11
111.9141445853
 21
99.5541262456
 31
0.0
  0
LINE
  5
248
330
1F
100
AcDbEntity
  8
0
  6
HIDDEN
 62
     7
370
    18
100
AcDbLine
 10
118.2141445853
 20
100.3041262456
 30
0.0
 11
118.1891445853
 21
100.3041262456
 31
0.0
  0
LINE
  5
249
330
1F
100
AcDbEntity
  8
0
  6
HIDDEN
 62
     7
370
    18
100
AcDbLine
 10
118.2141445853
 20
99.5541262456
 30
0.0
 11
118.1891445853
 21
99.5541262456
 31
0.0
  0
LINE
  5
24A
330
1F
100
AcDbEntity
  8
0
  6
HIDDEN
 62
     7
370
    18
100
AcDbLine
 10
118.2141445853
 20
95.8041262456
 30
0.0
 11
118.1891445853
 21
95.8041262456
 31
0.0
  0
LINE
  5
24B
330
1F
100
AcDbEntity
  8
0
  6
HIDDEN
 62
     7
370
    18
100
AcDbLine
 10
118.2141445853
 20
95.0541262456
 30
0.0
 11
118.1891445853
 21
95.0541262456
 31
0.0
  0
LINE
  5
24C
330
1F
100
AcDbEntity
  8
0
  6
HIDDEN
 62
     7
370
    18
100
AcDbLine
 10
111.9391445853
 20
95.0541262456
 30
0.0
 11
111.9141445853
 21
95.0541262456
 31
0.0
  0
LINE
  5
24D
330
1F
100
AcDbEntity
  8
0
  6
HIDDEN
 62
     7
370
    18
100
AcDbLine
 10
111.9391445853
 20
95.8041262456
 30
0.0
 11
111.9141445853
 21
95.8041262456
 31
0.0
  0
LINE
  5
24E
330
1F
100
AcDbEntity
  8
0
  6
HIDDEN
 62
     7
370
    18
100
AcDbLine
 10
112.9141445853
 20
100.8843951994
 30
0.0
 11
117.2141445853
 21
100.8843951994
 31
0.0
  0
LINE
  5
24F
330
1F
100
AcDbEntity
  8
0
  6
HIDDEN
 62
     7
370
    18
100
AcDbLine
 10
117.2141445853
 20
100.984922434
 30
0.0
 11
117.2141445853
 21
100.8843951994
 31
0.0
  0
LINE
  5
250
330
1F
100
AcDbEntity
  8
0
  6
HIDDEN
 62
     7
370
    18
100
AcDbLine
 10
112.9141445853
 20
100.8843951994
 30
0.0
 11
112.9141445853
 21
100.984922434
 31
0.0
  0
LINE
  5
251
330
1F
100
AcDbEntity
  8
0
  6
HIDDEN
 62
     7
370
    18
100
AcDbLine
 10
118.3891445853
 20
95.0541262456
 30
0.0
 11
118.3891445853
 21
95.8041262456
 31
0.0
  0
LINE
  5
252
330
1F
100
AcDbEntity
  8
0
  6
HIDDEN
 62
     7
370
    18
100
AcDbLine
 10
112.9141445853
 20
94.4738572917
 30
0.0
 11
117.2141445853
 21
94.4738572917
 31
0.0
  0
LINE
  5
253
330
1F
100
AcDbEntity
  8
0
  6
HIDDEN
 62
     7
370
    18
100
AcDbLine
 10
117.2141445853
 20
94.4738572917
 30
0.0
 11
117.2141445853
 21
94.3733300571
 31
0.0
  0
LINE
  5
254
330
1F
100
AcDbEntity
  8
0
  6
HIDDEN
 62
     7
370
    18
100
AcDbLine
 10
112.9141445853
 20
94.3733300571
 30
0.0
 11
112.9141445853
 21
94.4738572917
 31
0.0
  0
LINE
  5
255
330
1F
100
AcDbEntity
  8
0
  6
HIDDEN
 62
     7
370
    18
100
AcDbLine
 10
111.7391445853
 20
95.8041262456
 30
0.0
 11
111.7391445853
 21
95.0541262456
 31
0.0
  0
LINE
  5
256
330
1F
100
AcDbEntity
  8
0
  6
HIDDEN
 62
     7
370
    18
100
AcDbLine
 10
118.3891445853
 20
99.5541262456
 30
0.0
 11
118.3891445853
 21
100.3041262456
 31
0.0
  0
LINE
  5
257
330
1F
100
AcDbEntity
  8
0
  6
HIDDEN
 62
     7
370
    18
100
AcDbLine
 10
111.7391445853
 20
100.3041262456
 30
0.0
 11
111.7391445853
 21
99.5541262456
 31
0.0
  0
LINE
  5
258
330
1F
100
AcDbEntity
  8
0
  6
HIDDEN
 62
     7
370
    18
100
AcDbLine
 10
118.1891445853
 20
124.7291262456
 30
0.0
 11
118.1891445853
 21
118.6291262456
 31
0.0
  0
LINE
  5
259
330
1F
100
AcDbEntity
  8
0
  6
HIDDEN
 62
     7
370
    18
100
AcDbLine
 10
111.9391445853
 20
118.6291262456
 30
0.0
 11
111.9391445853
 21
124.7291262456
 31
0.0
  0
LINE
  5
25A
330
1F
100
AcDbEntity
  8
0
  6
HIDDEN
 62
     7
370
    18
100
AcDbLine
 10
111.9391445853
 20
124.7291262456
 30
0.0
 11
118.1891445853
 21
124.7291262456
 31
0.0
  0
LINE
  5
25B
330
1F
100
AcDbEntity
  8
0
  6
HIDDEN
 62
     7
370
    18
100
AcDbLine
 10
118.1891445853
 20
118.6291262456
 30
0.0
 11
111.9391445853
 21
118.6291262456
 31
0.0
  0
LINE
  5
25C
330
1F
100
AcDbEntity
  8
0
  6
HIDDEN
 62
     7
370
    18
100
AcDbLine
 10
118.2141445853
 20
124.7791262456
 30
0.0
 11
111.9141445853
 21
124.7791262456
 31
0.0
  0
LINE
  5
25D
330
1F
100
AcDbEntity
  8
0
  6
HIDDEN
 62
     7
370
    18
100
AcDbLine
 10
111.9141445853
 20
118.5791262456
 30
0.0
 11
118.2141445853
 21
118.5791262456
 31
0.0
  0
LINE
  5
25E
330
1F
100
AcDbEntity
  8
0
  6
HIDDEN
 62
     7
370
    18
100
AcDbLine
 10
116.3141445853
 20
124.8791262456
 30
0.0
 11
116.3141445853
 21
124.7291262456
 31
0.0
  0
LINE
  5
25F
330
1F
100
AcDbEntity
  8
0
  6
HIDDEN
 62
     7
370
    18
100
AcDbLine
 10
113.8141445853
 20
124.7291262456
 30
0.0
 11
113.8141445853
 21
124.8791262456
 31
0.0
  0
LINE
  5
260
330
1F
100
AcDbEntity
  8
0
  6
HIDDEN
 62
     7
370
    18
100
AcDbLine
 10
113.7641445853
 20
118.4791262456
 30
0.0
 11
113.7641445853
 21
118.5791262456
 31
0.0
  0
LINE
  5
261
330
1F
100
AcDbEntity
  8
0
  6
HIDDEN
 62
     7
370
    18
100
AcDbLine
 10
116.3641445853
 20
118.4791262456
 30
0.0
 11
116.3641445853
 21
118.5791262456
 31
0.0
  0
LINE
  5
262
330
1F
100
AcDbEntity
  8
0
  6
HIDDEN
 62
     7
370
    18
100
AcDbLine
 10
116.3141445853
 20
118.6291262456
 30
0.0
 11
116.3141445853
 21
118.4791262456
 31
0.0
  0
LINE
  5
263
330
1F
100
AcDbEntity
  8
0
  6
HIDDEN
 62
     7
370
    18
100
AcDbLine
 10
113.8141445853
 20
118.4791262456
 30
0.0
 11
113.8141445853
 21
118.6291262456
 31
0.0
  0
LINE
  5
264
330
1F
100
AcDbEntity
  8
0
  6
HIDDEN
 62
     7
370
    18
100
AcDbLine
 10
113.7641445853
 20
124.8791262456
 30
0.0
 11
113.7641445853
 21
124.7791262456
 31
0.0
  0
LINE
  5
265
330
1F
100
AcDbEntity
  8
0
  6
HIDDEN
 62
     7
370
    18
100
AcDbLine
 10
116.3641445853
 20
124.8791262456
 30
0.0
 11
116.3641445853
 21
124.7791262456
 31
0.0
  0
LINE
  5
266
330
1F
100
AcDbEntity
  8
0
  6
HIDDEN
 62
     7
370
    18
100
AcDbLine
 10
116.3141445853
 20
124.8967589436
 30
0.0
 11
113.8141445853
 21
124.8967589436
 31
0.0
  0
LINE
  5
267
330
1F
100
AcDbEntity
  8
0
  6
HIDDEN
 62
     7
370
    18
100
AcDbLine
 10
116.3141445853
 20
118.4614935475
 30
0.0
 11
113.8141445853
 21
118.4614935475
 31
0.0
  0
LINE
  5
268
330
1F
100
AcDbEntity
  8
0
  6
HIDDEN
 62
     7
370
    18
100
AcDbLine
 10
112.9141445853
 20
124.8843951994
 30
0.0
 11
112.3171346812
 21
124.7791262456
 31
0.0
  0
LINE
  5
269
330
1F
100
AcDbEntity
  8
0
  6
HIDDEN
 62
     7
370
    18
100
AcDbLine
 10
117.8111544895
 20
124.7791262456
 30
0.0
 11
117.2141445853
 21
124.8843951994
 31
0.0
  0
LINE
  5
26A
330
1F
100
AcDbEntity
  8
0
  6
HIDDEN
 62
     7
370
    18
100
AcDbLine
 10
117.2141445853
 20
118.4738572917
 30
0.0
 11
117.8111544895
 21
118.5791262456
 31
0.0
  0
LINE
  5
26B
330
1F
100
AcDbEntity
  8
0
  6
HIDDEN
 62
     7
370
    18
100
AcDbLine
 10
112.3171346812
 20
118.5791262456
 30
0.0
 11
112.9141445853
 21
118.4738572917
 31
0.0
  0
LINE
  5
26C
330
1F
100
AcDbEntity
  8
0
  6
HIDDEN
 62
     7
370
    18
100
AcDbLine
 10
113.8141445853
 20
124.796231709
 30
0.0
 11
113.7641445853
 21
124.796231709
 31
0.0
  0
LINE
  5
26D
330
1F
100
AcDbEntity
  8
0
  6
HIDDEN
 62
     7
370
    18
100
AcDbLine
 10
116.3641445853
 20
124.796231709
 30
0.0
 11
116.3141445853
 21
124.796231709
 31
0.0
  0
LINE
  5
26E
330
1F
100
AcDbEntity
  8
0
  6
HIDDEN
 62
     7
370
    18
100
AcDbLine
 10
113.8141445853
 20
118.5620207821
 30
0.0
 11
113.7641445853
 21
118.5620207821
 31
0.0
  0
LINE
  5
26F
330
1F
100
AcDbEntity
  8
0
  6
HIDDEN
 62
     7
370
    18
100
AcDbLine
 10
116.3141445853
 20
124.796231709
 30
0.0
 11
113.8141445853
 21
124.796231709
 31
0.0
  0
LINE
  5
270
330
1F
100
AcDbEntity
  8
0
  6
HIDDEN
 62
     7
370
    18
100
AcDbLine
 10
116.3641445853
 20
118.5620207821
 30
0.0
 11
116.3141445853
 21
118.5620207821
 31
0.0
  0
LINE
  5
271
330
1F
100
AcDbEntity
  8
0
  6
HIDDEN
 62
     7
370
    18
100
AcDbLine
 10
116.3141445853
 20
118.5620207821
 30
0.0
 11
113.8141445853
 21
118.5620207821
 31
0.0
  0
LINE
  5
272
330
1F
100
AcDbEntity
  8
0
  6
HIDDEN
 62
     7
370
    18
100
AcDbLine
 10
111.9141445853
 20
123.5541262456
 30
0.0
 11
111.9391445853
 21
123.5541262456
 31
0.0
  0
LINE
  5
273
330
1F
100
AcDbEntity
  8
0
  6
HIDDEN
 62
     7
370
    18
100
AcDbLine
 10
111.9141445853
 20
124.3041262456
 30
0.0
 11
111.9391445853
 21
124.3041262456
 31
0.0
  0
LINE
  5
274
330
1F
100
AcDbEntity
  8
0
  6
HIDDEN
 62
     7
370
    18
100
AcDbLine
 10
118.1891445853
 20
119.8041262456
 30
0.0
 11
118.2141445853
 21
119.8041262456
 31
0.0
  0
LINE
  5
275
330
1F
100
AcDbEntity
  8
0
  6
HIDDEN
 62
     7
370
    18
100
AcDbLine
 10
118.1891445853
 20
119.0541262456
 30
0.0
 11
118.2141445853
 21
119.0541262456
 31
0.0
  0
LINE
  5
276
330
1F
100
AcDbEntity
  8
0
  6
HIDDEN
 62
     7
370
    18
100
AcDbLine
 10
111.9141445853
 20
119.0541262456
 30
0.0
 11
111.9391445853
 21
119.0541262456
 31
0.0
  0
LINE
  5
277
330
1F
100
AcDbEntity
  8
0
  6
HIDDEN
 62
     7
370
    18
100
AcDbLine
 10
111.9141445853
 20
119.8041262456
 30
0.0
 11
111.9391445853
 21
119.8041262456
 31
0.0
  0
LINE
  5
278
330
1F
100
AcDbEntity
  8
0
  6
HIDDEN
 62
     7
370
    18
100
AcDbLine
 10
118.1891445853
 20
124.3041262456
 30
0.0
 11
118.2141445853
 21
124.3041262456
 31
0.0
  0
LINE
  5
279
330
1F
100
AcDbEntity
  8
0
  6
HIDDEN
 62
     7
370
    18
100
AcDbLine
 10
118.1891445853
 20
123.5541262456
 30
0.0
 11
118.2141445853
 21
123.5541262456
 31
0.0
  0
LINE
  5
27A
330
1F
100
AcDbEntity
  8
0
  6
HIDDEN
 62
     7
370
    18
100
AcDbLine
 10
111.7391445853
 20
119.8041262456
 30
0.0
 11
111.7391445853
 21
119.0541262456
 31
0.0
  0
LINE
  5
27B
330
1F
100
AcDbEntity
  8
0
  6
HIDDEN
 62
     7
370
    18
100
AcDbLine
 10
118.3891445853
 20
119.0541262456
 30
0.0
 11
118.3891445853
 21
119.8041262456
 31
0.0
  0
LINE
  5
27C
330
1F
100
AcDbEntity
  8
0
  6
HIDDEN
 62
     7
370
    18
100
AcDbLine
 10
118.3891445853
 20
123.5541262456
 30
0.0
 11
118.3891445853
 21
124.3041262456
 31
0.0
  0
LINE
  5
27D
330
1F
100
AcDbEntity
  8
0
  6
HIDDEN
 62
     7
370
    18
100
AcDbLine
 10
117.2141445853
 20
118.4738572917
 30
0.0
 11
112.9141445853
 21
118.4738572917
 31
0.0
  0
LINE
  5
27E
330
1F
100
AcDbEntity
  8
0
  6
HIDDEN
 62
     7
370
    18
100
AcDbLine
 10
117.2141445853
 20
118.4738572917
 30
0.0
 11
117.2141445853
 21
118.3733300571
 31
0.0
  0
LINE
  5
27F
330
1F
100
AcDbEntity
  8
0
  6
HIDDEN
 62
     7
370
    18
100
AcDbLine
 10
112.9141445853
 20
118.3733300571
 30
0.0
 11
112.9141445853
 21
118.4738572917
 31
0.0
  0
LINE
  5
280
330
1F
100
AcDbEntity
  8
0
  6
HIDDEN
 62
     7
370
    18
100
AcDbLine
 10
111.7391445853
 20
124.3041262456
 30
0.0
 11
111.7391445853
 21
123.5541262456
 31
0.0
  0
LINE
  5
281
330
1F
100
AcDbEntity
  8
0
  6
HIDDEN
 62
     7
370
    18
100
AcDbLine
 10
117.2141445853
 20
124.8843951994
 30
0.0
 11
112.9141445853
 21
124.8843951994
 31
0.0
  0
LINE
  5
282
330
1F
100
AcDbEntity
  8
0
  6
HIDDEN
 62
     7
370
    18
100
AcDbLine
 10
112.9141445853
 20
124.8843951994
 30
0.0
 11
112.9141445853
 21
124.984922434
 31
0.0
  0
LINE
  5
283
330
1F
100
AcDbEntity
  8
0
  6
HIDDEN
 62
     7
370
    18
100
AcDbLine
 10
117.2141445853
 20
124.984922434
 30
0.0
 11
117.2141445853
 21
124.8843951994
 31
0.0
  0
LINE
  5
284
330
1F
100
AcDbEntity
  8
0
  6
HIDDEN
 62
     7
370
    18
100
AcDbLine
 10
115.6293183559
 20
121.2061262056
 30
0.0
 11
116.7420753642
 21
121.2061262056
 31
0.0
  0
LINE
  5
285
330
1F
100
AcDbEntity
  8
0
  6
HIDDEN
 62
     7
370
    18
100
AcDbLine
 10
113.3793183559
 20
121.2061262056
 30
0.0
 11
114.4920753642
 21
121.2061262056
 31
0.0
  0
LINE
  5
286
330
1F
100
AcDbEntity
  8
0
  6
HIDDEN
 62
     7
370
    18
100
AcDbLine
 10
115.6288992967
 20
121.3561262056
 30
0.0
 11
116.7419000602
 21
121.3561262056
 31
0.0
  0
LINE
  5
287
330
1F
100
AcDbEntity
  8
0
  6
HIDDEN
 62
     7
370
    18
100
AcDbLine
 10
113.3788992967
 20
121.3561262056
 30
0.0
 11
114.4919000602
 21
121.3561262056
 31
0.0
  0
LINE
  5
288
330
1F
100
AcDbEntity
  8
0
  6
HIDDEN
 62
     7
370
    18
100
AcDbLine
 10
115.5641445853
 20
121.2509820012
 30
0.0
 11
115.9441445853
 21
121.2509820012
 31
0.0
  0
LINE
  5
289
330
1F
100
AcDbEntity
  8
0
  6
HIDDEN
 62
     7
370
    18
100
AcDbLine
 10
116.4341445853
 20
121.2509820012
 30
0.0
 11
116.8141445853
 21
121.2509820012
 31
0.0
  0
LINE
  5
28A
330
1F
100
AcDbEntity
  8
0
  6
HIDDEN
 62
     7
370
    18
100
AcDbLine
 10
113.3141445853
 20
121.2509820012
 30
0.0
 11
113.6941445853
 21
121.2509820012
 31
0.0
  0
LINE
  5
28B
330
1F
100
AcDbEntity
  8
0
  6
HIDDEN
 62
     7
370
    18
100
AcDbLine
 10
114.1841445853
 20
121.2509820012
 30
0.0
 11
114.5641445853
 21
121.2509820012
 31
0.0
  0
LINE
  5
28C
330
1F
100
AcDbEntity
  8
0
  6
HIDDEN
 62
     7
370
    18
100
AcDbLine
 10
116.8141445853
 20
121.3906306637
 30
0.0
 11
116.4341445853
 21
121.3906306637
 31
0.0
  0
LINE
  5
28D
330
1F
100
AcDbEntity
  8
0
  6
HIDDEN
 62
     7
370
    18
100
AcDbLine
 10
115.9441445853
 20
121.3906306637
 30
0.0
 11
115.5641445853
 21
121.3906306637
 31
0.0
  0
LINE
  5
28E
330
1F
100
AcDbEntity
  8
0
  6
HIDDEN
 62
     7
370
    18
100
AcDbLine
 10
114.5641445853
 20
121.3906306637
 30
0.0
 11
114.1841445853
 21
121.3906306637
 31
0.0
  0
LINE
  5
28F
330
1F
100
AcDbEntity
  8
0
  6
HIDDEN
 62
     7
370
    18
100
AcDbLine
 10
113.6941445853
 20
121.3906306637
 30
0.0
 11
113.3141445853
 21
121.3906306637
 31
0.0
  0
CIRCLE
  5
290
330
1F
100
AcDbEntity
  8
0
  6
Continuous
 62
     7
370
    18
100
AcDbCircle
 10
115.0641445853
 20
109.6791262456
 30
0.0
 40
3.499999999999992
  0
ENDSEC
  0
SECTION
  2
OBJECTS
  0
DICTIONARY
  5
C
330
0
100
AcDbDictionary
281
     1
  3
ACAD_GROUP
350
D
  3
ACAD_LAYOUT
350
1A
  3
ACAD_MLINESTYLE
350
17
  3
ACAD_PLOTSETTINGS
350
19
  3
ACAD_PLOTSTYLENAME
350
E
  3
ACAD_SCALELIST
350
47
  3
DWGPROPS
350
291
  0
DICTIONARY
  5
D
102
{ACAD_REACTORS
330
C
102
}
330
C
100
AcDbDictionary
281
     1
  0
DICTIONARY
  5
1A
102
{ACAD_REACTORS
330
C
102
}
330
C
100
AcDbDictionary
281
     1
  3
Layout1
350
1E
  3
Layout2
350
26
  3
Model
350
22
  0
DICTIONARY
  5
17
102
{ACAD_REACTORS
330
C
102
}
330
C
100
AcDbDictionary
281
     1
  3
Standard
350
18
  0
DICTIONARY
  5
19
102
{ACAD_REACTORS
330
C
102
}
330
C
100
AcDbDictionary
281
     1
  0
ACDBDICTIONARYWDFLT
  5
E
102
{ACAD_REACTORS
330
C
102
}
330
C
100
AcDbDictionary
281
     1
  3
Normal
350
F
100
AcDbDictionaryWithDefault
340
F
  0
DICTIONARY
  5
47
102
{ACAD_REACTORS
330
C
102
}
330
C
100
AcDbDictionary
281
     1
  3
A0
350
48
  3
A1
350
49
  3
A2
350
4A
  3
A3
350
4B
  3
A4
350
4C
  3
A5
350
4D
  3
A6
350
4E
  3
A7
350
4F
  3
A8
350
50
  3
A9
350
51
  3
B0
350
52
  3
B1
350
53
  3
B2
350
54
  3
B3
350
55
  3
B4
350
56
  3
B5
350
57
  3
B6
350
58
  0
XRECORD
  5
291
102
{ACAD_REACTORS
330
C
102
}
330
C
100
AcDbXrecord
280
     1
  1
DWGPROPS COOKIE
  2

  3

  4

  6

  7

  8
avi
  9

300
=
301
=
302
=
303
=
304
=
305
=
306
=
307
=
308
=
309
=
 40
0.0
 41
2460796.625508588
 42
2460796.625508993
  1

 90
        0
  0
LAYOUT
  5
1E
102
{ACAD_REACTORS
330
1A
102
}
330
1A
100
AcDbPlotSettings
  1

  2
none_device
  4

  6

 40
0.0
 41
0.0
 42
0.0
 43
0.0
 44
0.0
 45
0.0
 46
0.0
 47
0.0
 48
0.0
 49
0.0
140
0.0
141
0.0
142
1.0
143
1.0
 70
   688
 72
     1
 73
     0
 74
     5
  7

 75
    16
147
1.0
148
0.0
149
0.0
100
AcDbLayout
  1
Layout1
 70
     1
 71
     1
 10
0.0
 20
0.0
 11
420.0
 21
297.0
 12
0.0
 22
0.0
 32
0.0
 14
1.0000000000E+20
 24
1.0000000000E+20
 34
1.0000000000E+20
 15
-1.0000000000E+20
 25
-1.0000000000E+20
 35
-1.0000000000E+20
146
0.0
 13
0.0
 23
0.0
 33
0.0
 16
1.0
 26
0.0
 36
0.0
 17
0.0
 27
1.0
 37
0.0
 76
     0
330
1B
  0
LAYOUT
  5
26
102
{ACAD_REACTORS
330
1A
102
}
330
1A
100
AcDbPlotSettings
  1

  2
none_device
  4

  6

 40
0.0
 41
0.0
 42
0.0
 43
0.0
 44
0.0
 45
0.0
 46
0.0
 47
0.0
 48
0.0
 49
0.0
140
0.0
141
0.0
142
1.0
143
1.0
 70
   688
 72
     1
 73
     0
 74
     5
  7

 75
    16
147
1.0
148
0.0
149
0.0
100
AcDbLayout
  1
Layout2
 70
     1
 71
     2
 10
0.0
 20
0.0
 11
0.0
 21
0.0
 12
0.0
 22
0.0
 32
0.0
 14
0.0
 24
0.0
 34
0.0
 15
0.0
 25
0.0
 35
0.0
146
0.0
 13
0.0
 23
0.0
 33
0.0
 16
1.0
 26
0.0
 36
0.0
 17
0.0
 27
1.0
 37
0.0
 76
     0
330
23
  0
LAYOUT
  5
22
102
{ACAD_REACTORS
330
1A
102
}
330
1A
100
AcDbPlotSettings
  1

  2
none_device
  4
Letter_(8.50_x_11.00_Inches)
  6

 40
6.35
 41
6.35
 42
6.35000508
 43
6.35000508
 44
215.9
 45
279.4
 46
0.0
 47
0.0
 48
0.0
 49
0.0
140
0.0
141
0.0
142
1.0
143
1.0
 70
  1712
 72
     1
 73
     0
 74
     0
  7

 75
     0
147
1.0
148
0.0
149
0.0
100
AcDbLayout
  1
Model
 70
     1
 71
     0
 10
0.0
 20
0.0
 11
297.0
 21
210.0
 12
0.0
 22
0.0
 32
0.0
 14
0.0
 24
0.0
 34
0.0
 15
297.0
 25
210.0
 35
0.0
146
0.0
 13
0.0
 23
0.0
 33
0.0
 16
1.0
 26
0.0
 36
0.0
 17
0.0
 27
1.0
 37
0.0
 76
     0
330
1F
331
29
  0
MLINESTYLE
  5
18
102
{ACAD_REACTORS
330
17
102
}
330
17
100
AcDbMlineStyle
  2
Standard
 70
     0
  3

 62
   256
 51
90.0
 52
90.0
 71
     2
 49
0.5
 62
   256
  6
BYLAYER
 49
-0.5
 62
   256
  6
BYLAYER
  0
ACDBPLACEHOLDER
  5
F
102
{ACAD_REACTORS
330
E
102
}
330
E
  0
SCALE
  5
48
102
{ACAD_REACTORS
330
47
102
}
330
47
100
AcDbScale
 70
     0
300
1:1
140
1.0
141
1.0
290
     1
  0
SCALE
  5
49
102
{ACAD_REACTORS
330
47
102
}
330
47
100
AcDbScale
 70
     0
300
1:2
140
1.0
141
2.0
290
     0
  0
SCALE
  5
4A
102
{ACAD_REACTORS
330
47
102
}
330
47
100
AcDbScale
 70
     0
300
1:4
140
1.0
141
4.0
290
     0
  0
SCALE
  5
4B
102
{ACAD_REACTORS
330
47
102
}
330
47
100
AcDbScale
 70
     0
300
1:5
140
1.0
141
5.0
290
     0
  0
SCALE
  5
4C
102
{ACAD_REACTORS
330
47
102
}
330
47
100
AcDbScale
 70
     0
300
1:8
140
1.0
141
8.0
290
     0
  0
SCALE
  5
4D
102
{ACAD_REACTORS
330
47
102
}
330
47
100
AcDbScale
 70
     0
300
1:10
140
1.0
141
10.0
290
     0
  0
SCALE
  5
4E
102
{ACAD_REACTORS
330
47
102
}
330
47
100
AcDbScale
 70
     0
300
1:16
140
1.0
141
16.0
290
     0
  0
SCALE
  5
4F
102
{ACAD_REACTORS
330
47
102
}
330
47
100
AcDbScale
 70
     0
300
1:20
140
1.0
141
20.0
290
     0
  0
SCALE
  5
50
102
{ACAD_REACTORS
330
47
102
}
330
47
100
AcDbScale
 70
     0
300
1:30
140
1.0
141
30.0
290
     0
  0
SCALE
  5
51
102
{ACAD_REACTORS
330
47
102
}
330
47
100
AcDbScale
 70
     0
300
1:40
140
1.0
141
40.0
290
     0
  0
SCALE
  5
52
102
{ACAD_REACTORS
330
47
102
}
330
47
100
AcDbScale
 70
     0
300
1:50
140
1.0
141
50.0
290
     0
  0
SCALE
  5
53
102
{ACAD_REACTORS
330
47
102
}
330
47
100
AcDbScale
 70
     0
300
1:100
140
1.0
141
100.0
290
     0
  0
SCALE
  5
54
102
{ACAD_REACTORS
330
47
102
}
330
47
100
AcDbScale
 70
     0
300
2:1
140
2.0
141
1.0
290
     0
  0
SCALE
  5
55
102
{ACAD_REACTORS
330
47
102
}
330
47
100
AcDbScale
 70
     0
300
4:1
140
4.0
141
1.0
290
     0
  0
SCALE
  5
56
102
{ACAD_REACTORS
330
47
102
}
330
47
100
AcDbScale
 70
     0
300
8:1
140
8.0
141
1.0
290
     0
  0
SCALE
  5
57
102
{ACAD_REACTORS
330
47
102
}
330
47
100
AcDbScale
 70
     0
300
10:1
140
10.0
141
1.0
290
     0
  0
SCALE
  5
58
102
{ACAD_REACTORS
330
47
102
}
330
47
100
AcDbScale
 70
     0
300
100:1
140
100.0
141
1.0
290
     0
  0
ENDSEC
  0
EOF
